<?xml version="1.0" standalone="no"?>
<!DOCTYPE svg PUBLIC "-//W3C//DTD SVG 1.1//EN" "http://www.w3.org/Graphics/SVG/1.1/DTD/svg11.dtd" >
<svg xmlns="http://www.w3.org/2000/svg" xmlns:xlink="http://www.w3.org/1999/xlink" version="1.1">
<metadata></metadata>
<defs>
<font id="courier_newregular" horiz-adv-x="1229" >
<font-face units-per-em="2048" ascent="1638" descent="-410" />
<missing-glyph horiz-adv-x="500" />
<glyph horiz-adv-x="0" />
<glyph unicode="&#xd;" />
<glyph unicode=" " />
<glyph unicode="!" d="M491 73q0 45 31 75t73 30h39q43 0 73.5 -30.5t30.5 -73.5q0 -44 -31 -74t-73 -30h-39q-43 0 -73.5 30.5t-30.5 72.5zM533 1205q0 34 23.5 57t58.5 23t58 -23t23 -58q0 -10 -1 -34l-38 -678q-2 -32 -13.5 -45t-28.5 -13q-18 0 -29.5 13t-13.5 45l-37 678q-2 24 -2 35z" />
<glyph unicode="&#x22;" d="M266 1234h266l-70 -486q-6 -38 -22 -53.5t-41 -15.5t-41 15.5t-22 53.5zM695 1234h266l-70 -486q-6 -38 -22 -53.5t-40 -15.5q-26 0 -42 15.5t-21 53.5z" />
<glyph unicode="#" d="M187 434q0 19 13 30.5t43 11.5h181l18 264h-156q-31 0 -44 11.5t-13 30.5t13 30.5t44 11.5h162l33 468q2 29 14 41.5t28 12.5l18 -4q25 -16 25 -40l-1 -16l-32 -462h189l33 468q2 29 13.5 41.5t28.5 12.5l17 -4q26 -16 26 -40l-1 -16l-33 -462h179q30 0 43 -11.5 t13 -30.5t-13 -30.5t-43 -11.5h-185l-18 -264h161q30 0 43 -11.5t13 -30.5t-13 -30.5t-43 -11.5h-167l-33 -468q-2 -30 -13.5 -42t-28.5 -12l-17 4q-25 15 -25 41v15l33 462h-190l-32 -468q-2 -30 -14 -42t-28 -12l-18 4q-25 15 -25 41l1 15l32 462h-175q-30 0 -43 11.5 t-13 30.5zM508 476h190l18 264h-189z" />
<glyph unicode="$" d="M228 191v164q0 30 11.5 43.5t30.5 13.5q18 0 31 -13q9 -9 11 -40q6 -53 85.5 -108.5t215.5 -55.5q141 0 222 67t81 156q0 59 -30 101t-94 69q-42 17 -176 42q-194 38 -269 98q-76 60 -76 176q0 108 82 193t218 101v106q0 31 11.5 44t30.5 13t30.5 -13t11.5 -44v-106 q68 -6 112 -21.5t104 -55.5q1 25 13 37t29 12q19 0 31 -13t12 -43v-125q0 -30 -12 -43t-31 -13q-16 0 -27 10.5t-15 35.5q-6 47 -62 85q-82 54 -193 54q-113 0 -186.5 -66t-73.5 -149t65 -127q49 -34 206.5 -63.5t213.5 -55.5q80 -35 119.5 -95t39.5 -145q0 -114 -89 -200.5 t-256 -103.5v-247q0 -31 -11.5 -44t-30.5 -13t-30.5 13t-11.5 44v247q-154 10 -259 100q0 -44 -3.5 -53.5t-14.5 -17t-24 -7.5q-18 0 -30 13t-12 43z" />
<glyph unicode="%" d="M187 498q0 10 7 20q5 6 23 12l778 253q14 4 22 4q10 0 18.5 -9t8.5 -21q0 -10 -7 -20q-5 -6 -23 -12l-778 -253q-14 -4 -21 -4q-11 0 -19.5 9t-8.5 21zM230 1016q0 108 75 183.5t181 75.5t181 -75.5t75 -183.5t-75.5 -184t-180.5 -76q-106 0 -181 76t-75 184zM290 1016 q0 -83 57.5 -141t138.5 -58t138.5 58t57.5 141t-57.5 141t-138.5 58t-138.5 -58t-57.5 -141zM488 235q0 108 75 184t181 76t181.5 -76t75.5 -184t-75.5 -183.5t-181.5 -75.5q-105 0 -180.5 76t-75.5 183zM548 235q0 -82 57.5 -140.5t138.5 -58.5t138.5 58t57.5 141 q0 84 -57.5 141.5t-138.5 57.5t-138.5 -58t-57.5 -141z" />
<glyph unicode="&#x26;" d="M254 294q0 106 61.5 188t169.5 114q-74 119 -88.5 156.5t-14.5 77.5q0 99 75 173.5t180 74.5q34 0 68 -10t68 -31q43 22 53 22q17 0 29.5 -12.5t12.5 -30.5q0 -12 -7 -22t-28 -21l-65 -35q-31 28 -63.5 41.5t-66.5 13.5q-69 0 -120.5 -51t-51.5 -114q0 -65 90 -208 l232 -369q61 115 96 266h82q30 0 43 -12t13 -30q0 -13 -7.5 -24t-17.5 -15t-49 -4q-48 -169 -110 -262l57 -86h71q30 0 43 -11.5t13 -30.5q0 -18 -13 -30t-43 -12h-114l-64 99q-90 -132 -232 -132q-120 0 -211 95t-91 232zM338 294q0 -101 66.5 -172t149.5 -71 q112 0 185 126l-218 345q-84 -20 -133.5 -81.5t-49.5 -146.5z" />
<glyph unicode="'" d="M481 1255h266l-70 -525q-6 -42 -22.5 -58.5t-40.5 -16.5q-25 0 -41 16.5t-22 58.5z" />
<glyph unicode="(" d="M605 498q0 115 30 244t115 298t124 204q12 11 26 11q18 0 30.5 -12t12.5 -29q0 -10 -7 -22q-110 -202 -157 -366t-47 -328q0 -165 47 -329t157 -365q7 -12 7 -22q0 -17 -12.5 -29.5t-30.5 -12.5q-14 0 -26 11q-37 34 -121 199t-116 292t-32 256z" />
<glyph unicode=")" d="M301 -218q0 10 7 22q110 201 157 365t47 328q0 165 -47 329t-157 366q-7 12 -7 22q0 17 12.5 29t30.5 12q14 0 26 -11q37 -34 121 -199t116 -292t32 -256q0 -115 -30 -243.5t-115 -298t-124 -203.5q-12 -12 -26 -12q-18 0 -30.5 12.5t-12.5 29.5z" />
<glyph unicode="*" d="M226 964q0 17 12 29.5t27 12.5q11 0 30 -6l273 -89v287q0 31 12 44t31 13q18 0 30 -13t12 -44v-287l273 89q19 6 29 6q16 0 28 -12.5t12 -29.5q0 -15 -8.5 -26t-34.5 -19l-273 -89l169 -232q16 -23 16 -36q0 -18 -12.5 -30.5t-29.5 -12.5q-22 0 -43 29l-169 233 l-169 -233q-21 -29 -42 -29q-18 0 -30.5 12.5t-12.5 30.5q0 13 17 36l169 232l-274 90q-25 8 -33.5 18.5t-8.5 25.5z" />
<glyph unicode="+" d="M144 585q0 19 13 30.5t43 11.5h372v418q0 30 12 43t31 13q18 0 30 -13t12 -43v-418h372q30 0 43 -11.5t13 -30.5t-13 -30.5t-43 -11.5h-372v-420q0 -30 -12 -43t-31 -13q-18 0 -30 13t-12 43v420h-372q-30 0 -43 11.5t-13 30.5z" />
<glyph unicode="," d="M299 -240q0 10 3 22l146 520h273l-297 -552q-27 -50 -65 -50q-25 0 -42.5 17.5t-17.5 42.5z" />
<glyph unicode="-" d="M186 519v120h857v-120h-857z" />
<glyph unicode="." d="M461 105q0 58 40.5 97t95.5 39h36q56 0 96 -39.5t40 -95.5q0 -58 -40.5 -97t-95.5 -39h-36q-56 0 -96 39.5t-40 95.5z" />
<glyph unicode="/" d="M230 -129q0 12 10 33l675 1448q11 23 21 30t24 7q17 0 29.5 -12.5t12.5 -27.5q0 -11 -10 -33l-676 -1448q-17 -37 -44 -37q-17 0 -29.5 12.5t-12.5 27.5z" />
<glyph unicode="0" d="M229 523v208q0 272 129 430q101 124 255 124q75 0 140 -29.5t111 -82.5q30 -34 64 -107t50 -133q22 -86 22 -202v-208q0 -271 -129 -429q-101 -124 -255 -124q-74 0 -139.5 29.5t-111.5 82.5q-29 33 -63.5 106t-49.5 134q-23 86 -23 201zM313 535q0 -119 33.5 -222 t76.5 -164q24 -34 64 -59q57 -36 129 -36q140 0 220 144.5t80 336.5v185q0 119 -33.5 221.5t-75.5 163.5q-25 35 -65 60q-57 35 -128 35q-141 0 -221 -144t-80 -336v-185z" />
<glyph unicode="1" d="M228 42q0 19 13 30.5t43 11.5h288v1072l-274 -86q-20 -6 -29 -6q-15 0 -27.5 12.5t-12.5 29.5q0 15 10 28q8 8 33 17l384 121v-1188h288q30 0 43 -11.5t13 -30.5q0 -18 -13 -30t-43 -12h-660q-30 0 -43 12t-13 30z" />
<glyph unicode="2" d="M171 0v124q256 230 498 468q113 111 155 163t57.5 91.5t15.5 79.5q0 108 -87 191t-210 83q-110 0 -195 -63t-110 -156q-6 -24 -15 -31q-12 -10 -28 -10q-17 0 -28.5 11.5t-11.5 27.5q0 48 52.5 130t145 129t189.5 47q157 0 270 -109t113 -247q0 -58 -19 -106.5 t-64.5 -106t-163.5 -173.5q-296 -292 -482 -453v-6h645v33q0 30 12 43t31 13q18 0 30 -13t12 -43v-117h-812z" />
<glyph unicode="3" d="M195 144q0 16 11.5 28t27.5 12t36 -15q155 -115 328 -115q146 0 244.5 91.5t98.5 203.5q0 75 -48.5 147t-139.5 113.5t-184 41.5q-30 0 -43 11.5t-13 30.5q0 18 12.5 30t37.5 12l72 -1q113 0 186.5 69t73.5 160q0 94 -77 166t-201 72q-87 0 -160 -30t-117 -82 q-16 -20 -24.5 -24.5t-19.5 -4.5q-17 0 -29 11.5t-12 27.5q0 40 87 101q121 85 275 85q159 0 261 -95.5t102 -227.5q0 -84 -49 -159t-144 -120q116 -52 177 -142.5t61 -188.5q0 -151 -122.5 -266.5t-306.5 -115.5q-108 0 -224 46t-162 94q-15 16 -15 34z" />
<glyph unicode="4" d="M214 351v97l467 807h175v-820h70q31 0 44 -11.5t13 -30.5q0 -18 -13 -30t-44 -12h-70v-267h70q31 0 44 -11.5t13 -30.5q0 -18 -13 -30t-44 -12h-312q-31 0 -44 12t-13 30q0 19 13 30.5t44 11.5h157v267h-557zM302 435h469v735h-44z" />
<glyph unicode="5" d="M196 170q0 18 12 30.5t28 12.5q17 0 36 -18q151 -141 329 -141q147 0 243 100.5t96 267.5q0 142 -83 228.5t-211 86.5q-131 0 -262 -69q-32 -16 -45 -16q-18 0 -29 12t-11 34v557h586q30 0 43 -12t13 -31q0 -18 -13 -30t-43 -12h-502v-411q74 31 142 46.5t129 15.5 q158 0 264.5 -111t106.5 -292q0 -200 -120 -324t-300 -124q-119 0 -229 53q-78 37 -142 92q-38 33 -38 55z" />
<glyph unicode="6" d="M274 626q0 158 63 294q48 105 128 184.5t186.5 130t230.5 50.5q84 0 140 -34q24 -15 24 -40q0 -18 -11 -29.5t-28 -11.5q-13 0 -31 10q-41 20 -102 20q-195 0 -355.5 -167.5t-160.5 -398.5q0 -33 6 -103q78 115 160.5 170t183.5 55q134 0 238 -111.5t104 -275.5 q0 -150 -95 -274.5t-262 -124.5q-109 0 -203.5 67t-148.5 206q-67 173 -67 383zM383 392q38 -182 119.5 -260t192.5 -78q112 0 191.5 87.5t79.5 227.5q0 131 -80 217t-181 86q-97 0 -187 -83q-60 -55 -135 -197z" />
<glyph unicode="7" d="M211 1096v159h771v-134l-338 -1080q-8 -26 -19 -34.5t-25 -8.5q-18 0 -30 12t-12 28q0 10 6 28l333 1066v38h-602v-74q0 -30 -11.5 -43t-30.5 -13q-18 0 -30 13t-12 43z" />
<glyph unicode="8" d="M231 337q0 95 53.5 178.5t159.5 135.5q-92 53 -134 110q-58 81 -58 179q0 138 106.5 241.5t256.5 103.5q151 0 257 -103.5t106 -241.5q0 -98 -58 -178q-41 -58 -133 -111q105 -51 158.5 -134.5t53.5 -179.5q0 -149 -112 -258t-272 -109t-272 109t-112 258zM315 336 q0 -114 86.5 -198t213.5 -84t213.5 84t86.5 197q0 111 -86 193t-214 82t-214 -82t-86 -192zM337 938q0 -98 79.5 -171.5t197.5 -73.5q119 0 198.5 73.5t79.5 170.5q0 108 -80.5 185.5t-197.5 77.5q-116 0 -196.5 -78t-80.5 -184z" />
<glyph unicode="9" d="M275 878q0 154 95.5 280.5t255.5 126.5q114 0 208 -71t146 -206q67 -173 67 -402q0 -178 -57 -296q-38 -80 -111.5 -155t-165.5 -122q-126 -63 -262 -63q-90 0 -147 34q-26 16 -26 40q0 17 12 28.5t29 11.5q12 0 35 -11q39 -19 90 -19q213 0 366 153.5t153 384.5 q0 42 -4 118q-65 -115 -154.5 -173t-183.5 -58q-87 0 -168.5 50t-129.5 146.5t-48 202.5zM359 879q0 -137 81 -226.5t183 -89.5q59 0 116.5 32t108.5 96q33 43 95 159q-53 203 -131.5 276.5t-183.5 73.5q-107 0 -188 -90t-81 -231z" />
<glyph unicode=":" d="M461 105q0 58 40.5 97t95.5 39h36q56 0 96 -39.5t40 -95.5q0 -58 -40.5 -97t-95.5 -39h-36q-56 0 -96 39.5t-40 95.5zM461 729q0 59 40.5 98t95.5 39h36q56 0 96 -40t40 -95q0 -59 -40.5 -98t-95.5 -39h-36q-56 0 -96 40t-40 95z" />
<glyph unicode=";" d="M312 -163q0 12 6 31l132 434h264l-283 -464q-21 -34 -33.5 -43t-29.5 -9q-24 0 -40 15t-16 36zM461 729q0 59 40.5 98t94.5 39h37q56 0 95.5 -40t39.5 -95q0 -59 -40 -98t-95 -39h-37q-56 0 -95.5 40t-39.5 95z" />
<glyph unicode="&#x3c;" d="M98 583l908 506q22 12 33 12q17 0 29.5 -12.5t12.5 -29.5q0 -25 -34 -44l-778 -432l777 -432q34 -19 34 -44q0 -17 -12.5 -29.5t-29.5 -12.5q-11 0 -33 12z" />
<glyph unicode="=" d="M101 436q0 19 13 30.5t43 11.5h916q30 0 43 -11.5t13 -30.5t-13 -30.5t-43 -11.5h-916q-30 0 -43 11.5t-13 30.5zM101 738q0 18 13 30t43 12h916q30 0 43 -12t13 -31q0 -18 -13 -30t-43 -12h-916q-30 0 -43 12t-13 31z" />
<glyph unicode="&#x3e;" d="M148 107q0 25 34 44l778 432l-777 432q-34 19 -34 44q0 17 12.5 29.5t29.5 12.5q11 0 33 -12l907 -506l-908 -506q-22 -12 -33 -12q-17 0 -29.5 12.5t-12.5 29.5z" />
<glyph unicode="?" d="M275 959v141q156 69 202 81q78 19 156 19q167 0 268.5 -100t101.5 -253q0 -94 -60.5 -166.5t-282.5 -166.5v-85q0 -30 -12 -43t-30 -13q-19 0 -31 13t-12 43v141q219 81 299 162q45 45 45 113q0 112 -81.5 191.5t-211.5 79.5q-66 0 -124.5 -15t-142.5 -56v-86 q0 -30 -11.5 -43t-30.5 -13q-18 0 -30 13t-12 43zM470 73q0 45 31 75t73 30h84q44 0 74.5 -30.5t30.5 -73.5q0 -44 -31.5 -74t-73.5 -30h-84q-43 0 -73.5 30.5t-30.5 72.5z" />
<glyph unicode="@" d="M215 413v336q0 256 136 418q108 130 266 130q82 0 151 -34.5t122 -115t53 -185.5v-576q20 -2 30 -13t10 -28q0 -13 -6.5 -23.5t-16 -15t-33.5 -4.5h-68v11q-25 -4 -46 -6t-39 -2q-123 0 -201.5 76t-78.5 184q0 123 97.5 211.5t267.5 88.5v97q0 110 -68 180t-170 70 q-71 0 -134 -36q-43 -25 -71 -61q-48 -63 -82.5 -151.5t-34.5 -219.5v-331q0 -194 89.5 -326.5t241.5 -132.5q150 0 225 71q17 16 33 16q17 0 29 -12t12 -28q0 -32 -60 -70q-96 -61 -251 -61q-80 0 -146.5 29.5t-111.5 81.5q-28 31 -67 106t-55 133q-23 81 -23 193zM578 567 q0 -76 54.5 -127t152.5 -51q17 0 35.5 2.5t38.5 6.5v384q-132 -1 -206.5 -66t-74.5 -149z" />
<glyph unicode="A" d="M17 42q0 19 13 30.5t43 11.5h65l371 1002h-248q-30 0 -43 11.5t-13 30.5t13 30.5t43 11.5h423l410 -1086h65q30 0 43 -11.5t13 -30.5q0 -18 -13 -30t-43 -12h-313q-31 0 -44 12t-13 30q0 19 13 30.5t44 11.5h160l-115 307h-552l-113 -307h161q30 0 43 -11.5t13 -30.5 q0 -18 -13 -30t-43 -12h-314q-30 0 -43 12t-13 30zM371 475h488l-232 611h-31z" />
<glyph unicode="B" d="M87 42q0 19 13 30.5t43 11.5h113v1002h-113q-30 0 -43 11.5t-13 30.5t13 30.5t43 11.5h528q157 0 255.5 -90.5t98.5 -212.5q0 -154 -165 -249q131 -47 192 -125t61 -172q0 -84 -40 -153.5t-122.5 -118.5t-179.5 -49h-628q-30 0 -43 12t-13 30zM340 84h425q81 0 141 36 t91 89t31 110q0 64 -44.5 124t-123.5 91t-218 31h-302v-481zM340 650h297q95 0 174 35q61 28 95 81t34 108q0 79 -74 145.5t-193 66.5h-333v-436z" />
<glyph unicode="C" d="M127 504v171q0 124 66.5 253.5t182 199t250.5 69.5q208 0 358 -142v59q0 30 11.5 43t30.5 13t30.5 -13t11.5 -43v-233q0 -31 -11.5 -44t-30.5 -13q-17 0 -28.5 12t-13.5 39q-5 84 -91 149q-116 89 -264 89q-97 0 -183 -43q-64 -31 -102 -76q-66 -78 -105 -173 q-28 -70 -28 -158v-147q0 -188 136 -326.5t316 -138.5q108 0 193.5 47t165.5 142q17 21 38 21q18 0 29 -11t11 -28q0 -23 -43 -70q-82 -92 -184.5 -138.5t-207.5 -46.5q-91 0 -185 35q-72 27 -119 63t-115.5 121.5t-93.5 158t-25 159.5z" />
<glyph unicode="D" d="M158 42q0 19 13 30.5t43 11.5h71v1002h-71q-30 0 -43 11.5t-13 30.5t13 30.5t43 11.5h452q106 0 193.5 -44t133.5 -100q79 -95 120 -201q29 -77 29 -182v-116q0 -129 -57 -250t-190 -211q-99 -66 -229 -66h-452q-30 0 -43 12t-13 30zM369 84h305q106 0 198.5 69 t139 165.5t46.5 190.5v152q0 78 -25 139q-36 89 -102 169q-36 44 -106 80.5t-151 36.5h-305v-1002z" />
<glyph unicode="E" d="M88 42q0 19 13 30.5t43 11.5h113v1002h-113q-30 0 -43 11.5t-13 30.5t13 30.5t43 11.5h883v-289q0 -30 -11.5 -43t-30.5 -13t-30.5 13t-11.5 43v205h-602v-437h301v95q0 30 12 43t31 13q18 0 30 -13t12 -43v-274q0 -30 -12 -43t-30 -13q-19 0 -31 13t-12 43v95h-301v-481 h646v248q0 30 11.5 43t30.5 13t30.5 -13t11.5 -43v-332h-927q-30 0 -43 12t-13 30z" />
<glyph unicode="F" d="M159 42q0 19 13 30.5t43 11.5h113v1002h-113q-30 0 -43 11.5t-13 30.5t15 32q11 10 41 10h925v-289q0 -30 -12 -43t-30 -13q-19 0 -31 13t-12 43v205h-643v-437h301v95q0 30 12 43t31 13q18 0 30 -13t12 -43v-274q0 -30 -12 -43t-30 -13q-19 0 -31 13t-12 43v95h-301 v-481h288q30 0 43 -11.5t13 -30.5q0 -18 -13 -30t-43 -12h-485q-30 0 -43 12t-13 30z" />
<glyph unicode="G" d="M128 506v154q0 138 68.5 268.5t187.5 199.5t259 69q203 0 343 -111q0 49 3.5 59t14.5 17.5t25 7.5q18 0 30 -13t12 -43v-190q0 -31 -12 -43.5t-30 -12.5q-17 0 -28.5 11.5t-12.5 40.5q-6 85 -110.5 139t-227.5 54q-116 0 -209.5 -50.5t-174.5 -192.5q-54 -93 -54 -211 v-153q0 -209 128 -332t353 -123q76 0 141 16t152 56v311h-289q-30 0 -43 11.5t-13 30.5t13 31t43 12l404 -1q30 0 43 -11.5t13 -30.5q0 -13 -8 -24t-18 -14.5t-60 -3.5v-360q-96 -53 -191.5 -80t-190.5 -27q-135 0 -237.5 40t-173.5 112t-110.5 161t-39.5 226z" />
<glyph unicode="H" d="M107 42q0 19 13 30.5t43 11.5h95v1002h-52q-31 0 -44 11.5t-13 30.5t13 30.5t44 11.5h249q30 0 43 -11.5t13 -30.5t-13 -30.5t-43 -11.5h-113v-436h557v436h-112q-30 0 -43 11.5t-13 30.5t12.5 30.5t43.5 11.5h249q31 0 44 -11.5t13 -30.5t-13 -30.5t-44 -11.5h-52v-1002 h95q30 0 43 -11.5t13 -30.5q0 -18 -13 -30t-43 -12h-292q-30 0 -43 12t-13 30q0 19 12.5 30.5t43.5 11.5h112v482h-557v-482h113q30 0 43 -11.5t13 -30.5q0 -18 -13 -30t-43 -12h-292q-30 0 -43 12t-13 30z" />
<glyph unicode="I" d="M229 42q0 19 13 30.5t43 11.5h288v1002h-288q-30 0 -43 11.5t-13 30.5t13 30.5t43 11.5h660q30 0 43 -11.5t13 -30.5t-13 -30.5t-43 -11.5h-288v-1002h288q30 0 43 -11.5t13 -30.5q0 -18 -13 -30t-43 -12h-660q-30 0 -43 12t-13 30z" />
<glyph unicode="J" d="M171 153v310q0 30 12 43t30 13q19 0 31 -13t12 -43l-1 -270q77 -71 152.5 -106.5t149.5 -35.5q82 0 155 40q55 30 100.5 101t45.5 152v742h-329q-31 0 -44 11.5t-13 30.5t13 30.5t44 11.5h614q30 0 43 -11.5t13 -30.5t-13 -30.5t-43 -11.5h-200v-742q0 -153 -114 -265 t-272 -112q-95 0 -186.5 43.5t-199.5 142.5z" />
<glyph unicode="K" d="M89 42q0 19 13 30.5t43 11.5h113v1002h-113q-30 0 -43 11.5t-13 30.5t13 30.5t43 11.5h352q31 0 44 -11.5t13 -30.5t-13 -30.5t-44 -11.5h-155v-517l580 517h-92q-31 0 -44 11.5t-13 30.5t13 30.5t44 11.5h247q30 0 43 -11.5t13 -30.5t-13 -30.5t-43 -11.5h-34l-462 -413 q103 -42 171 -105t131 -179q36 -65 132 -305h105q31 0 44 -11.5t13 -30.5q0 -18 -13 -30t-44 -12h-162q-132 361 -222 464.5t-225 145.5l-169 -152v-374h155q31 0 44 -11.5t13 -30.5q0 -18 -13 -30t-44 -12h-352q-30 0 -43 12t-13 30z" />
<glyph unicode="L" d="M128 42q0 19 13 30.5t43 11.5h200v1002h-200q-30 0 -43 11.5t-13 30.5t13 30.5t43 11.5h485q30 0 43 -11.5t13 -30.5t-13 -30.5t-43 -11.5h-200v-1002h558v334q0 30 12 43t31 13q18 0 30 -12.5t12 -43.5v-418h-928q-30 0 -43 12t-13 30z" />
<glyph unicode="M" d="M24 42q0 19 13 30.5t43 11.5h71v1002h-53q-30 0 -43 11.5t-13 30.5t13 30.5t43 11.5h206l318 -724l313 724h206q31 0 44 -11.5t13 -30.5t-13 -30.5t-44 -11.5h-52v-1002h70q31 0 44 -11.5t13 -30.5q0 -18 -13 -30t-44 -12h-309q-30 0 -43.5 12t-13.5 30q0 19 13 30.5 t44 11.5h155v1002h-18l-317 -735h-96l-323 735h-16v-1002h155q30 0 43 -11.5t13 -30.5q0 -18 -13 -30t-43 -12h-310q-30 0 -43 12t-13 30z" />
<glyph unicode="N" d="M46 1128q0 19 13 30.5t43 11.5h220l620 -1049v965h-155q-30 0 -43 11.5t-13 30.5t12.5 30.5t43.5 11.5h310q30 0 43 -11.5t13 -30.5t-13 -30.5t-43 -11.5h-71v-1086h-108l-619 1047v-963h155q31 0 44 -11.5t13 -30.5q0 -18 -13 -30t-44 -12h-309q-31 0 -44 12t-13 30 q0 19 13 30.5t44 11.5h70v1002h-113q-30 0 -43 11.5t-13 30.5z" />
<glyph unicode="O" d="M104 582q0 271 154.5 443t357.5 172q137 0 256 -80t187.5 -223t68.5 -312q0 -168 -68 -311.5t-187.5 -223.5t-256.5 -80q-203 0 -357.5 172.5t-154.5 442.5zM188 582q0 -234 131.5 -382.5t296.5 -148.5q189 0 308 162.5t119 368.5q0 205 -119 368t-308 163 q-177 0 -302.5 -155.5t-125.5 -375.5z" />
<glyph unicode="P" d="M179 42q0 19 13 30.5t43 11.5h113v1002h-113q-30 0 -43 11.5t-13 30.5t13 30.5t43 11.5h488q173 0 282.5 -102t109.5 -239q0 -81 -35.5 -146t-85.5 -102q-75 -56 -155 -82q-58 -19 -144 -19h-263v-396h288q30 0 43 -11.5t13 -30.5q0 -18 -13 -30t-43 -12h-485 q-30 0 -43 12t-13 30zM432 564h268q93 0 174.5 41.5t119 101.5t37.5 122q0 99 -85 178t-215 79h-299v-522z" />
<glyph unicode="Q" d="M104 582q0 271 154.5 443t357.5 172t357.5 -172t154.5 -443q0 -267 -152 -439.5t-350 -175.5l-112 -84q83 17 137 17q88 0 173 -32q60 -23 93 -23q58 0 129 47q28 18 40 18q18 0 29.5 -11.5t11.5 -30.5q0 -15 -10 -26q-21 -24 -95 -56q-56 -25 -110 -25q-42 0 -116 27 t-143 27q-49 0 -121 -12q-101 -17 -162 -34q-20 -5 -29 -5q-17 0 -29 12t-12 32t23 36l187 135q-167 41 -286.5 206t-119.5 397zM188 582q0 -234 131.5 -382.5t296.5 -148.5q189 0 308 162.5t119 368.5q0 205 -119 368t-308 163q-177 0 -302.5 -155.5t-125.5 -375.5z" />
<glyph unicode="R" d="M88 42q0 19 13 30.5t43 11.5h113v1002h-113q-30 0 -43 11.5t-13 30.5t13 30.5t43 11.5h508q157 0 264.5 -99.5t107.5 -224.5q0 -90 -66.5 -169.5t-222.5 -132.5q90 -62 154 -140t205 -320h64q30 0 43 -11.5t13 -30.5q0 -18 -13 -30t-43 -12h-112q-156 279 -241.5 374 t-196.5 148h-267v-438h155q31 0 44 -11.5t13 -30.5q0 -18 -13 -30t-44 -12h-352q-30 0 -43 12t-13 30zM341 606h229q110 0 199.5 40t130 94t40.5 110q0 84 -84.5 160t-205.5 76h-309v-480z" />
<glyph unicode="S" d="M185 56v232q0 31 11.5 44t30.5 13q18 0 29.5 -12t12.5 -39q5 -92 98.5 -167.5t251.5 -75.5t249.5 79t91.5 187q0 66 -35 117.5t-104 81.5q-48 21 -200 47q-209 35 -301 107t-92 205q0 132 105.5 227t278.5 95q176 0 303 -111v28q0 30 11.5 43t30.5 13t30.5 -13t11.5 -43 v-214q0 -30 -11.5 -43t-30.5 -13q-18 0 -29.5 12t-12.5 39q-5 84 -86.5 151t-213.5 67q-139 0 -221 -71.5t-82 -168.5q0 -50 23 -91t61 -66.5t86 -41t150 -32.5q171 -28 236 -57q87 -39 131.5 -108t44.5 -163q0 -144 -115 -245.5t-310 -101.5q-219 0 -350 137v-48 q0 -30 -11.5 -43t-30.5 -13q-18 0 -30 13t-12 43z" />
<glyph unicode="T" d="M143 795v375h941v-375q0 -31 -11.5 -44t-30.5 -13t-30.5 13t-11.5 44v291h-344v-1002h218q30 0 43 -11.5t13 -30.5q0 -18 -13 -30t-43 -12h-521q-30 0 -43 12t-13 30q0 19 13 30.5t43 11.5h218v1002h-344v-291q0 -31 -11.5 -44t-30.5 -13q-18 0 -30 13t-12 44z" />
<glyph unicode="U" d="M83 1128q0 19 14 32q12 10 42 10h310q30 0 43 -11.5t13 -30.5t-13 -30.5t-43 -11.5h-155v-702q0 -139 95 -236t225 -97q83 0 151.5 38t120 117t51.5 178v702h-155q-30 0 -43 11.5t-13 30.5t13 30.5t43 11.5h310q30 0 43 -11.5t13 -30.5t-13 -30.5t-43 -11.5h-71v-702 q0 -177 -118 -297t-285 -120q-112 0 -199 49t-148 148.5t-61 219.5v702h-71q-30 0 -43 11.5t-13 30.5z" />
<glyph unicode="V" d="M16 1128q0 12 6.5 22.5t16.5 15t33 4.5h313q24 0 33.5 -4.5t16 -15t6.5 -22.5t-7 -22.5t-16.5 -15t-32.5 -4.5h-161l390 -1002h6l385 1002h-160q-24 0 -34 4.5t-16.5 15t-6.5 22.5t7 22.5t16.5 15t33.5 4.5h312q24 0 34 -4.5t16.5 -15t6.5 -22.5t-7 -22.5t-16.5 -15 t-33.5 -4.5h-64l-416 -1086h-117l-423 1086h-65q-23 0 -33 4.5t-16.5 15t-6.5 22.5z" />
<glyph unicode="W" d="M37 1128q0 19 13 30.5t43 11.5h312q31 0 44 -11.5t13 -30.5t-13 -30.5t-44 -11.5h-196l111 -990l227 815h129l233 -815l109 990h-197q-30 0 -43 11.5t-13 30.5t13 30.5t43 11.5h310q31 0 44 -11.5t13 -30.5t-13 -30.5t-44 -11.5h-31l-117 -1086h-132l-238 831l-233 -831 h-132l-124 1086h-31q-30 0 -43 11.5t-13 30.5z" />
<glyph unicode="X" d="M80 42q0 14 8 25t18 14t61 3l394 515l-376 487h-31q-30 0 -43 11.5t-13 30.5t13 30.5t43 11.5h229q31 0 44 -11.5t13 -30.5t-13 -30.5t-44 -11.5h-94l324 -419l322 419h-94q-31 0 -44 11.5t-13 30.5t13 30.5t44 11.5h230q30 0 43 -11.5t13 -30.5t-13 -30.5t-43 -11.5h-32 l-374 -487l399 -515h32q30 0 43 -11.5t13 -30.5q0 -18 -13 -30t-43 -12h-270q-30 0 -43 12t-13 30q0 19 13 30.5t43 11.5h134l-347 446l-343 -446h134q30 0 43 -11.5t13 -30.5q0 -18 -13 -30t-43 -12h-268q-30 0 -43 12t-13 30z" />
<glyph unicode="Y" d="M99 1128q0 19 13 30.5t43 11.5h231q30 0 43 -11.5t13 -30.5t-13 -30.5t-43 -11.5h-83l314 -473l307 473h-82q-31 0 -44 11.5t-13 30.5t13 30.5t44 11.5h230q30 0 43 -11.5t13 -30.5t-13 -30.5t-43 -11.5h-50l-363 -558v-444h218q30 0 43 -11.5t13 -30.5q0 -18 -13 -30 t-43 -12h-521q-30 0 -43 12t-13 30q0 19 12.5 30.5t43.5 11.5h218v444l-369 558h-50q-30 0 -43 11.5t-13 30.5z" />
<glyph unicode="Z" d="M213 0v122l682 957v7h-559v-247q0 -31 -12 -44t-31 -13q-18 0 -30 13t-12 44v331h725v-119l-682 -958v-9h644v293q0 31 11.5 44t30.5 13t30.5 -13t11.5 -44v-377h-809z" />
<glyph unicode="[" d="M573 -259v1514h288q30 0 43 -12t13 -31q0 -18 -13 -30t-43 -12h-204v-1345h204q30 0 43 -11.5t13 -30.5t-13 -30.5t-43 -11.5h-288z" />
<glyph unicode="\" d="M227 1343q0 16 12.5 28t29.5 12q27 0 45 -37l675 -1448q10 -22 10 -32q0 -16 -12.5 -28.5t-29.5 -12.5q-28 0 -45 37l-675 1449q-10 21 -10 32z" />
<glyph unicode="]" d="M316 -217q0 18 13 30t43 12h203v1345h-203q-30 0 -43 12t-13 30q0 19 13 31t43 12h288v-1514h-288q-30 0 -43 11.5t-13 30.5z" />
<glyph unicode="^" d="M228 779q0 14 18 37l368 463l369 -463q18 -23 18 -37q0 -18 -12.5 -30t-30.5 -12q-20 0 -42 26l-302 384l-302 -384q-21 -27 -41 -27q-18 0 -30.5 12.5t-12.5 30.5z" />
<glyph unicode="_" d="M0 -519q0 19 13 30.5t43 11.5h1117q31 0 43.5 -11.5t12.5 -30.5t-12.5 -30.5t-43.5 -11.5h-1117q-30 0 -43 11.5t-13 30.5z" />
<glyph unicode="`" d="M444 1286q0 18 12.5 30.5t30.5 12.5q15 0 38 -20l236 -204l22 -25q3 -5 3 -16q0 -18 -12.5 -30.5t-30.5 -12.5q-15 0 -38 20l-236 204q-25 22 -25 41z" />
<glyph unicode="a" d="M144 231q0 122 112 213t327 91q58 0 126 -7.5t147 -23.5v136q0 69 -64 120t-192 51q-98 0 -275 -57q-32 -10 -41 -10q-16 0 -27.5 12t-11.5 30q0 17 10 27q14 15 113 41q156 42 236 42q159 0 248 -78.5t89 -177.5v-556h112q31 0 44 -11.5t13 -30.5q0 -18 -13 -30t-44 -12 h-197v121q-183 -154 -391 -154q-151 0 -236 76.5t-85 187.5zM228 231q0 -76 59.5 -128t173.5 -52q109 0 202.5 43.5t192.5 138.5v185q-59 17 -125 25t-139 8q-183 0 -286 -79q-78 -59 -78 -141z" />
<glyph unicode="b" d="M45 42q0 19 13 30.5t43 11.5h113v1086h-113q-30 0 -43 12t-13 31q0 18 13 30t43 12h197v-557q152 198 367 198q184 0 315 -133.5t131 -327.5q0 -196 -132.5 -332t-313.5 -136q-220 0 -367 198v-165h-197q-30 0 -43 12t-13 30zM299 431q0 -159 109 -269.5t255 -110.5 t255 110.5t109 269.5t-109 269.5t-255 110.5t-255 -110.5t-109 -269.5z" />
<glyph unicode="c" d="M171 425q0 203 133.5 337t336.5 134q193 0 324 -115v28q0 31 12 44t30 13q19 0 31 -13t12 -44v-190q-1 -31 -12.5 -44t-30.5 -13q-17 0 -28.5 11.5t-13.5 38.5q-6 71 -93.5 135t-235.5 64q-187 0 -284 -117t-97 -268q0 -163 107 -269t277 -106q98 0 199.5 36t183.5 116 q21 20 37 20q17 0 28.5 -11.5t11.5 -28.5q0 -43 -101 -109q-163 -107 -363 -107q-203 0 -333.5 129.5t-130.5 328.5z" />
<glyph unicode="d" d="M126 431q0 120 60.5 231.5t165 172.5t219.5 61q220 0 370 -200v474h-112q-31 0 -44 12t-13 31q0 18 13 30t44 12h197v-1171h112q31 0 44 -11.5t13 -30.5q0 -18 -13 -30t-44 -12h-197v167q-146 -200 -371 -200q-114 0 -218.5 60.5t-165 172.5t-60.5 231zM210 431 q0 -159 108 -269.5t258 -110.5q149 0 257 110.5t108 269.5q0 160 -108 270t-257 110q-150 0 -258 -110t-108 -270z" />
<glyph unicode="e" d="M128 451q0 183 135.5 314t335.5 131q206 0 339 -134q131 -133 131 -343v-6h-856q22 -163 136.5 -262.5t283.5 -99.5q94 0 197 31t168 82q19 15 33 15q16 0 28 -12.5t12 -29.5t-16 -33q-48 -50 -170.5 -93.5t-251.5 -43.5q-216 0 -360.5 141.5t-144.5 342.5zM214 498h770 q-25 139 -131.5 226t-253.5 87t-253 -86t-132 -227z" />
<glyph unicode="f" d="M215 42q0 19 13 30.5t43 11.5h203v697h-182q-30 0 -43 12t-13 31q0 18 13 30t43 12h182v127q0 106 86 184t228 78q119 0 254 -22q51 -8 61.5 -19t10.5 -29t-12 -29.5t-32 -11.5q-8 0 -27 3q-151 23 -255 23q-110 0 -169.5 -54t-59.5 -123v-127h393q30 0 43 -12t13 -31 q0 -18 -13 -30t-43 -12h-393v-697h369q30 0 43 -11.5t13 -30.5q0 -18 -13 -30t-43 -12h-657q-30 0 -43 12t-13 30z" />
<glyph unicode="g" d="M125 459q0 181 125.5 309t298.5 128q213 0 348 -184v154h197q30 0 43 -12t13 -31q0 -18 -13 -30t-43 -12h-113v-839q0 -84 -36 -150q-24 -44 -80 -91t-102 -67t-123 -20h-238q-30 0 -43 11.5t-13 30.5t13 31t43 12l241 -1q74 0 133.5 38t98.5 111q22 42 22 107v252 q-135 -185 -348 -185q-173 0 -298.5 128.5t-125.5 309.5zM210 459q0 -148 101 -250.5t242 -102.5t242.5 102.5t101.5 250.5t-101.5 250t-242.5 102t-242 -102.5t-101 -249.5z" />
<glyph unicode="h" d="M85 1213q0 18 13 30t43 12h197v-517q80 87 153.5 122.5t164.5 35.5q98 0 166.5 -34.5t114.5 -106t46 -150.5v-521h94q31 0 43.5 -11.5t12.5 -30.5q0 -18 -12.5 -30t-43.5 -12h-273q-31 0 -44 12t-13 30q0 19 13 30.5t44 11.5h94v515q0 91 -65.5 152t-182.5 61 q-92 0 -157 -45q-47 -32 -155 -151v-532h95q30 0 43 -11.5t13 -30.5q0 -18 -13 -30t-43 -12h-274q-30 0 -43 12t-13 30q0 19 13 30.5t43 11.5h95v1086h-113q-30 0 -43 12t-13 31z" />
<glyph unicode="i" d="M189 42q0 19 13 30.5t43 11.5h330v697h-245q-30 0 -43.5 12t-13.5 30q0 19 13 31t44 12h329v-782h330q31 0 44 -11.5t13 -30.5q0 -18 -13 -30t-44 -12h-744q-30 0 -43 12t-13 30zM532 1080v217h124v-217h-124z" />
<glyph unicode="j" d="M180 -344q0 19 13 31t43 12l265 -1q107 0 173 70t66 173v840h-499q-30 0 -43 12t-13 31q0 18 12.5 30t43.5 12h583v-925q0 -107 -44 -179t-132 -117q-61 -31 -145 -31h-267q-30 0 -43 11.5t-13 30.5zM611 1080v217h124v-217h-124z" />
<glyph unicode="k" d="M191 42q0 19 13 30.5t43 11.5h113v1086h-113q-30 0 -43 12t-13 31q0 18 13 30t43 12h197v-774l357 300h-43q-30 0 -43 12t-13 30q0 19 13 31t43 12h269q31 0 44 -12t13 -31q0 -18 -13 -30t-44 -12h-97l-328 -274l415 -423h97q31 0 44 -11.5t13 -30.5q0 -18 -13 -30 t-44 -12h-272q-30 0 -43 12t-13 30q0 19 13 30.5t43 11.5h59l-361 371l-96 -81v-374h-197q-30 0 -43 12t-13 30z" />
<glyph unicode="l" d="M187 42q0 19 13 30.5t43 11.5h330v1086h-242q-30 0 -43.5 12t-13.5 31q0 18 13 30t44 12h326v-1171h330q31 0 44 -11.5t13 -30.5q0 -18 -13 -30t-44 -12h-744q-30 0 -43 12t-13 30z" />
<glyph unicode="m" d="M21 42q0 19 13 30.5t43 11.5h71v697h-71q-30 0 -43 12t-13 31q0 18 13 30t43 12h155v-85q107 115 215 115q65 0 114 -34.5t82 -104.5q56 70 113.5 104.5t115.5 34.5q91 0 145 -59q71 -76 71 -166v-587h71q30 0 43 -11.5t13 -30.5q0 -18 -13 -30t-43 -12h-155v663 q0 64 -39 106t-90 42q-46 0 -97 -34.5t-116 -135.5v-557h70q30 0 43 -11.5t13 -30.5q0 -18 -13 -30t-43 -12h-155v657q0 67 -39.5 110.5t-88.5 43.5q-45 0 -89 -29q-61 -41 -128 -141v-557h71q30 0 43 -11.5t13 -30.5q0 -18 -13 -30t-43 -12h-226q-30 0 -43 12t-13 30z" />
<glyph unicode="n" d="M108 42q0 19 13 30.5t43 11.5h95v697h-71q-30 0 -43 12t-13 31q0 18 13 30t43 12h155v-127q88 89 159 123t160 34q96 0 175 -41q56 -30 101.5 -99.5t45.5 -142.5v-529h71q30 0 43 -11.5t13 -30.5q0 -18 -13 -30t-43 -12h-225q-31 0 -44 12t-13 30q0 19 13 30.5t44 11.5 h70v515q0 89 -65 150.5t-174 61.5q-83 0 -144 -33.5t-174 -166.5v-527h95q30 0 43 -11.5t13 -30.5q0 -18 -13 -30t-43 -12h-274q-30 0 -43 12t-13 30z" />
<glyph unicode="o" d="M145 431q0 192 137 328.5t333 136.5q194 0 331.5 -136t137.5 -329q0 -192 -137.5 -328t-331.5 -136q-196 0 -333 136.5t-137 327.5zM229 431q0 -156 112.5 -268t272.5 -112t272.5 111.5t112.5 268.5q0 158 -112.5 269t-272.5 111t-272.5 -111.5t-112.5 -268.5z" />
<glyph unicode="p" d="M45 -344q0 19 13 30.5t43 11.5h113v1083h-113q-30 0 -43 12t-13 31q0 18 13 30t43 12h197v-153q75 91 161 137t203 46q124 0 229 -58t162.5 -161.5t57.5 -217.5q0 -181 -129.5 -309.5t-318.5 -128.5q-225 0 -365 183v-506h204q30 0 43 -11.5t13 -30.5q0 -18 -13 -30 t-43 -12h-401q-30 0 -43 11.5t-13 30.5zM298 459q0 -145 106 -249t259 -104q151 0 257 103.5t106 249.5q0 145 -105.5 248.5t-257.5 103.5q-153 0 -259 -104t-106 -248z" />
<glyph unicode="q" d="M128 459q0 182 129.5 309.5t319.5 127.5q224 0 363 -183v153h197q31 0 44 -12t13 -31q0 -18 -13 -30t-44 -12h-112v-1083h112q31 0 44 -11.5t13 -30.5q0 -18 -13 -30t-44 -12h-400q-30 0 -43 11.5t-13 30.5t13 30.5t43 11.5h203v506q-139 -183 -365 -183 q-188 0 -317.5 128.5t-129.5 309.5zM212 459q0 -145 106 -249t258 -104t258 104t106 249t-106 248.5t-258 103.5t-258 -103.5t-106 -248.5z" />
<glyph unicode="r" d="M171 41q0 17 12.5 28.5t43.5 11.5h203v700h-155q-30 0 -43 12t-13 31q0 18 12.5 30t43.5 12h239v-212q164 148 245.5 190.5t150.5 42.5q75 0 139.5 -50.5t64.5 -76.5q0 -19 -12.5 -31.5t-31.5 -12.5q-10 0 -17 3.5t-26 22.5q-35 35 -61 48t-51 13q-55 0 -132.5 -44 t-268.5 -215v-460h372q31 0 44 -11.5t13 -30.5q0 -18 -13 -30t-44 -12h-659q-30 0 -43 11.5t-13 29.5z" />
<glyph unicode="s" d="M207 56v173q0 30 11.5 43t30.5 13q18 0 30.5 -12.5t12.5 -33.5q0 -46 23 -77q35 -48 111.5 -79.5t187.5 -31.5q164 0 244 61t80 129q0 78 -81 125q-82 47 -238.5 63t-224.5 42t-106 78t-38 112q0 108 106 171.5t253 63.5q174 0 283 -85q0 29 12 42t30 13q19 0 31 -13 t12 -44v-144q0 -30 -12 -43t-31 -13q-17 0 -28.5 11t-13.5 36q-6 60 -62 99q-82 56 -217 56q-141 0 -219 -57q-59 -43 -59 -96q0 -60 70 -100q48 -28 182 -43q175 -19 243 -43q97 -35 144.5 -97t47.5 -134q0 -107 -103 -190.5t-302 -83.5t-326 101q0 -34 -4 -44t-14.5 -17 t-23.5 -7q-18 0 -30 13t-12 43z" />
<glyph unicode="t" d="M146 824q0 18 13 30t43 12h155v248q0 30 12 43t30 13q19 0 31 -13t12 -43v-248h456q30 0 43 -12t13 -31q0 -18 -13 -30t-43 -12h-456v-559q0 -73 58.5 -122t171.5 -49q85 0 184 25.5t154 57.5q20 13 33 13q16 0 28 -12.5t12 -29.5q0 -15 -13 -28q-32 -33 -155.5 -71.5 t-236.5 -38.5q-147 0 -234 69t-87 186v559h-155q-30 0 -43 12t-13 31z" />
<glyph unicode="u" d="M91 824q0 18 13 30t43 12h197v-627q0 -82 52 -135t130 -53q205 0 376 188v542h-155q-30 0 -43 12t-13 31q0 18 13 30t43 12h239v-782h71q30 0 43 -11.5t13 -30.5q0 -18 -13 -30t-43 -12h-155v123q-172 -156 -372 -156q-123 0 -187 67q-83 88 -83 205v542h-113 q-30 0 -43 12t-13 31z" />
<glyph unicode="v" d="M59 824q0 18 13 30t43 12h315q30 0 43 -12t13 -31q0 -18 -13 -30t-43 -12h-139l308 -697h37l302 697h-140q-30 0 -43 12t-13 31q0 18 13 30t43 12h316q31 0 43.5 -12t12.5 -31q0 -18 -12.5 -30t-43.5 -12h-85l-341 -781h-142l-345 781h-86q-30 0 -43 12t-13 31z" />
<glyph unicode="w" d="M56 824q0 18 13 30t43 12h231q30 0 43 -12t13 -31q0 -18 -13 -30t-43 -12h-107l149 -666l179 532h100l184 -532l143 666h-106q-30 0 -43.5 12t-13.5 31q0 18 13 30t44 12h230q31 0 44 -12t13 -31q0 -18 -13 -30t-44 -12h-40l-171 -781l-104 -1l-185 540l-184 -540l-104 1 l-174 781h-41q-30 0 -43 12t-13 31z" />
<glyph unicode="x" d="M101 42q0 13 7.5 24t17 14.5t47.5 3.5l385 369l-342 328q-36 0 -45.5 4t-17 15t-7.5 24q0 18 13 30t44 12h229q31 0 43.5 -12t12.5 -31q0 -18 -12.5 -30t-43.5 -12h-100l283 -273l285 273h-100q-30 0 -43.5 12t-13.5 31q0 18 13 30t44 12h229q30 0 43 -12t13 -31 q0 -12 -7.5 -23t-17 -15t-45.5 -4l-343 -328l385 -369q38 0 48 -3.5t17.5 -14.5t7.5 -24q0 -18 -13 -30t-44 -12h-270q-31 0 -44 12t-13 30q0 19 13 30.5t44 11.5h139l-327 313l-325 -313h140q30 0 43 -11.5t13 -30.5q0 -18 -13 -30t-43 -12h-273q-30 0 -43 12t-13 30z" />
<glyph unicode="y" d="M149 823q0 13 6.5 23.5t17 15t32.5 4.5h230q30 0 43 -12t13 -31q0 -18 -13 -30t-43 -12h-113l343 -689l338 689h-113q-30 0 -43 12t-13 31q0 18 13 30t43 12h229q31 0 44 -12t13 -31q0 -13 -8 -24t-18 -14.5t-56 -3.5l-532 -1083h131q30 0 43 -11.5t13 -30.5 q0 -18 -13 -30t-43 -12h-484q-30 0 -43 11.5t-13 30.5t13 30.5t43 11.5h263l148 302l-390 781h-25q-30 0 -43 12t-13 30z" />
<glyph unicode="z" d="M237 0v75l626 706h-522v-114q0 -30 -12 -43t-30 -13q-19 0 -31 13t-12 43v199h726v-75l-629 -707h568v116q0 30 11.5 43t30.5 13t31 -13t12 -43l-1 -200h-768z" />
<glyph unicode="{" d="M405 498q0 19 11 30t39 14q52 4 84.5 41.5t32.5 92.5v360q0 94 60 156.5t144 62.5q24 0 37 -12t13 -30t-13 -30q-9 -10 -41 -13q-50 -5 -82.5 -42t-32.5 -92v-360q0 -63 -20 -101.5t-71 -76.5q50 -38 68 -72q23 -45 23 -107v-359q0 -57 33 -93.5t82 -41.5q31 -3 41 -12 q13 -12 13 -30q0 -19 -13 -30.5t-38 -11.5q-79 0 -132 50q-71 69 -71 168v360q0 55 -33 92.5t-84 41.5q-28 3 -39 14t-11 31z" />
<glyph unicode="|" d="M572 -203v1401q0 31 12 44t30 13q19 0 31 -13t12 -44l-1 -1401q0 -30 -11.5 -43t-30.5 -13q-18 0 -30 13t-12 43z" />
<glyph unicode="}" d="M404 -217q0 18 12 30q10 9 42 12q50 5 82.5 42.5t32.5 92.5v359q0 63 20 102t71 77q-51 38 -68 72q-23 44 -23 106v360q0 56 -33 93t-82 41q-32 3 -41 12q-13 13 -13 31t12.5 30t37.5 12q80 0 132 -51q71 -68 71 -168v-360q0 -55 33.5 -92.5t84.5 -41.5q27 -3 38.5 -14 t11.5 -30q0 -20 -11.5 -31t-38.5 -14q-52 -4 -85 -41.5t-33 -92.5v-360q0 -94 -60 -156.5t-143 -62.5q-25 0 -37.5 12t-12.5 31z" />
<glyph unicode="~" d="M187 541q0 16 26 49q66 82 118 113.5t101 31.5q41 0 81 -19.5t103 -76.5q101 -93 125.5 -107.5t48.5 -14.5q71 0 151 102q29 37 39 43t23 6q16 0 28 -12t12 -28q0 -35 -87 -115.5t-160 -80.5q-45 0 -91 25.5t-131 105.5q-57 54 -86.5 71t-53.5 17q-29 0 -55 -16 q-35 -20 -96 -91q-29 -33 -37.5 -38t-18.5 -5q-17 0 -28.5 11.5t-11.5 28.5z" />
<glyph unicode="&#xa0;" />
<glyph unicode="&#xa2;" d="M228 646q0 160 110 270q81 81 233 114v250q0 30 11.5 43t30.5 13t30.5 -13t11.5 -43v-247q128 -4 218 -75q5 17 16 25.5t25 8.5q19 0 31 -13t12 -38v-127q0 -31 -11.5 -44t-30.5 -13q-17 0 -28 11t-14 37q-8 60 -68.5 103.5t-169.5 43.5q-144 0 -233.5 -87t-89.5 -218 q0 -129 89 -216.5t225 -87.5q67 0 139 23t122 64q21 17 37 17q18 0 29 -11.5t11 -29.5q0 -29 -51 -61q-117 -74 -258 -82v-207q0 -30 -11.5 -43t-30.5 -13t-30.5 13t-11.5 43v207q-149 18 -246 127t-97 256z" />
<glyph unicode="&#xa3;" d="M124 609q0 19 13 30.5t43 11.5h195q-57 177 -57 253q0 122 87 210t207 88q105 0 187 -67t82 -107q0 -14 -13 -26.5t-29 -12.5q-18 0 -38 25q-79 103 -186 103q-87 0 -149.5 -63t-62.5 -150q0 -35 9 -78q2 -7 49 -175h205q30 0 43 -11.5t13 -30.5t-13 -30.5t-43 -11.5 h-186q10 -62 10 -121q0 -96 -29.5 -191.5t-88.5 -170.5h519q38 0 64.5 27.5t30.5 80.5q2 24 13.5 35.5t28.5 11.5q18 0 30.5 -12.5t12.5 -32.5q0 -83 -53 -138.5t-122 -55.5h-669q-30 0 -43 12t-13 30q0 17 12 29t35 12q43 2 79 40q53 54 82 150t29 178q0 67 -12 116h-216 q-30 0 -43 11.5t-13 30.5z" />
<glyph unicode="&#xa5;" d="M98 1128q0 19 13 30.5t43 11.5h230q30 0 43 -11.5t13 -30.5t-13 -30.5t-43 -11.5h-81l311 -472l311 472h-82q-30 0 -43 11.5t-13 30.5t13 30.5t43 11.5h228q31 0 44 -11.5t13 -30.5t-13 -30.5t-44 -11.5h-48l-340 -515h245q22 0 31.5 -8.5t9.5 -21.5q0 -14 -9.5 -22 t-31.5 -8h-271v-158h271q22 0 31.5 -8t9.5 -22q0 -13 -9.5 -21.5t-31.5 -8.5h-271v-209h179q30 0 43 -11.5t13 -30.5q0 -18 -13 -30t-43 -12h-443q-30 0 -43 12t-13 30q0 19 13 30.5t43 11.5h179v209h-271q-21 0 -30.5 8.5t-9.5 21.5q0 14 9.5 22t30.5 8h271v158h-271 q-21 0 -30.5 8.5t-9.5 21.5t9.5 21.5t30.5 8.5h242l-339 515h-50q-30 0 -43 11.5t-13 30.5z" />
<glyph unicode="&#xa8;" d="M319 1147q0 34 24 58t57 24q34 0 58 -24t24 -58t-24 -57.5t-58 -23.5q-33 0 -57 24t-24 57zM748 1147q0 34 23.5 58t57.5 24t58 -24t24 -58t-24 -57.5t-58 -23.5t-57.5 24t-23.5 57z" />
<glyph unicode="&#xa9;" d="M0 584q0 254 179 433t432 179q254 0 433 -179t179 -433q0 -253 -179 -432t-433 -179q-253 0 -432 179t-179 432zM67 584q0 -225 159.5 -384t384.5 -159q226 0 385 159t159 384q0 226 -159 385t-385 159q-225 0 -384.5 -159t-159.5 -385zM325 550v97q0 106 76 201t206 95 q119 0 203 -81v34q0 17 7 24.5t18 7.5q10 0 16.5 -7.5t6.5 -24.5v-132q0 -14 -2.5 -19.5t-8.5 -9t-13 -3.5q-9 0 -15.5 6.5t-8.5 21.5q-3 49 -51 85q-66 50 -150 50q-100 0 -158 -63q-78 -86 -78 -192v-83q0 -107 77 -185.5t178 -78.5q116 0 204 107q10 12 21 12t17 -6 t6 -16q0 -28 -75 -86t-171 -58q-85 0 -153 42.5t-122 135.5q-30 53 -30 126z" />
<glyph unicode="&#xab;" d="M99 434l448 410q26 24 44 24t30 -12t12 -31q0 -16 -23 -41l-313 -350l313 -349q23 -25 23 -42q0 -18 -12 -30t-30 -12t-44 23zM568 434l448 410q26 24 44 24t30 -12t12 -31q0 -16 -22 -41l-313 -350l313 -349q22 -25 22 -42q0 -18 -12 -30t-30 -12t-44 23z" />
<glyph unicode="&#xad;" d="M186 519v120h857v-120h-857z" />
<glyph unicode="&#xae;" d="M0 584q0 254 179 433t432 179q254 0 433 -179t179 -433q0 -253 -179 -432t-433 -179q-253 0 -432 179t-179 432zM67 584q0 -225 159.5 -384t384.5 -159q226 0 385 159t159 384q0 226 -159 385t-385 159q-225 0 -384.5 -159t-159.5 -385zM317 277q0 6 4 12.5t9.5 9 t18.5 2.5h64v567h-64q-13 0 -18.5 3t-9.5 9t-4 12q0 7 4 13t9.5 8.5t18.5 2.5h288q89 0 150 -56.5t61 -127.5q0 -51 -38 -96t-126 -75q51 -34 87.5 -78.5t115.5 -181.5h37q13 0 18.5 -3t9.5 -9t4 -12q0 -7 -4 -13t-9.5 -8.5t-18.5 -2.5h-64q-87 157 -135.5 211t-112.5 85 h-151v-248h88q13 0 18.5 -3t9.5 -8.5t4 -12.5t-4 -13t-9.5 -8.5t-18.5 -2.5h-200q-13 0 -18.5 2.5t-9.5 8.5t-4 13zM461 596h129q99 0 154.5 44.5t55.5 94.5q0 48 -47.5 90.5t-116.5 42.5h-175v-272z" />
<glyph unicode="&#xb4;" d="M443 1064q0 10 4.5 18t20.5 23l236 204q23 20 39 20q17 0 29.5 -12.5t12.5 -30.5q0 -10 -4.5 -18.5t-20.5 -22.5l-237 -204q-22 -20 -38 -20q-17 0 -29.5 12.5t-12.5 30.5z" />
<glyph unicode="&#xb8;" d="M442 -258q0 13 8.5 21.5t21.5 8.5q10 0 23 -7q68 -38 125 -38q39 0 61 18.5t22 40.5q0 19 -17 33q-23 18 -59 18h-41v153q0 22 8.5 31t21.5 9q14 0 22 -9.5t8 -30.5v-96q56 -8 87 -38.5t31 -71.5q0 -49 -37.5 -83t-106.5 -34q-47 0 -101 18.5t-67 33.5q-10 11 -10 23z " />
<glyph unicode="&#xbb;" d="M127 43q0 17 22 42l313 349l-313 350q-22 25 -22 42q0 18 12 30t30 12t43 -24l449 -410l-449 -410q-25 -23 -43 -23t-30 12t-12 30zM596 43q0 17 22 42l313 349l-313 350q-22 25 -22 42q0 18 12 30t30 12t44 -24l448 -410l-448 -410q-26 -23 -44 -23t-30 12t-12 30z" />
<glyph unicode="&#x2c6;" d="M316 1062q0 21 28 42l270 206l271 -206q18 -14 23 -22.5t5 -19.5q0 -18 -12.5 -30t-30.5 -12q-13 0 -35 17l-221 169l-220 -169q-22 -17 -36 -17q-17 0 -29.5 12.5t-12.5 29.5z" />
<glyph unicode="&#x2da;" d="M433 1186q0 73 53 125.5t128 52.5t128 -52.5t53 -125.5t-53 -125.5t-128 -52.5t-128 52.5t-53 125.5zM493 1186q0 -48 35.5 -83t85.5 -35t85.5 34.5t35.5 83.5t-35.5 83.5t-85.5 34.5q-51 0 -86 -35t-35 -83z" />
<glyph unicode="&#x2dc;" d="M296 1082q0 26 51 66q78 59 136 59q30 0 61 -12.5t101 -60.5t102 -48q38 0 115 68q16 13 30 13q17 0 29.5 -12t12.5 -27q0 -17 -13 -32q-40 -45 -95 -74q-38 -21 -79 -21q-64 0 -173 79q-58 43 -90 43q-40 0 -101 -56q-27 -25 -46 -25q-18 0 -29.5 12t-11.5 28z" />
<glyph unicode="&#x400;" d="M88 42q0 19 13 30.5t43 11.5h113v1002h-113q-30 0 -43 11.5t-13 30.5t13 30.5t43 11.5h883v-289q0 -30 -11.5 -43t-30.5 -13t-30.5 13t-11.5 43v205h-602v-437h301v95q0 30 12 43t31 13q18 0 30 -13t12 -43v-274q0 -30 -12 -43t-30 -13q-19 0 -31 13t-12 43v95h-301v-481 h646v248q0 30 11.5 43t30.5 13t30.5 -13t11.5 -43v-332h-927q-30 0 -43 12t-13 30zM384 1550q0 18 12.5 30.5t30.5 12.5q15 0 38 -20l236 -204l22 -25q3 -5 3 -16q0 -18 -12.5 -30.5t-30.5 -12.5q-15 0 -38 20l-236 204q-25 22 -25 41z" />
<glyph unicode="&#x401;" d="M88 42q0 19 13 30.5t43 11.5h113v1002h-113q-30 0 -43 11.5t-13 30.5t13 30.5t43 11.5h883v-289q0 -30 -11.5 -43t-30.5 -13t-30.5 13t-11.5 43v205h-602v-437h301v95q0 30 12 43t31 13q18 0 30 -13t12 -43v-274q0 -30 -12 -43t-30 -13q-19 0 -31 13t-12 43v95h-301v-481 h646v248q0 30 11.5 43t30.5 13t30.5 -13t11.5 -43v-332h-927q-30 0 -43 12t-13 30zM319 1414q0 34 24 58t57 24q34 0 58 -24t24 -58t-24 -57.5t-58 -23.5q-33 0 -57 24t-24 57zM748 1414q0 34 23.5 58t57.5 24t58 -24t24 -58t-24 -57.5t-58 -23.5t-57.5 24t-23.5 57z" />
<glyph unicode="&#x402;" d="M17 834q0 6 2 28l17 241q3 46 14 56.5t58 10.5h676q44 0 56.5 -10.5t16.5 -56.5l21 -241q2 -23 2 -31q0 -42 -41 -42q-39 0 -45 67l-19 230h-284v-553q214 158 373 158q143 0 222 -99t79 -253q0 -175 -91.5 -273.5t-202.5 -98.5q-58 0 -58 44q0 40 64 46 q100 9 150.5 89.5t50.5 200.5q0 121 -58.5 189.5t-155.5 68.5q-162 0 -373 -175v-346h97q70 0 70 -42t-70 -42h-289q-71 0 -71 42t71 42h107v1002h-288l-16 -230q-4 -67 -43 -67q-42 0 -42 45z" />
<glyph unicode="&#x403;" d="M127 42q0 42 56 42h200v1002h-200q-56 0 -56 42t56 42h928v-418q0 -56 -42 -56q-43 0 -43 56v334h-558v-1002h200q56 0 56 -42t-56 -42h-485q-56 0 -56 42zM443 1328q0 10 4.5 18t20.5 23l236 204q23 20 39 20q17 0 29.5 -12.5t12.5 -30.5q0 -10 -4.5 -18.5t-20.5 -22.5 l-237 -204q-22 -20 -38 -20q-17 0 -29.5 12.5t-12.5 30.5z" />
<glyph unicode="&#x404;" d="M127 504v171q0 193 137 357.5t362 164.5q208 0 358 -142v59q0 56 42 56t42 -56v-233q0 -57 -42 -57q-39 0 -42 51q-6 96 -116.5 167t-240.5 71q-90 0 -180.5 -42t-163 -162t-72.5 -234v-26h526q57 0 57 -39q0 -45 -57 -45h-526v-49q0 -168 126.5 -316.5t325.5 -148.5 q200 0 359 189q17 21 38 21q40 0 40 -39q0 -49 -133 -152t-304 -103q-220 0 -378 173t-158 364z" />
<glyph unicode="&#x405;" d="M185 56v232q0 31 11.5 44t30.5 13q18 0 29.5 -12t12.5 -39q5 -92 98.5 -167.5t251.5 -75.5t249.5 79t91.5 187q0 66 -35 117.5t-104 81.5q-48 21 -200 47q-209 35 -301 107t-92 205q0 132 105.5 227t278.5 95q176 0 303 -111v28q0 30 11.5 43t30.5 13t30.5 -13t11.5 -43 v-214q0 -30 -11.5 -43t-30.5 -13q-18 0 -29.5 12t-12.5 39q-5 84 -86.5 151t-213.5 67q-139 0 -221 -71.5t-82 -168.5q0 -50 23 -91t61 -66.5t86 -41t150 -32.5q171 -28 236 -57q87 -39 131.5 -108t44.5 -163q0 -144 -115 -245.5t-310 -101.5q-219 0 -350 137v-48 q0 -30 -11.5 -43t-30.5 -13q-18 0 -30 13t-12 43z" />
<glyph unicode="&#x406;" d="M229 42q0 19 13 30.5t43 11.5h288v1002h-288q-30 0 -43 11.5t-13 30.5t13 30.5t43 11.5h660q30 0 43 -11.5t13 -30.5t-13 -30.5t-43 -11.5h-288v-1002h288q30 0 43 -11.5t13 -30.5q0 -18 -13 -30t-43 -12h-660q-30 0 -43 12t-13 30z" />
<glyph unicode="&#x407;" d="M229 42q0 19 13 30.5t43 11.5h288v1002h-288q-30 0 -43 11.5t-13 30.5t13 30.5t43 11.5h660q30 0 43 -11.5t13 -30.5t-13 -30.5t-43 -11.5h-288v-1002h288q30 0 43 -11.5t13 -30.5q0 -18 -13 -30t-43 -12h-660q-30 0 -43 12t-13 30zM319 1414q0 34 24 58t57 24 q34 0 58 -24t24 -58t-24 -57.5t-58 -23.5q-33 0 -57 24t-24 57zM748 1414q0 34 23.5 58t57.5 24t58 -24t24 -58t-24 -57.5t-58 -23.5t-57.5 24t-23.5 57z" />
<glyph unicode="&#x408;" d="M171 153v310q0 30 12 43t30 13q19 0 31 -13t12 -43l-1 -270q77 -71 152.5 -106.5t149.5 -35.5q82 0 155 40q55 30 100.5 101t45.5 152v742h-329q-31 0 -44 11.5t-13 30.5t13 30.5t44 11.5h614q30 0 43 -11.5t13 -30.5t-13 -30.5t-43 -11.5h-200v-742q0 -153 -114 -265 t-272 -112q-95 0 -186.5 43.5t-199.5 142.5z" />
<glyph unicode="&#x409;" d="M35 59v126q0 64 43 64q41 0 41 -58v-124q55 -17 94 -17q80 0 132.5 81.5t52.5 269.5v685h-116q-70 0 -70 42t70 42h620q70 0 70 -42t-70 -42h-116v-434q217 0 309.5 -93t92.5 -234q0 -117 -59 -198t-142.5 -104t-278.5 -23h-106q-70 0 -70 42t70 42h100v1002h-220v-685 q0 -434 -266 -434q-63 0 -113 12.5t-59 25.5t-9 54zM786 84q186 0 247.5 68.5t61.5 171.5q0 123 -73.5 181.5t-235.5 58.5v-480z" />
<glyph unicode="&#x40a;" d="M0 42q0 42 56 42h71v1002h-53q-56 0 -56 42t56 42h202q56 0 56 -42t-56 -42h-65v-436h336v436h-64q-57 0 -57 42t57 42h261q56 0 56 -42t-56 -42h-112v-436h133q220 0 342 -85t122 -240q0 -142 -102 -233.5t-240 -91.5h-404q-57 0 -57 42t57 42h64v481h-336v-481h65 q56 0 56 -42t-56 -42h-220q-56 0 -56 42zM632 84h249q118 0 190.5 71.5t72.5 167.5q0 91 -86 166.5t-299 75.5h-127v-481z" />
<glyph unicode="&#x40b;" d="M17 834q0 6 2 28l17 241q3 45 13.5 56t58.5 11h684q46 0 57.5 -10t14.5 -57l17 -241q2 -21 2 -28q0 -45 -42 -45q-40 0 -44 67l-16 230h-290v-553q161 158 315 158q116 0 194 -85t78 -254v-268h56q70 0 70 -42t-70 -42h-253q-70 0 -70 42t70 42h113v258q0 135 -57 199 t-139 64q-66 0 -133.5 -37.5t-173.5 -139.5v-344h98q70 0 70 -42t-70 -42h-290q-71 0 -71 42t71 42h107v1002h-288l-16 -230q-4 -67 -43 -67q-42 0 -42 45z" />
<glyph unicode="&#x40c;" d="M119 42q0 42 70 42h107v1002h-107q-70 0 -70 42t70 42h301q71 0 71 -42t-71 -42h-109v-415h64q91 0 137.5 40.5t146.5 210.5q93 157 145.5 203t170.5 46q57 0 69 -13t12 -58v-111q0 -69 -42 -69q-43 0 -43 65v104q-71 0 -110.5 -29.5t-126.5 -178.5q-129 -222 -176 -243 q125 -50 231 -260l149 -294h124q70 0 70 -42t-70 -42h-121q-40 0 -50 6t-29 42l-150 294q-77 151 -148.5 197t-188.5 46h-64v-501h109q71 0 71 -42t-71 -42h-301q-70 0 -70 42zM486 1328q0 10 4.5 18t20.5 23l236 204q23 20 39 20q17 0 29.5 -12.5t12.5 -30.5 q0 -10 -4.5 -18.5t-20.5 -22.5l-237 -204q-22 -20 -38 -20q-17 0 -29.5 12.5t-12.5 30.5z" />
<glyph unicode="&#x40d;" d="M40 42q0 42 56 42h113v1002h-113q-56 0 -56 42t56 42h352q57 0 57 -42t-57 -42h-155v-965l620 1049h220q56 0 56 -42t-56 -42h-113v-1002h113q56 0 56 -42t-56 -42h-310q-56 0 -56 42t56 42h113v963l-619 -1047h-221q-56 0 -56 42zM384 1550q0 18 12.5 30.5t30.5 12.5 q15 0 38 -20l236 -204l22 -25q3 -5 3 -16q0 -18 -12.5 -30.5t-30.5 -12.5q-15 0 -38 20l-236 204q-25 22 -25 41z" />
<glyph unicode="&#x40e;" d="M44 1128q0 42 70 42h233q70 0 70 -42t-70 -42h-77l362 -667l362 667h-77q-71 0 -71 42t71 42h224q70 0 70 -42t-70 -42h-50l-501 -918q-51 -95 -110 -148.5t-150 -53.5q-50 0 -97 12t-56 27t-9 55v121q0 69 41 69q43 0 43 -64v-121q51 -14 86 -14q56 0 92.5 33.5 t84.5 122.5l65 120l-412 759h-54q-70 0 -70 42zM350 1517q0 21 12 33.5t30 12.5t29 -10.5t13 -37.5q6 -57 65 -102q58 -45 152 -45q93 0 151.5 45t64.5 102q3 27 12 36q13 12 30 12q18 0 30.5 -12.5t12.5 -33.5q0 -90 -81.5 -162t-219.5 -72t-219.5 72t-81.5 162z" />
<glyph unicode="&#x40f;" d="M100 42q0 42 56 42h95v1002h-95q-56 0 -56 42t56 42h292q56 0 56 -42t-56 -42h-113v-1002h558v1002h-113q-56 0 -56 42t56 42h292q56 0 56 -42t-56 -42h-95v-1002h95q56 0 56 -42t-56 -42h-416v-219q0 -67 -41 -67q-43 0 -43 64v222h-416q-56 0 -56 42z" />
<glyph unicode="&#x410;" d="M17 42q0 19 13 30.5t43 11.5h65l371 1002h-248q-30 0 -43 11.5t-13 30.5t13 30.5t43 11.5h423l410 -1086h65q30 0 43 -11.5t13 -30.5q0 -18 -13 -30t-43 -12h-313q-31 0 -44 12t-13 30q0 19 13 30.5t44 11.5h160l-115 307h-552l-113 -307h161q30 0 43 -11.5t13 -30.5 q0 -18 -13 -30t-43 -12h-314q-30 0 -43 12t-13 30zM371 475h488l-232 611h-31z" />
<glyph unicode="&#x411;" d="M87 42q0 42 56 42h113v1002h-113q-56 0 -56 42t56 42h886v-289q0 -56 -43 -56q-42 0 -42 56v205h-604v-436h309q219 0 341.5 -84.5t122.5 -240.5q0 -142 -102 -233.5t-240 -91.5h-628q-56 0 -56 42zM340 84h425q117 0 190 72t73 167q0 91 -86 166.5t-300 75.5h-302v-481z " />
<glyph unicode="&#x412;" d="M87 42q0 19 13 30.5t43 11.5h113v1002h-113q-30 0 -43 11.5t-13 30.5t13 30.5t43 11.5h528q157 0 255.5 -90.5t98.5 -212.5q0 -154 -165 -249q131 -47 192 -125t61 -172q0 -84 -40 -153.5t-122.5 -118.5t-179.5 -49h-628q-30 0 -43 12t-13 30zM340 84h425q81 0 141 36 t91 89t31 110q0 64 -44.5 124t-123.5 91t-218 31h-302v-481zM340 650h297q95 0 174 35q61 28 95 81t34 108q0 79 -74 145.5t-193 66.5h-333v-436z" />
<glyph unicode="&#x413;" d="M127 42q0 42 56 42h200v1002h-200q-56 0 -56 42t56 42h928v-418q0 -56 -42 -56q-43 0 -43 56v334h-558v-1002h200q56 0 56 -42t-56 -42h-485q-56 0 -56 42z" />
<glyph unicode="&#x414;" d="M74 15q0 42 9.5 55.5t37.5 15.5q68 4 141.5 67t104 153t30.5 268v512h-115q-70 0 -70 42t70 42h801q71 0 71 -42t-71 -42h-87v-1002h87q45 0 58 -9.5t13 -59.5v-233q0 -68 -41 -68q-43 0 -43 65v221h-912v-221q0 -65 -43 -65q-41 0 -41 68v233zM310 84h601v1002h-430 v-512q0 -364 -171 -490z" />
<glyph unicode="&#x415;" d="M88 42q0 19 13 30.5t43 11.5h113v1002h-113q-30 0 -43 11.5t-13 30.5t13 30.5t43 11.5h883v-289q0 -30 -11.5 -43t-30.5 -13t-30.5 13t-11.5 43v205h-602v-437h301v95q0 30 12 43t31 13q18 0 30 -13t12 -43v-274q0 -30 -12 -43t-30 -13q-19 0 -31 13t-12 43v95h-301v-481 h646v248q0 30 11.5 43t30.5 13t30.5 -13t11.5 -43v-332h-927q-30 0 -43 12t-13 30z" />
<glyph unicode="&#x416;" d="M-5 42q0 42 70 42h63l120 294q82 201 185 258q-46 48 -139 246q-66 139 -95.5 173t-70.5 34v-110q0 -58 -44 -58q-41 0 -41 64v115q0 43 11 56.5t45 13.5q102 0 147.5 -44t122.5 -207q78 -165 110.5 -206.5t70.5 -41.5h22v415h-64q-70 0 -70 42t70 42h213q71 0 71 -42 t-71 -42h-65v-415h22q44 0 74.5 38.5t108.5 209.5q76 164 119 207.5t145 43.5q40 0 50.5 -13.5t10.5 -56.5v-115q0 -65 -39 -65q-45 0 -45 59v110q-53 -1 -90 -61.5t-76 -145.5q-92 -201 -140 -246q104 -59 186 -258l120 -294h62q71 0 71 -42t-71 -42h-65q-41 0 -52 7 t-26 45l-118 290q-98 243 -217 243h-30v-501h65q71 0 71 -42t-71 -42h-213q-70 0 -70 42t70 42h64v501h-30q-117 0 -215 -243l-118 -290q-15 -37 -25.5 -44.5t-52.5 -7.5h-66q-70 0 -70 42z" />
<glyph unicode="&#x417;" d="M114 142q0 22 15 35t28 13q15 0 37 -13q127 -73 211 -99.5t221 -26.5q187 0 281 75.5t94 190.5q0 83 -60.5 143.5t-153 78t-265.5 17.5h-58q-71 0 -71 42q0 43 71 43h58q434 0 434 242q0 109 -94 169.5t-235 60.5q-165 0 -258.5 -87t-119.5 -220q-8 -43 -39 -43 q-39 0 -39 39q0 26 9 92q4 39 4 64q0 7 -3 99q-4 87 -4 88q0 39 38 39q33 0 42 -58q10 -61 38 -61q10 0 28 15q141 117 313 117q198 0 305.5 -89t107.5 -222q0 -196 -223 -278q268 -63 268 -293q0 -142 -114 -245t-365 -103q-201 0 -351 66t-150 109z" />
<glyph unicode="&#x418;" d="M40 42q0 42 56 42h113v1002h-113q-56 0 -56 42t56 42h352q57 0 57 -42t-57 -42h-155v-965l620 1049h220q56 0 56 -42t-56 -42h-113v-1002h113q56 0 56 -42t-56 -42h-310q-56 0 -56 42t56 42h113v963l-619 -1047h-221q-56 0 -56 42z" />
<glyph unicode="&#x419;" d="M40 42q0 42 56 42h113v1002h-113q-56 0 -56 42t56 42h352q57 0 57 -42t-57 -42h-155v-965l620 1049h220q56 0 56 -42t-56 -42h-113v-1002h113q56 0 56 -42t-56 -42h-310q-56 0 -56 42t56 42h113v963l-619 -1047h-221q-56 0 -56 42zM350 1517q0 21 12 33.5t30 12.5 t29 -10.5t13 -37.5q6 -57 65 -102q58 -45 152 -45q93 0 151.5 45t64.5 102q3 27 12 36q13 12 30 12q18 0 30.5 -12.5t12.5 -33.5q0 -90 -81.5 -162t-219.5 -72t-219.5 72t-81.5 162z" />
<glyph unicode="&#x41a;" d="M119 42q0 42 70 42h107v1002h-107q-70 0 -70 42t70 42h301q71 0 71 -42t-71 -42h-109v-415h64q91 0 137.5 40.5t146.5 210.5q93 157 145.5 203t170.5 46q57 0 69 -13t12 -58v-111q0 -69 -42 -69q-43 0 -43 65v104q-71 0 -110.5 -29.5t-126.5 -178.5q-129 -222 -176 -243 q125 -50 231 -260l149 -294h124q70 0 70 -42t-70 -42h-121q-40 0 -50 6t-29 42l-150 294q-77 151 -148.5 197t-188.5 46h-64v-501h109q71 0 71 -42t-71 -42h-301q-70 0 -70 42z" />
<glyph unicode="&#x41b;" d="M35 59v125q0 66 43 66q41 0 41 -59v-129q43 -12 77 -12q202 0 202 351v685h-116q-70 0 -70 42t70 42h803q70 0 70 -42t-70 -42h-88v-1002h88q70 0 70 -42t-70 -42h-262q-70 0 -70 42t70 42h89v1002h-430v-685q0 -239 -79.5 -336.5t-193.5 -97.5q-52 0 -103.5 12t-61 25.5 t-9.5 54.5z" />
<glyph unicode="&#x41c;" d="M24 42q0 19 13 30.5t43 11.5h71v1002h-53q-30 0 -43 11.5t-13 30.5t13 30.5t43 11.5h206l318 -724l313 724h206q31 0 44 -11.5t13 -30.5t-13 -30.5t-44 -11.5h-52v-1002h70q31 0 44 -11.5t13 -30.5q0 -18 -13 -30t-44 -12h-309q-30 0 -43.5 12t-13.5 30q0 19 13 30.5 t44 11.5h155v1002h-18l-317 -735h-96l-323 735h-16v-1002h155q30 0 43 -11.5t13 -30.5q0 -18 -13 -30t-43 -12h-310q-30 0 -43 12t-13 30z" />
<glyph unicode="&#x41d;" d="M107 42q0 19 13 30.5t43 11.5h95v1002h-52q-31 0 -44 11.5t-13 30.5t13 30.5t44 11.5h249q30 0 43 -11.5t13 -30.5t-13 -30.5t-43 -11.5h-113v-436h557v436h-112q-30 0 -43 11.5t-13 30.5t12.5 30.5t43.5 11.5h249q31 0 44 -11.5t13 -30.5t-13 -30.5t-44 -11.5h-52v-1002 h95q30 0 43 -11.5t13 -30.5q0 -18 -13 -30t-43 -12h-292q-30 0 -43 12t-13 30q0 19 12.5 30.5t43.5 11.5h112v482h-557v-482h113q30 0 43 -11.5t13 -30.5q0 -18 -13 -30t-43 -12h-292q-30 0 -43 12t-13 30z" />
<glyph unicode="&#x41e;" d="M104 582q0 271 154.5 443t357.5 172q137 0 256 -80t187.5 -223t68.5 -312q0 -168 -68 -311.5t-187.5 -223.5t-256.5 -80q-203 0 -357.5 172.5t-154.5 442.5zM188 582q0 -234 131.5 -382.5t296.5 -148.5q189 0 308 162.5t119 368.5q0 205 -119 368t-308 163 q-177 0 -302.5 -155.5t-125.5 -375.5z" />
<glyph unicode="&#x41f;" d="M100 42q0 42 56 42h95v1002h-95q-56 0 -56 42t56 42h916q56 0 56 -42t-56 -42h-95v-1002h95q56 0 56 -42t-56 -42h-292q-56 0 -56 42t56 42h112v1002h-557v-1002h113q56 0 56 -42t-56 -42h-292q-56 0 -56 42z" />
<glyph unicode="&#x420;" d="M179 42q0 19 13 30.5t43 11.5h113v1002h-113q-30 0 -43 11.5t-13 30.5t13 30.5t43 11.5h488q173 0 282.5 -102t109.5 -239q0 -81 -35.5 -146t-85.5 -102q-75 -56 -155 -82q-58 -19 -144 -19h-263v-396h288q30 0 43 -11.5t13 -30.5q0 -18 -13 -30t-43 -12h-485 q-30 0 -43 12t-13 30zM432 564h268q93 0 174.5 41.5t119 101.5t37.5 122q0 99 -85 178t-215 79h-299v-522z" />
<glyph unicode="&#x421;" d="M127 504v171q0 124 66.5 253.5t182 199t250.5 69.5q208 0 358 -142v59q0 30 11.5 43t30.5 13t30.5 -13t11.5 -43v-233q0 -31 -11.5 -44t-30.5 -13q-17 0 -28.5 12t-13.5 39q-5 84 -91 149q-116 89 -264 89q-97 0 -183 -43q-64 -31 -102 -76q-66 -78 -105 -173 q-28 -70 -28 -158v-147q0 -188 136 -326.5t316 -138.5q108 0 193.5 47t165.5 142q17 21 38 21q18 0 29 -11t11 -28q0 -23 -43 -70q-82 -92 -184.5 -138.5t-207.5 -46.5q-91 0 -185 35q-72 27 -119 63t-115.5 121.5t-93.5 158t-25 159.5z" />
<glyph unicode="&#x422;" d="M143 795v375h941v-375q0 -31 -11.5 -44t-30.5 -13t-30.5 13t-11.5 44v291h-344v-1002h218q30 0 43 -11.5t13 -30.5q0 -18 -13 -30t-43 -12h-521q-30 0 -43 12t-13 30q0 19 13 30.5t43 11.5h218v1002h-344v-291q0 -31 -11.5 -44t-30.5 -13q-18 0 -30 13t-12 44z" />
<glyph unicode="&#x423;" d="M44 1128q0 42 70 42h233q70 0 70 -42t-70 -42h-77l362 -667l362 667h-77q-71 0 -71 42t71 42h224q70 0 70 -42t-70 -42h-50l-501 -918q-51 -95 -110 -148.5t-150 -53.5q-50 0 -97 12t-56 27t-9 55v121q0 69 41 69q43 0 43 -64v-121q51 -14 86 -14q56 0 92.5 33.5 t84.5 122.5l65 120l-412 759h-54q-70 0 -70 42z" />
<glyph unicode="&#x424;" d="M99 585q0 171 118.5 290t354.5 119v92h-75q-85 0 -85 44q0 41 95 40h231q75 0 75 -42q0 -43 -75 -42h-82v-92q236 0 355 -119t119 -290q0 -167 -116 -288t-358 -121v-92h82q74 0 74 -40q0 -44 -74 -44h-247q-79 0 -79 41q0 40 79 43h81v92q-236 0 -354.5 119t-118.5 290z M183 585q0 -127 91 -220.5t298 -103.5v648q-155 -9 -234.5 -57t-117 -118t-37.5 -149zM656 261q208 10 298.5 103.5t90.5 220.5q0 126 -90 219.5t-299 104.5v-648z" />
<glyph unicode="&#x425;" d="M80 42q0 14 8 25t18 14t61 3l394 515l-376 487h-31q-30 0 -43 11.5t-13 30.5t13 30.5t43 11.5h229q31 0 44 -11.5t13 -30.5t-13 -30.5t-44 -11.5h-94l324 -419l322 419h-94q-31 0 -44 11.5t-13 30.5t13 30.5t44 11.5h230q30 0 43 -11.5t13 -30.5t-13 -30.5t-43 -11.5h-32 l-374 -487l399 -515h32q30 0 43 -11.5t13 -30.5q0 -18 -13 -30t-43 -12h-270q-30 0 -43 12t-13 30q0 19 13 30.5t43 11.5h134l-347 446l-343 -446h134q30 0 43 -11.5t13 -30.5q0 -18 -13 -30t-43 -12h-268q-30 0 -43 12t-13 30z" />
<glyph unicode="&#x426;" d="M89 42q0 42 56 42h95v1002h-95q-56 0 -56 42t56 42h292q56 0 56 -42t-56 -42h-113v-1002h558v1002h-113q-56 0 -56 42t56 42h291q57 0 57 -42t-57 -42h-94v-1002h107q45 0 58 -12t13 -58v-233q0 -67 -41 -67q-43 0 -43 64v222h-915q-56 0 -56 42z" />
<glyph unicode="&#x427;" d="M41 1128q0 42 70 42h288q70 0 70 -42t-70 -42h-114v-344q0 -144 44.5 -203.5t159.5 -59.5q175 0 385 178v429h-98q-70 0 -70 42t70 42h275q70 0 70 -42t-70 -42h-92v-1002h92q70 0 70 -42t-70 -42h-417q-70 0 -70 42t70 42h240v467l-74 -54q-140 -103 -315 -103 q-114 0 -199 62t-85 276v354h-90q-70 0 -70 42z" />
<glyph unicode="&#x428;" d="M4 1128q0 42 56 42h242q57 0 57 -42t-57 -42h-63v-1002h334v1002h-63q-56 0 -56 42t56 42h193q56 0 56 -42t-56 -42h-45v-1002h334v1002h-63q-57 0 -57 42t57 42h192q57 0 57 -42t-57 -42h-45v-1002h83q56 0 56 -42t-56 -42h-1087q-56 0 -56 42t56 42h83v1002h-95 q-56 0 -56 42z" />
<glyph unicode="&#x429;" d="M4 1128q0 42 56 42h242q57 0 57 -42t-57 -42h-63v-1002h334v1002h-63q-56 0 -56 42t56 42h193q56 0 56 -42t-56 -42h-45v-1002h334v1002h-63q-57 0 -57 42t57 42h192q57 0 57 -42t-57 -42h-45v-1002h94q46 0 58 -11t12 -59v-233q0 -67 -41 -67q-43 0 -43 64v222h-1084 q-56 0 -56 42t56 42h83v1002h-95q-56 0 -56 42z" />
<glyph unicode="&#x42a;" d="M2 752v418h600q56 0 56 -42t-56 -42h-113v-436h245q238 0 350.5 -92t112.5 -233q0 -139 -98 -232t-243 -93h-500q-56 0 -56 42t56 42h49v1002h-319v-334q0 -56 -42 -56t-42 56zM489 84h361q117 0 190 72t73 167q0 91 -86.5 166.5t-299.5 75.5h-238v-481z" />
<glyph unicode="&#x42b;" d="M2 42q0 42 56 42h113v1002h-113q-56 0 -56 42t56 42h310q56 0 56 -42t-56 -42h-113v-436h134q219 0 341.5 -84.5t122.5 -240.5q0 -142 -102 -233.5t-240 -91.5h-453q-56 0 -56 42zM255 84h250q117 0 190 71.5t73 167.5q0 108 -98.5 175t-287.5 67h-127v-481zM800 42 q0 42 57 42h112v1002h-112q-57 0 -57 42t57 42h309q57 0 57 -42t-57 -42h-112v-1002h112q57 0 57 -42t-57 -42h-309q-57 0 -57 42z" />
<glyph unicode="&#x42c;" d="M87 42q0 42 56 42h113v1002h-113q-56 0 -56 42t56 42h310q56 0 56 -42t-56 -42h-113v-436h309q219 0 341.5 -84.5t122.5 -240.5q0 -142 -102 -233.5t-240 -91.5h-628q-56 0 -56 42zM340 84h425q117 0 190 72t73 167q0 91 -86 166.5t-300 75.5h-302v-481z" />
<glyph unicode="&#x42d;" d="M129 222q0 -49 133 -152t304 -103q220 0 378 173t158 364v171q0 193 -137 357.5t-362 164.5q-208 0 -358 -142v59q0 56 -42 56t-42 -56v-233q0 -57 42 -57q39 0 42 51q6 96 116.5 167t240.5 71q90 0 180.5 -42t163 -162t72.5 -234v-26h-526q-57 0 -57 -39q0 -45 57 -45 h526v-49q0 -168 -126.5 -316.5t-325.5 -148.5q-200 0 -359 189q-17 21 -38 21q-40 0 -40 -39z" />
<glyph unicode="&#x42e;" d="M22 42q0 42 56 42h53v1002h-53q-56 0 -56 42t56 42h226q56 0 56 -42t-56 -42h-89v-436h220v29q0 277 119 397.5t276 120.5q175 0 281 -125.5t106 -392.5v-193q0 -269 -107 -394t-279 -125q-177 0 -286.5 128.5t-109.5 390.5v80h-220v-482h89q56 0 56 -42t-56 -42h-226 q-56 0 -56 42zM519 486q0 -210 83 -322.5t227 -112.5q303 0 303 435v193q0 434 -302 434q-139 0 -225 -109t-86 -325v-193z" />
<glyph unicode="&#x42f;" d="M15 42q0 -18 13 -30t43 -12h112q156 279 241.5 374t196.5 148h267v-438h-155q-31 0 -44 -11.5t-13 -30.5q0 -18 13 -30t44 -12h352q30 0 43 12t13 30q0 19 -13 30.5t-43 11.5h-113v1002h113q30 0 43 11.5t13 30.5t-13 30.5t-43 11.5h-508q-157 0 -264.5 -99.5 t-107.5 -224.5q0 -90 66.5 -169.5t222.5 -132.5q-90 -62 -154 -140t-205 -320h-64q-30 0 -43 -11.5t-13 -30.5zM289 850q0 84 84.5 160t205.5 76h309v-480h-229q-110 0 -199.5 40t-130 94t-40.5 110z" />
<glyph unicode="&#x430;" d="M144 231q0 122 112 213t327 91q58 0 126 -7.5t147 -23.5v136q0 69 -64 120t-192 51q-98 0 -275 -57q-32 -10 -41 -10q-16 0 -27.5 12t-11.5 30q0 17 10 27q14 15 113 41q156 42 236 42q159 0 248 -78.5t89 -177.5v-556h112q31 0 44 -11.5t13 -30.5q0 -18 -13 -30t-44 -12 h-197v121q-183 -154 -391 -154q-151 0 -236 76.5t-85 187.5zM228 231q0 -76 59.5 -128t173.5 -52q109 0 202.5 43.5t192.5 138.5v185q-59 17 -125 25t-139 8q-183 0 -286 -79q-78 -59 -78 -141z" />
<glyph unicode="&#x431;" d="M128 511q0 275 35 380.5t118 166.5t238 61h191q149 0 169 61q12 34 20 42t28 8q47 0 47 -49q0 -56 -56 -101t-198 -45h-201q-100 0 -164.5 -34.5t-93 -96.5t-42.5 -203q150 195 404 195q226 0 357.5 -134.5t131.5 -330.5t-133.5 -330t-357.5 -134q-160 0 -273.5 68.5 t-166.5 174t-53 301.5zM220 433q0 -145 102 -262t299 -117q181 0 290.5 110.5t109.5 268.5t-109.5 268t-290.5 110q-182 0 -291.5 -110t-109.5 -268z" />
<glyph unicode="&#x432;" d="M123 42q0 42 56 42h113v697h-113q-56 0 -56 42q0 43 56 43h456q341 0 341 -216q0 -135 -176 -173q265 -35 265 -230q0 -247 -330 -247h-556q-56 0 -56 42zM376 84h352q252 0 252 162q0 79 -64 132t-310 53h-230v-347zM376 515h225q291 0 291 140q0 59 -49 92.5t-207 33.5 h-260v-266z" />
<glyph unicode="&#x433;" d="M152 42q0 42 56 42h200v697h-200q-56 0 -56 42q0 43 56 43h880v-419q0 -56 -43 -56q-42 0 -42 56v334h-510v-697h200q56 0 56 -42t-56 -42h-485q-56 0 -56 42z" />
<glyph unicode="&#x434;" d="M90 15q0 52 12.5 60.5t39.5 10.5q72 5 167 70.5t95 267.5v357h-110q-71 0 -71 42q0 43 71 43h775q70 0 70 -43q0 -42 -70 -42h-83v-697h83q45 0 57.5 -11.5t12.5 -57.5v-159q0 -67 -41 -67q-43 0 -43 63v148h-881v-148q0 -63 -43 -63q-41 0 -41 67v159zM346 84h555v697 h-413v-357q0 -247 -142 -340z" />
<glyph unicode="&#x435;" d="M128 451q0 183 135.5 314t335.5 131q206 0 339 -134.5t131 -348.5h-856q22 -163 136.5 -262.5t283.5 -99.5q94 0 197 31t168 82q19 15 33 15q16 0 28 -12.5t12 -29.5t-16 -33q-48 -50 -170.5 -93.5t-251.5 -43.5q-216 0 -360.5 141.5t-144.5 342.5zM214 498h770 q-25 139 -131.5 226t-253.5 87t-253 -86t-132 -227z" />
<glyph unicode="&#x436;" d="M20 42q0 42 70 42h57l111 198q75 134 173 197q-42 34 -122 161q-61 95 -90.5 118t-74.5 23v-63q0 -57 -42 -57q-43 0 -43 64v70q0 43 11 57t46 14q88 0 138.5 -32.5t121.5 -149.5q74 -123 109.5 -150t65.5 -27h21v274h-59q-71 0 -71 42q0 43 71 43h202q71 0 71 -43 q0 -42 -71 -42h-58v-274h20q40 0 71 31t105 146q75 117 118.5 149.5t127.5 32.5q46 0 58 -14t12 -57v-70q0 -64 -41 -64q-44 0 -44 57v63q-44 0 -74.5 -22.5t-90.5 -118.5q-80 -131 -122 -161q92 -51 174 -197l110 -198h57q70 0 70 -42t-70 -42h-54q-41 0 -51 5.5t-29 40.5 l-110 198q-99 179 -209 179h-28v-339h58q71 0 71 -42t-71 -42h-202q-71 0 -71 42t71 42h59v339h-29q-110 0 -209 -179l-110 -198q-19 -34 -28.5 -40t-48.5 -6h-57q-70 0 -70 42z" />
<glyph unicode="&#x437;" d="M144 112q0 19 14 32.5t28 13.5q13 0 35 -11q195 -96 421 -96q180 0 270.5 52.5t90.5 133.5q0 92 -104.5 130.5t-360.5 38.5h-55q-70 0 -70 39q0 46 70 46h55q422 0 422 167q0 70 -83.5 111.5t-240.5 41.5q-307 0 -355 -198q-13 -54 -44 -54q-37 0 -37 44v221q0 72 41 72 q43 0 43 -72v-63q129 135 372 135q174 0 284 -62.5t110 -174.5q0 -142 -186 -201l61 -14q67 -15 118 -72.5t51 -134.5q0 -119 -108.5 -194.5t-351.5 -75.5q-160 0 -325 46.5t-165 98.5z" />
<glyph unicode="&#x438;" d="M58 42q0 42 56 42h101v697h-101q-56 0 -56 42q0 43 56 43h298q56 0 56 -43q0 -42 -56 -42h-113v-660l605 745h211q56 0 56 -43q0 -42 -56 -42h-113v-697h113q56 0 56 -42t-56 -42h-310q-56 0 -56 42t56 42h113v659l-604 -743h-200q-56 0 -56 42z" />
<glyph unicode="&#x439;" d="M58 42q0 42 56 42h101v697h-101q-56 0 -56 42q0 43 56 43h298q56 0 56 -43q0 -42 -56 -42h-113v-660l605 745h211q56 0 56 -43q0 -42 -56 -42h-113v-697h113q56 0 56 -42t-56 -42h-310q-56 0 -56 42t56 42h113v659l-604 -743h-200q-56 0 -56 42zM330 1212q0 21 12 33.5 t30 12.5t29 -10.5t13 -37.5q6 -57 65 -102q58 -45 152 -45q93 0 151.5 45t64.5 102q3 27 12 36q13 12 30 12q18 0 30.5 -12.5t12.5 -33.5q0 -90 -81.5 -162t-219.5 -72t-219.5 72t-81.5 162z" />
<glyph unicode="&#x43a;" d="M120 42q0 42 70 42h102v697h-102q-70 0 -70 42q0 43 70 43h289q70 0 70 -43q0 -42 -70 -42h-102v-274h62q81 0 124 24t114 111q123 150 177 187t162 37q51 0 66.5 -12t15.5 -59v-115q0 -60 -43 -60q-41 0 -41 53v108q-75 0 -110 -21.5t-119 -124.5q-106 -130 -160 -163 q48 -12 89.5 -38t129.5 -151l140 -199h118q70 0 70 -42t-70 -42h-118q-51 0 -68 26q-3 6 -10 16l-142 210q-72 107 -144 139t-181 32h-62v-339h102q70 0 70 -42t-70 -42h-289q-70 0 -70 42z" />
<glyph unicode="&#x43b;" d="M51 59v83q0 63 45 63q39 0 39 -58v-82q46 -11 82 -11q186 0 186 244v483h-110q-70 0 -70 42q0 43 70 43h776q70 0 70 -43q0 -42 -70 -42h-84v-697h84q70 0 70 -42t-70 -42h-251q-70 0 -70 42t70 42h83v697h-413v-483q0 -175 -76 -253t-197 -78q-50 0 -98 12t-57 25.5 t-9 54.5z" />
<glyph unicode="&#x43c;" d="M31 42q0 42 56 42h71v697h-53q-56 0 -56 42q0 43 56 43h194l318 -687l313 687h194q57 0 57 -43q0 -42 -57 -42h-52v-697h70q57 0 57 -42t-57 -42h-309q-57 0 -57 42t57 42h154v697h-5l-317 -697h-96l-323 697h-4v-697h155q56 0 56 -42t-56 -42h-310q-56 0 -56 42z" />
<glyph unicode="&#x43d;" d="M107 42q0 42 56 42h95v697h-65q-56 0 -56 42q0 43 56 43h214q56 0 56 -43q0 -42 -56 -42h-65v-283h545v283h-64q-57 0 -57 42q0 43 57 43h213q56 0 56 -43q0 -42 -56 -42h-65v-697h95q56 0 56 -42t-56 -42h-274q-56 0 -56 42t56 42h95v329h-545v-329h95q56 0 56 -42 t-56 -42h-274q-56 0 -56 42z" />
<glyph unicode="&#x43e;" d="M145 431q0 192 137 328.5t333 136.5q194 0 331.5 -136t137.5 -329q0 -192 -137.5 -328t-331.5 -136q-196 0 -333 136.5t-137 327.5zM229 431q0 -156 112.5 -268t272.5 -112t272.5 111.5t112.5 268.5q0 158 -112.5 269t-272.5 111t-272.5 -111.5t-112.5 -268.5z" />
<glyph unicode="&#x43f;" d="M107 42q0 42 56 42h95v697h-65q-56 0 -56 42q0 43 56 43h843q56 0 56 -43q0 -42 -56 -42h-65v-697h95q56 0 56 -42t-56 -42h-274q-56 0 -56 42t56 42h95v697h-545v-697h95q56 0 56 -42t-56 -42h-274q-56 0 -56 42z" />
<glyph unicode="&#x440;" d="M45 -344q0 19 13 30.5t43 11.5h113v1083h-113q-30 0 -43 12t-13 31q0 18 13 30t43 12h197v-153q75 91 161 137t203 46q124 0 229 -58t162.5 -161.5t57.5 -217.5q0 -181 -129.5 -309.5t-318.5 -128.5q-225 0 -365 183v-506h204q30 0 43 -11.5t13 -30.5q0 -18 -13 -30 t-43 -12h-401q-30 0 -43 11.5t-13 30.5zM298 459q0 -145 106 -249t259 -104q151 0 257 103.5t106 249.5q0 145 -105.5 248.5t-257.5 103.5q-153 0 -259 -104t-106 -248z" />
<glyph unicode="&#x441;" d="M171 425q0 203 133.5 337t336.5 134q193 0 324 -115v28q0 31 12 44t30 13q19 0 31 -13t12 -44v-190q-1 -31 -12.5 -44t-30.5 -13q-17 0 -28.5 11.5t-13.5 38.5q-6 71 -93.5 135t-235.5 64q-187 0 -284 -117t-97 -268q0 -163 107 -269t277 -106q98 0 199.5 36t183.5 116 q21 20 37 20q17 0 28.5 -11.5t11.5 -28.5q0 -43 -101 -109q-163 -107 -363 -107q-203 0 -333.5 129.5t-130.5 328.5z" />
<glyph unicode="&#x442;" d="M166 490v376h897v-376q0 -56 -42 -56q-43 0 -43 56v291h-322v-697h218q57 0 57 -42t-57 -42h-520q-57 0 -57 42t57 42h218v697h-322v-291q0 -56 -42 -56t-42 56z" />
<glyph unicode="&#x443;" d="M60 823q0 43 70 43h223q70 0 70 -43q0 -42 -70 -42h-77l355 -644l352 644h-74q-70 0 -70 42q0 43 70 43h215q70 0 70 -43q0 -42 -70 -42h-47l-486 -889q-61 -111 -117 -154.5t-127 -43.5q-54 0 -96.5 10.5t-56.5 25.5t-14 59v116q0 68 42 68t42 -63v-123q37 -9 69 -9 q60 0 96.5 29t87.5 123l64 117l-401 734h-50q-70 0 -70 42z" />
<glyph unicode="&#x444;" d="M119 429q0 199 88.5 333t227.5 134q69 0 138 -40v286l-121 -9q-22 -1 -29 -1q-47 0 -47 43q0 41 70 45l137 10q21 1 29 1q45 0 45 -70v-305q72 40 139 40q136 0 225 -135t89 -332q0 -181 -83 -318.5t-240 -137.5q-72 0 -130 27v-237h180q69 0 69 -42q0 -41 -69 -41h-444 q-70 0 -70 41q0 42 70 42h180v237q-56 -27 -129 -27q-143 0 -234 125.5t-91 330.5zM210 430q0 -148 62.5 -260.5t174.5 -112.5q76 0 126 55v646q-46 53 -123 53q-115 0 -177.5 -117t-62.5 -264zM657 113q59 -56 124 -56q113 0 175.5 113t62.5 259q0 150 -62.5 266 t-173.5 116q-73 0 -126 -53v-645z" />
<glyph unicode="&#x445;" d="M101 42q0 13 7.5 24t17 14.5t47.5 3.5l385 369l-342 328q-36 0 -45.5 4t-17 15t-7.5 24q0 18 13 30t44 12h229q31 0 43.5 -12t12.5 -31q0 -18 -12.5 -30t-43.5 -12h-100l283 -273l285 273h-100q-30 0 -43.5 12t-13.5 31q0 18 13 30t44 12h229q30 0 43 -12t13 -31 q0 -12 -7.5 -23t-17 -15t-45.5 -4l-343 -328l385 -369q38 0 48 -3.5t17.5 -14.5t7.5 -24q0 -18 -13 -30t-44 -12h-270q-31 0 -44 12t-13 30q0 19 13 30.5t44 11.5h139l-327 313l-325 -313h140q30 0 43 -11.5t13 -30.5q0 -18 -13 -30t-43 -12h-273q-30 0 -43 12t-13 30z" />
<glyph unicode="&#x446;" d="M77 42q0 42 56 42h95v697h-65q-56 0 -56 42q0 43 56 43h214q56 0 56 -43q0 -42 -56 -42h-65v-697h545v697h-64q-57 0 -57 42q0 43 57 43h213q56 0 56 -43q0 -42 -56 -42h-65v-697h127q45 0 58 -12t13 -58v-157q0 -68 -42 -68q-43 0 -43 65v146h-921q-56 0 -56 42z" />
<glyph unicode="&#x447;" d="M70 823q0 43 70 43h276q71 0 71 -43q0 -42 -71 -42h-107v-236q0 -95 41 -137.5t154 -42.5q173 0 373 129v287h-89q-71 0 -71 42q0 43 71 43h261q70 0 70 -43q0 -42 -70 -42h-87v-697h87q70 0 70 -42t-70 -42h-399q-71 0 -71 42t71 42h227v314q-166 -116 -373 -116 q-112 0 -195.5 49t-83.5 214v236h-85q-70 0 -70 42z" />
<glyph unicode="&#x448;" d="M33 42q0 42 56 42h65v697h-47q-56 0 -56 42q0 43 56 43h177q57 0 57 -43q0 -42 -57 -42h-46v-697h334v697h-46q-56 0 -56 42q0 43 56 43h177q56 0 56 -43q0 -42 -56 -42h-46v-697h334v697h-47q-56 0 -56 42q0 43 56 43h177q57 0 57 -43q0 -42 -57 -42h-46v-697h64 q57 0 57 -42t-57 -42h-1050q-56 0 -56 42z" />
<glyph unicode="&#x449;" d="M33 42q0 42 56 42h65v697h-47q-56 0 -56 42q0 43 56 43h177q57 0 57 -43q0 -42 -57 -42h-46v-697h334v697h-46q-56 0 -56 42q0 43 56 43h177q56 0 56 -43q0 -42 -56 -42h-46v-697h334v697h-47q-56 0 -56 42q0 43 56 43h177q57 0 57 -43q0 -42 -57 -42h-46v-697h83 q47 0 59 -11t12 -59v-157q0 -68 -42 -68q-43 0 -43 65v146h-1055q-56 0 -56 42z" />
<glyph unicode="&#x44a;" d="M75 576v290h585q56 0 56 -43q0 -42 -56 -42h-113v-283h229q388 0 388 -238q0 -103 -65 -181.5t-323 -78.5h-362q-56 0 -56 42t56 42h49v697h-304v-205q0 -56 -42 -56t-42 56zM547 84h225q190 0 248 45t58 127q0 90 -69.5 123.5t-239.5 33.5h-222v-329z" />
<glyph unicode="&#x44b;" d="M24 42q0 42 56 42h49v697h-45q-57 0 -57 42q0 43 57 43h242q56 0 56 -43q0 -42 -56 -42h-113v-283h197q388 0 388 -238q0 -103 -65 -181.5t-323 -78.5h-330q-56 0 -56 42zM213 84h193q174 0 240 39t66 133q0 90 -69.5 123.5t-239.5 33.5h-190v-329zM801 42q0 42 56 42 h112v697h-112q-56 0 -56 42q0 43 56 43h309q57 0 57 -43q0 -42 -57 -42h-112v-697h112q57 0 57 -42t-57 -42h-309q-56 0 -56 42z" />
<glyph unicode="&#x44c;" d="M166 42q0 42 56 42h49v697h-45q-57 0 -57 42q0 43 57 43h242q56 0 56 -43q0 -42 -56 -42h-113v-283h251q388 0 388 -238q0 -103 -65.5 -181.5t-322.5 -78.5h-384q-56 0 -56 42zM355 84h247q189 0 247 45t58 127q0 95 -76 126t-233 31h-243v-329z" />
<glyph unicode="&#x44d;" d="M130 183q0 -53 144 -134.5t320 -81.5q206 0 335 131t129 327q0 200 -132.5 335.5t-337.5 135.5q-193 0 -324 -115v28q0 57 -42 57q-43 0 -43 -57v-190q0 -57 43 -57q38 0 42 50q7 81 102.5 140t226.5 59q154 0 256.5 -90t122.5 -253h-443q-57 0 -57 -42t57 -42h443 q-19 -157 -125.5 -245t-256.5 -88q-227 0 -383 152q-21 20 -37 20q-40 0 -40 -40z" />
<glyph unicode="&#x44e;" d="M36 42q0 42 56 42h95v697h-52q-57 0 -57 42q0 43 57 43h249q56 0 56 -43q0 -42 -56 -42h-113v-283h174q20 170 121 284t256 114q171 0 270.5 -131.5t99.5 -326.5q0 -207 -106 -339t-271 -132q-149 0 -254 116.5t-119 329.5h-171v-329h113q56 0 56 -42t-56 -42h-292 q-56 0 -56 42zM526 424q0 -160 79.5 -266.5t211.5 -106.5q130 0 210.5 105.5t80.5 276.5q0 170 -80.5 274t-209.5 104q-139 0 -215.5 -110t-76.5 -277z" />
<glyph unicode="&#x44f;" d="M131 42q0 42 47 42h51q65 186 281 281q-232 49 -232 256q0 108 72.5 176.5t225.5 68.5h464q47 0 47 -43q0 -42 -47 -42h-90v-697h90q47 0 47 -42t-47 -42h-298q-47 0 -47 42t47 42h123v263h-242q-289 -118 -329 -347h-116q-47 0 -47 42zM363 618q0 -94 62 -140.5 t234 -46.5h206v350h-271q-231 0 -231 -163z" />
<glyph unicode="&#x450;" d="M128 451q0 183 135.5 314t335.5 131q206 0 339 -134.5t131 -348.5h-856q22 -163 136.5 -262.5t283.5 -99.5q94 0 197 31t168 82q19 15 33 15q16 0 28 -12.5t12 -29.5t-16 -33q-48 -50 -170.5 -93.5t-251.5 -43.5q-216 0 -360.5 141.5t-144.5 342.5zM214 498h770 q-25 139 -131.5 226t-253.5 87t-253 -86t-132 -227zM384 1286q0 18 12.5 30.5t30.5 12.5q15 0 38 -20l236 -204l22 -25q3 -5 3 -16q0 -18 -12.5 -30.5t-30.5 -12.5q-15 0 -38 20l-236 204q-25 22 -25 41z" />
<glyph unicode="&#x451;" d="M128 451q0 183 135.5 314t335.5 131q206 0 339 -134.5t131 -348.5h-856q22 -163 136.5 -262.5t283.5 -99.5q94 0 197 31t168 82q19 15 33 15q16 0 28 -12.5t12 -29.5t-16 -33q-48 -50 -170.5 -93.5t-251.5 -43.5q-216 0 -360.5 141.5t-144.5 342.5zM214 498h770 q-25 139 -131.5 226t-253.5 87t-253 -86t-132 -227zM323 1146q0 34 24 58t57 24q34 0 58 -24t24 -58t-24 -57.5t-58 -23.5q-33 0 -57 24t-24 57zM752 1146q0 34 23.5 58t57.5 24t58 -24t24 -58t-24 -57.5t-58 -23.5t-57.5 24t-23.5 57z" />
<glyph unicode="&#x452;" d="M142 1030q0 41 57 41h135v99h-112q-57 0 -57 42q0 43 57 43h197v-184h317q57 0 57 -42t-57 -42h-317v-249q141 158 319 158q154 0 239.5 -88.5t85.5 -202.5v-664q0 -150 -94 -238.5t-228 -88.5h-266q-56 0 -56 42t56 42h266q56 0 109 23.5t91 85.5t38 134v658 q0 86 -63 149.5t-185 63.5q-76 0 -135.5 -30.5t-176.5 -165.5v-532h94q57 0 57 -42t-57 -42h-273q-56 0 -56 42t56 42h94v903h-135q-57 0 -57 43z" />
<glyph unicode="&#x453;" d="M152 42q0 42 56 42h200v697h-200q-56 0 -56 42q0 43 56 43h880v-419q0 -56 -43 -56q-42 0 -42 56v334h-510v-697h200q56 0 56 -42t-56 -42h-485q-56 0 -56 42zM486 1064q0 10 4.5 18t20.5 23l236 204q23 20 39 20q17 0 29.5 -12.5t12.5 -30.5q0 -10 -4.5 -18.5 t-20.5 -22.5l-237 -204q-22 -20 -38 -20q-17 0 -29.5 12.5t-12.5 30.5z" />
<glyph unicode="&#x454;" d="M171 425q0 200 132.5 335.5t337.5 135.5q193 0 324 -115v28q0 57 42 57q43 0 43 -57v-190q0 -57 -43 -57q-38 0 -42 50q-7 81 -102.5 140t-226.5 59q-154 0 -256.5 -90t-122.5 -253h443q57 0 57 -42t-57 -42h-443q19 -157 125.5 -245t256.5 -88q227 0 383 152 q21 20 37 20q40 0 40 -40q0 -53 -144 -134.5t-320 -81.5q-206 0 -335 131t-129 327z" />
<glyph unicode="&#x455;" d="M207 56v173q0 30 11.5 43t30.5 13q18 0 30.5 -12.5t12.5 -33.5q0 -46 23 -77q35 -48 111.5 -79.5t187.5 -31.5q164 0 244 61t80 129q0 78 -81 125q-82 47 -238.5 63t-224.5 42t-106 78t-38 112q0 108 106 171.5t253 63.5q174 0 283 -85q0 29 12 42t30 13q19 0 31 -13 t12 -44v-144q0 -30 -12 -43t-31 -13q-17 0 -28.5 11t-13.5 36q-6 60 -62 99q-82 56 -217 56q-141 0 -219 -57q-59 -43 -59 -96q0 -60 70 -100q48 -28 182 -43q175 -19 243 -43q97 -35 144.5 -97t47.5 -134q0 -107 -103 -190.5t-302 -83.5t-326 101q0 -34 -4 -44t-14.5 -17 t-23.5 -7q-18 0 -30 13t-12 43z" />
<glyph unicode="&#x456;" d="M189 42q0 19 13 30.5t43 11.5h330v697h-245q-30 0 -43.5 12t-13.5 30q0 19 13 31t44 12h329v-782h330q31 0 44 -11.5t13 -30.5q0 -18 -13 -30t-44 -12h-744q-30 0 -43 12t-13 30zM532 1080v217h124v-217h-124z" />
<glyph unicode="&#x457;" d="M186 44q4 17 17 28.5t43 11.5h330v697h-245q-30 0 -43.5 12t-13.5 30q0 19 13 31t44 12h329v-782h330q31 0 44 -11.5t13 -30.5q0 -18 -13 -30t-44 -12h-744q-30 0 -43 12t-17 32zM235 1146q0 34 24 58t57 24q34 0 58 -24t24 -58t-24 -57.5t-58 -23.5q-33 0 -57 24t-24 57 zM664 1146q0 34 23.5 58t57.5 24t58 -24t24 -58t-24 -57.5t-58 -23.5t-57.5 24t-23.5 57z" />
<glyph unicode="&#x458;" d="M180 -344q0 19 13 31t43 12l265 -1q107 0 173 70t66 173v840h-499q-30 0 -43 12t-13 31q0 18 12.5 30t43.5 12h583v-925q0 -107 -44 -179t-132 -117q-61 -31 -145 -31h-267q-30 0 -43 11.5t-13 30.5zM611 1080v217h124v-217h-124z" />
<glyph unicode="&#x459;" d="M51 59v83q0 63 42 63t42 -58v-82q55 -11 89 -11q63 0 121 50.5t58 193.5v483h-110q-70 0 -70 42q0 43 70 43h571q71 0 71 -43q0 -42 -71 -42h-83v-290h67q324 0 324 -244q0 -94 -67 -170.5t-279 -76.5h-189q-70 0 -70 42t70 42h60v697h-209v-483q0 -177 -77.5 -254 t-189.5 -77q-56 0 -103 11.5t-57 25t-10 55.5zM781 84h73q227 0 227 164q0 74 -46 116.5t-188 42.5h-66v-323z" />
<glyph unicode="&#x45a;" d="M-18 42q0 42 56 42h95v697h-65q-56 0 -56 42q0 43 56 43h214q56 0 56 -43q0 -42 -56 -42h-65v-283h361v283h-45q-56 0 -56 42q0 43 56 43h242q57 0 57 -43q0 -42 -57 -42h-112v-283h197q388 0 388 -238q0 -103 -65.5 -181.5t-322.5 -78.5h-330q-57 0 -57 42t57 42h48v329 h-361v-329h65q56 0 56 -42t-56 -42h-244q-56 0 -56 42zM663 84h192q188 0 247 44.5t59 127.5q0 95 -75.5 126t-233.5 31h-189v-329z" />
<glyph unicode="&#x45b;" d="M62 1029q0 42 57 42h135v99h-112q-57 0 -57 42q0 43 57 43h197v-184h317q57 0 57 -42t-57 -42h-317v-249q141 158 319 158q154 0 239.5 -88.5t85.5 -202.5v-521h95q56 0 56 -42t-56 -42h-274q-56 0 -56 42t56 42h95v515q0 86 -63 149.5t-185 63.5q-76 0 -135.5 -30.5 t-176.5 -165.5v-532h94q57 0 57 -42t-57 -42h-273q-56 0 -56 42t56 42h94v903h-135q-57 0 -57 42z" />
<glyph unicode="&#x45c;" d="M120 42q0 42 70 42h102v697h-102q-70 0 -70 42q0 43 70 43h289q70 0 70 -43q0 -42 -70 -42h-102v-274h62q81 0 124 24t114 111q123 150 177 187t162 37q51 0 66.5 -12t15.5 -59v-115q0 -60 -43 -60q-41 0 -41 53v108q-75 0 -110 -21.5t-119 -124.5q-106 -130 -160 -163 q48 -12 89.5 -38t129.5 -151l140 -199h118q70 0 70 -42t-70 -42h-118q-51 0 -68 26q-3 6 -10 16l-142 210q-72 107 -144 139t-181 32h-62v-339h102q70 0 70 -42t-70 -42h-289q-70 0 -70 42zM486 1064q0 10 4.5 18t20.5 23l236 204q23 20 39 20q17 0 29.5 -12.5t12.5 -30.5 q0 -10 -4.5 -18.5t-20.5 -22.5l-237 -204q-22 -20 -38 -20q-17 0 -29.5 12.5t-12.5 30.5z" />
<glyph unicode="&#x45d;" d="M58 42q0 42 56 42h101v697h-101q-56 0 -56 42q0 43 56 43h298q56 0 56 -43q0 -42 -56 -42h-113v-660l605 745h211q56 0 56 -43q0 -42 -56 -42h-113v-697h113q56 0 56 -42t-56 -42h-310q-56 0 -56 42t56 42h113v659l-604 -743h-200q-56 0 -56 42zM384 1286q0 18 12.5 30.5 t30.5 12.5q15 0 38 -20l236 -204l22 -25q3 -5 3 -16q0 -18 -12.5 -30.5t-30.5 -12.5q-15 0 -38 20l-236 204q-25 22 -25 41z" />
<glyph unicode="&#x45e;" d="M60 823q0 43 70 43h223q70 0 70 -43q0 -42 -70 -42h-77l355 -644l352 644h-74q-70 0 -70 42q0 43 70 43h215q70 0 70 -43q0 -42 -70 -42h-47l-486 -889q-61 -111 -117 -154.5t-127 -43.5q-54 0 -96.5 10.5t-56.5 25.5t-14 59v116q0 68 42 68t42 -63v-123q37 -9 69 -9 q60 0 96.5 29t87.5 123l64 117l-401 734h-50q-70 0 -70 42zM330 1212q0 21 12 33.5t30 12.5t29 -10.5t13 -37.5q6 -57 65 -102q58 -45 152 -45q93 0 151.5 45t64.5 102q3 27 12 36q13 12 30 12q18 0 30.5 -12.5t12.5 -33.5q0 -90 -81.5 -162t-219.5 -72t-219.5 72t-81.5 162 z" />
<glyph unicode="&#x45f;" d="M107 42q0 42 56 42h95v697h-65q-56 0 -56 42q0 43 56 43h214q56 0 56 -43q0 -42 -56 -42h-65v-697h545v697h-64q-57 0 -57 42q0 43 57 43h213q56 0 56 -43q0 -42 -56 -42h-65v-697h95q56 0 56 -42t-56 -42h-409v-219q0 -67 -41 -67q-44 0 -44 64v222h-409q-56 0 -56 42z " />
<glyph unicode="&#x460;" d="M20 486v193q0 240 50 355q70 163 256 163q98 0 161 -69q0 33 4 44q9 25 39 25q42 0 42 -56v-110q0 -56 -42 -56q-16 0 -26 13q-12 20 -21 39q-41 86 -159 86q-126 0 -177 -116q-42 -98 -42 -318v-193q0 -435 261 -435q75 0 126 20q11 4 80 42v321h-179q-56 0 -56 42 t56 42h443q56 0 56 -42t-56 -42h-179v-321q69 -38 80 -42q51 -20 126 -20q261 0 261 435v193q0 220 -42 318q-51 116 -177 116q-118 0 -159 -86q-6 -16 -18 -38q-12 -14 -29 -14q-42 0 -42 56v110q0 56 42 56q31 0 40 -25q3 -9 3 -44q69 69 161 69q186 0 256 -163 q50 -115 50 -355v-193q0 -236 -59 -355q-81 -164 -285 -164q-125 0 -250 72q-125 -72 -251 -72q-204 0 -285 164q-59 119 -59 355z" />
<glyph unicode="&#x461;" d="M150 615v225q0 56 42 56q43 0 43 -56v-219q0 -48 10 -72l192 -459l137 323l-49 120q-15 37 -15 82v225q0 56 42 56q43 0 43 -56v-219q0 -48 10 -72l192 -459l187 438q19 45 19 92q0 90 -74 194q-17 24 -17 38q0 44 45 44q33 0 81 -93.5t48 -187.5q0 -50 -22 -103 l-211 -513h-108l-126 307l-126 -307h-108l-220 534q-15 36 -15 82z" />
<glyph unicode="&#x462;" d="M33 795v195h383v96h-113q-56 0 -56 42t56 42h310q56 0 56 -42t-56 -42h-113v-96h384v-195q0 -57 -42 -57t-42 57v111h-300v-256h209q193 0 312 -65q152 -84 152 -260q0 -140 -100.5 -232.5t-241.5 -92.5h-528q-56 0 -56 42t56 42h113v822h-299v-111q0 -57 -42 -57t-42 57 zM500 84h325q107 0 183 65q80 69 80 174q0 134 -135 196q-101 46 -251 46h-202v-481z" />
<glyph unicode="&#x463;" d="M57 795v195h334v180h-45q-57 0 -57 42q0 43 57 43h129v-265h333v-195q0 -57 -42 -57t-42 57v111h-249v-408h251q388 0 388 -238q0 -160 -121 -219q-85 -41 -267 -41h-384q-56 0 -56 42t56 42h49v822h-250v-111q0 -57 -42 -57t-42 57zM475 84h247q139 0 200 22 q105 38 105 150q0 105 -111 139q-59 18 -198 18h-243v-329z" />
<glyph unicode="&#x464;" d="M0 42q0 42 56 42h71v1002h-53q-56 0 -56 42t56 42h202q56 0 56 -42t-56 -42h-65v-436h166v25q0 223 103 365q113 157 316 157q181 0 278 -142v59q0 56 42 56t42 -56v-233q0 -57 -42 -57q-25 0 -42 51q-77 238 -277 238q-162 0 -254 -135q-82 -121 -82 -303v-25h386 q57 0 57 -40q0 -45 -57 -45h-386v-49q0 -205 73 -325q85 -140 259 -140q94 0 175 53q62 41 144 136q18 21 38 21q40 0 40 -39q0 -51 -125 -156q-118 -99 -272 -99q-217 0 -324 164q-92 140 -92 373v61h-166v-481h65q56 0 56 -42t-56 -42h-220q-56 0 -56 42z" />
<glyph unicode="&#x465;" d="M12 42q0 42 56 42h65v697h-65q-56 0 -56 42q0 43 56 43h214q56 0 56 -43q0 -42 -56 -42h-65v-313h122q12 191 124 307q116 121 305 121q84 0 163 -35q73 -33 111 -80v28q0 57 42 57q43 0 43 -57v-190q0 -57 -43 -57q-34 0 -42 50q-16 95 -108 151q-78 48 -171 48 q-147 0 -238 -97q-87 -92 -101 -246h393q57 0 57 -42t-57 -42h-393q40 -333 342 -333q107 0 183 37q63 32 150 115q21 20 37 20q40 0 40 -40q0 -54 -137 -142q-115 -74 -277 -74q-188 0 -299.5 114t-123.5 303h-122v-300h65q56 0 56 -42t-56 -42h-214q-56 0 -56 42z" />
<glyph unicode="&#x466;" d="M16 42q0 28 23 38q9 4 33 4h65l423 1086h117l416 -1086h64q37 0 50 -19q7 -11 7 -23q0 -27 -23 -37q-11 -5 -34 -5h-212q-37 0 -50 20q-7 11 -7 22q0 28 23 38q9 4 34 4h60l-192 502q-154 -57 -154 -238v-264h68q56 0 56 -42t-56 -42h-221q-56 0 -56 42t56 42h68v264 q0 181 -155 238l-195 -502h61q36 0 49 -19q7 -11 7 -23q0 -27 -22 -37q-11 -5 -34 -5h-213q-37 0 -49 20q-7 11 -7 22zM449 660q60 -19 110 -65q44 -41 59 -82q39 107 166 147l-164 426h-6z" />
<glyph unicode="&#x467;" d="M59 42q0 43 56 43h86l345 781h142l341 -781h85q56 0 56 -42q0 -43 -56 -43h-206q-56 0 -56 42q0 43 56 43h30l-148 341q-131 -64 -131 -228v-114h48q56 0 56 -42t-56 -42h-181q-56 0 -56 42t56 42h48v114q0 164 -132 228l-151 -341h29q56 0 56 -42q0 -43 -56 -43h-205 q-56 0 -56 42zM475 500q110 -48 143 -137q33 90 140 137l-122 282h-37z" />
<glyph unicode="&#x468;" d="M0 42q0 42 56 42h31v1002h-23q-56 0 -56 42t56 42h132q56 0 56 -42t-56 -42h-25v-429h342l160 513h148l336 -1086h14q37 0 50 -19q7 -11 7 -23q0 -27 -23 -37q-11 -5 -34 -5h-122q-37 0 -50 20q-7 11 -7 22q0 28 23 38q9 4 32 4h10l-152 488q-119 -44 -119 -224v-264h18 q56 0 56 -42t-56 -42h-121q-56 0 -56 42t56 42h18v264q0 182 -114 224l-152 -488h10q36 0 48 -19q7 -11 7 -23q0 -26 -24 -37q-11 -5 -33 -5h-122q-39 0 -51 20q-6 10 -6 22q0 27 23 38q8 4 34 4h14l152 488h-316v-488h15q56 0 56 -42t-56 -42h-130q-56 0 -56 42zM615 662 q109 -36 132 -114q22 75 130 114l-132 424z" />
<glyph unicode="&#x469;" d="M5 42q0 42 56 42h25v697h-25q-56 0 -56 42q0 43 56 43h134q56 0 56 -43q0 -42 -56 -42h-25v-271h382l155 356h105l341 -781h15q56 0 56 -42q0 -43 -56 -43h-116q-56 0 -56 42q0 43 56 43h10l-148 341q-113 -55 -113 -228v-114h18q56 0 56 -42t-56 -42h-121q-56 0 -56 42 t56 42h18v114q0 174 -111 228l-148 -341h10q56 0 56 -43q0 -42 -56 -42h-116q-56 0 -56 43q0 42 56 42h15l149 341h-345v-342h25q56 0 56 -42t-56 -42h-134q-56 0 -56 42zM637 500q94 -41 122 -117q28 75 123 117l-125 282z" />
<glyph unicode="&#x46a;" d="M41 42q0 42 70 42h40v131q0 161 85 278q98 136 280 157l-311 436h-50q-56 0 -56 42t56 42h917q56 0 56 -42t-56 -42h-50l-307 -436q182 -21 281 -157q86 -118 86 -278v-131h40q70 0 70 -42t-70 -42h-168q-70 0 -70 42t70 42h44v121q0 138 -76 239q-93 124 -263 124v-484 h98q56 0 56 -42t-56 -42h-281q-56 0 -56 42t56 42h98v484q-170 0 -263 -124q-76 -101 -76 -239v-121h44q70 0 70 -42t-70 -42h-168q-70 0 -70 42zM303 1086l314 -433l307 433h-621z" />
<glyph unicode="&#x46b;" d="M80 43q0 42 70 42h35v62q0 125 65 214q81 112 248 134l-282 286q-49 0 -62 19q-8 12 -8 24q0 42 57 42h826q56 0 56 -43q0 -28 -24 -38q-10 -4 -46 -4l-280 -286q167 -22 249 -134q65 -89 65 -214v-62h35q70 0 70 -42q0 -43 -70 -43h-156q-71 0 -71 43q0 42 71 42h37v62 q0 104 -59 174q-79 94 -247 96v-333h60q57 0 57 -42t-57 -42h-204q-56 0 -56 42t56 42h60v333q-168 -2 -247 -96q-59 -70 -59 -174v-62h37q71 0 71 -42q0 -43 -71 -43h-156q-70 0 -70 43zM332 781l283 -298l285 298h-568z" />
<glyph unicode="&#x46c;" d="M0 42q0 42 56 42h31v1002h-23q-56 0 -56 42t56 42h132q56 0 56 -42t-56 -42h-25v-433h475l-239 433h-20q-56 0 -56 42t56 42h717q56 0 56 -42t-56 -42h-20l-237 -436q297 -34 297 -435v-131h10q70 0 70 -42t-70 -42h-138q-70 0 -70 42t70 42h44v121q0 158 -41 239 q-63 124 -228 124v-484h58q56 0 56 -42t-56 -42h-201q-56 0 -56 42t56 42h58v484q-165 0 -228 -124q-41 -81 -41 -239v-121h44q70 0 70 -42t-70 -42h-138q-70 0 -70 42t70 42h10v131q0 252 104 353h-286v-484h15q56 0 56 -42t-56 -42h-130q-56 0 -56 42zM505 1086l244 -433 l237 433h-481z" />
<glyph unicode="&#x46d;" d="M5 42q0 42 56 42h25v697h-25q-56 0 -56 42q0 43 56 43h134q56 0 56 -43q0 -42 -56 -42h-25v-286h468l-232 286q-49 0 -62 19q-8 12 -8 24q0 42 57 42h726q56 0 56 -43q0 -28 -24 -38q-10 -4 -46 -4l-230 -286q164 -22 224 -134q40 -74 40 -214v-62h15q70 0 70 -42 q0 -43 -70 -43h-116q-71 0 -71 43q0 42 71 42h17v62q0 119 -34 174q-57 94 -222 96v-333h30q57 0 57 -42t-57 -42h-144q-56 0 -56 42t56 42h30v333q-165 -2 -222 -96q-34 -55 -34 -174v-62h17q71 0 71 -42q0 -43 -71 -43h-116q-70 0 -70 43q0 42 70 42h15v62q0 190 82 270 h-287v-333h25q56 0 56 -42t-56 -42h-134q-56 0 -56 42zM522 781l233 -298l235 298h-468z" />
<glyph unicode="&#x46e;" d="M121 -128q0 119 88 183q74 54 184 54q57 0 158 -29t156 -29q294 0 294 266q0 87 -65 149q-58 56 -148 73t-266 17h-58q-71 0 -71 42q0 43 71 43h58q434 0 434 242q0 119 -111 180q-89 50 -218 50q-150 0 -250 -80t-128 -227q-8 -43 -39 -43q-39 0 -39 39q0 19 9 92 q4 32 4 64q0 22 -3 99l-4 88q0 39 38 39q29 0 38 -36q18 -83 42 -83q10 0 28 15q141 117 313 117q167 0 279 -70q134 -83 134 -241q0 -196 -223 -278q268 -63 268 -293q0 -348 -390 -348q-66 0 -161.5 29t-153.5 29q-183 0 -183 -151q0 -79 69 -126q75 -50 216 -50 q87 0 228.5 70.5t215.5 70.5q80 0 124 -56q35 -45 35 -105q0 -64 -41 -64q-42 0 -42 63q0 78 -72 78q-46 0 -186.5 -70.5t-260.5 -70.5q-371 0 -371 258zM316 1516q0 43 43 43q13 0 35 -17l221 -170l220 169q22 17 36 17q42 0 42 -42q0 -21 -28 -42l-270 -206l-271 206 q-28 21 -28 42z" />
<glyph unicode="&#x46f;" d="M151 -128q0 119 88 183q74 54 184 54q57 0 158.5 -29t156.5 -29q265 0 265 186q0 118 -189 154q-80 15 -276 15h-55q-70 0 -70 39q0 46 70 46h55q422 0 422 167q0 153 -324 153q-307 0 -355 -198q-13 -54 -44 -54q-37 0 -37 44v221q0 72 41 72q43 0 43 -72v-63 q129 135 372 135q148 0 253 -46q141 -62 141 -191q0 -142 -186 -201l61 -14q73 -17 121 -75t48 -132q0 -270 -356 -270q-66 0 -163.5 29t-155.5 29q-183 0 -183 -151q0 -176 275 -176q87 0 223.5 70.5t210.5 70.5q80 0 124 -56q35 -45 35 -105q0 -64 -41 -64q-42 0 -42 63 q0 78 -72 78q-46 0 -181.5 -70.5t-255.5 -70.5q-361 0 -361 258zM316 1256q0 43 43 43q13 0 35 -17l221 -170l220 169q22 17 36 17q42 0 42 -42q0 -21 -28 -42l-270 -206l-271 206q-28 21 -28 42z" />
<glyph unicode="&#x470;" d="M29 1128q0 42 56 42h167l166 -578q38 -133 155 -133v627h-123q-56 0 -56 42t56 42h329q57 0 57 -42t-57 -42h-122v-627q220 4 285 173q31 81 31 257v281h171q57 0 57 -42t-57 -42h-87v-197q0 -172 -22 -254q-36 -131 -146 -199q-97 -60 -232 -62v-290h122q57 0 57 -42 t-57 -42h-329q-56 0 -56 42t56 42h123v290q-175 0 -236 201l-155 511h-97q-56 0 -56 42z" />
<glyph unicode="&#x471;" d="M69 823q0 43 56 43h197l139 -725q17 -90 111 -90v788q0 57 43 57q42 0 42 -57v-788q186 9 229 123q21 56 21 175v517h197q56 0 56 -43q0 -42 -56 -42h-112v-432q0 -263 -145 -341q-65 -35 -190 -41v-297q0 -56 -42 -56q-43 0 -43 56v297q-168 0 -201 167l-129 647h-117 q-56 0 -56 42z" />
<glyph unicode="&#x472;" d="M104 582q0 238 134 418q147 197 378 197q145 0 265 -86q114 -81 179 -217q68 -142 68 -312q0 -160 -63 -300q-68 -152 -192 -235q-119 -80 -257 -80q-230 0 -378 198q-134 179 -134 417zM189 566q4 -195 115 -347q124 -168 312 -168q189 0 312 167q111 151 115 348 q-92 -48 -226 -48q-60 0 -208.5 50t-221.5 50q-95 0 -198 -52zM191 650q99 50 196 50q73 0 221.5 -50t208.5 -50q127 0 223 50q-17 164 -116 300q-119 163 -308 163q-177 0 -302 -155q-106 -132 -123 -308z" />
<glyph unicode="&#x473;" d="M145 431q0 198 136 331.5t334 133.5q196 0 332.5 -134.5t136.5 -330.5t-136.5 -330t-332.5 -134t-333 134.5t-137 329.5zM231 386q15 -128 111 -223q113 -112 272 -112q146 0 256 94.5t126 241.5q-94 -49 -176 -49q-61 0 -200.5 50t-204.5 50q-76 0 -184 -52zM231 468 q104 50 184 50q65 0 204.5 -50t200.5 -50q81 0 177 50q-13 150 -122.5 246.5t-260.5 96.5q-160 0 -272 -111q-99 -98 -111 -232z" />
<glyph unicode="&#x474;" d="M26 1128q0 28 23 38q9 4 33 4h283q38 0 50 -19q6 -10 6 -23q0 -26 -23 -37q-11 -5 -33 -5h-161l370 -1002h6l379 1035q29 78 131 78q53 0 86 -43t33 -108q0 -57 -42 -57q-19 0 -31 14t-12 43q0 62 -42 62t-62 -55l-383 -1053h-117l-403 1086h-35q-37 0 -49 20 q-7 11 -7 22z" />
<glyph unicode="&#x475;" d="M59 824q0 42 56 42h315q56 0 56 -43q0 -42 -56 -42h-139l308 -697h37l319 734q34 78 131 78q53 0 86 -43t33 -108q0 -57 -42 -57q-19 0 -31 14t-12 43q0 62 -42 62q-38 0 -62 -55l-328 -752h-142l-345 781h-86q-56 0 -56 43z" />
<glyph unicode="&#x476;" d="M26 1128q0 28 23 38q9 4 33 4h283q38 0 50 -19q6 -10 6 -23q0 -26 -23 -37q-11 -5 -33 -5h-161l370 -1002h6l379 1035q29 78 131 78q53 0 86 -43t33 -108q0 -57 -42 -57q-19 0 -31 14t-12 43q0 62 -42 62t-62 -55l-383 -1053h-117l-403 1086h-35q-37 0 -49 20 q-7 11 -7 22zM255 1533q0 43 42 43q18 0 40 -23l194 -204q21 -22 21 -38q0 -43 -42 -43q-19 0 -41 23l-193 204q-21 22 -21 38zM558 1533q0 43 42 43q19 0 41 -23l193 -204q21 -22 21 -38q0 -43 -42 -43q-19 0 -41 23l-193 204q-21 22 -21 38z" />
<glyph unicode="&#x477;" d="M59 824q0 42 56 42h315q56 0 56 -43q0 -42 -56 -42h-139l308 -697h37l319 734q34 78 131 78q53 0 86 -43t33 -108q0 -57 -42 -57q-19 0 -31 14t-12 43q0 62 -42 62q-38 0 -62 -55l-328 -752h-142l-345 781h-86q-56 0 -56 43zM275 1285q0 43 42 43q18 0 40 -23l194 -204 q21 -22 21 -38q0 -43 -42 -43q-19 0 -41 23l-193 204q-21 22 -21 38zM578 1285q0 43 42 43q19 0 41 -23l193 -204q21 -22 21 -38q0 -43 -42 -43q-19 0 -41 23l-193 204q-21 22 -21 38z" />
<glyph unicode="&#x478;" d="M0 583q0 252 33 374q66 240 264 240v-46q198 0 264 -240q33 -122 33 -374t-33 -375q-66 -241 -264 -241v46q-198 0 -264 241q-33 123 -33 375zM84 583q0 -532 213 -532v-46q213 0 213 532q0 530 -213 530v46q-213 0 -213 -530zM587 823q0 29 24 39q9 4 32 4h160 q56 0 56 -43q0 -42 -56 -42h-66l103 -608l138 597q29 126 142 126q109 0 109 -151q0 -57 -42 -57q-19 0 -31 14t-12 43q0 62 -32 62q-39 0 -52 -55l-256 -1095q-10 -43 -44 -43q-37 0 -37 31q0 11 6 38l69 307l-150 791q-61 0 -61 42z" />
<glyph unicode="&#x479;" d="M5 433q0 194 69 319q79 145 228 145v-43q149 0 228 -145q69 -125 69 -319t-69 -320q-79 -146 -228 -146v43q-149 0 -228 146q-69 126 -69 320zM89 432q0 -149 50 -255q58 -125 163 -125v-43q105 0 163 125q50 106 50 255t-50 255q-58 125 -163 125v43q-105 0 -163 -125 q-50 -106 -50 -255zM542 823q0 29 24 39q9 4 32 4h170q56 0 56 -43q0 -42 -56 -42h-66l118 -608l138 597q29 126 152 126q53 0 86 -43t33 -108q0 -57 -42 -57q-19 0 -31 14t-12 43q0 62 -42 62q-49 0 -62 -55l-256 -1095q-10 -43 -44 -43q-37 0 -37 40q0 2 6 29l69 307 l-165 791q-71 0 -71 42z" />
<glyph unicode="&#x47a;" d="M121 496v174q0 474 397 522q23 68 97 68q42 0 72 -30q18 -18 25 -39q395 -49 395 -521v-174q0 -475 -396 -523q-8 -22 -24 -38q-30 -30 -72 -30q-73 0 -97 68q-397 49 -397 523zM205 478q0 -373 320 -421q30 53 90 53q59 0 89 -53q319 48 319 421v210q0 371 -319 419 q-7 -12 -17 -22q-30 -30 -72 -30q-60 0 -90 52q-320 -46 -320 -419v-210z" />
<glyph unicode="&#x47b;" d="M145 430q0 422 372 461q7 21 25 39q30 30 73 30q42 0 72 -30q18 -18 25 -39q372 -40 372 -461q0 -420 -373 -458q-8 -21 -24 -37q-30 -30 -72 -30q-73 0 -97 66q-373 38 -373 459zM229 430q0 -342 295 -374q7 13 18 24q30 30 73 30q42 0 72 -30q11 -11 18 -24 q295 32 295 374q0 343 -296 376q-30 -51 -89 -51q-43 0 -73 30q-10 10 -17 22q-296 -33 -296 -377z" />
<glyph unicode="&#x47c;" d="M20 486v193q0 240 50 355q70 163 256 163q98 0 161 -69q0 33 4 44q9 25 39 25q42 0 42 -56v-110q0 -56 -42 -56q-16 0 -23 7q-11 13 -24 45q-41 86 -159 86q-126 0 -177 -116q-42 -98 -42 -318v-193q0 -435 261 -435q98 0 248 82q150 -82 249 -82q261 0 261 435v193 q0 220 -42 318q-51 116 -177 116q-118 0 -159 -86q-5 -16 -19 -38q-11 -14 -28 -14q-42 0 -42 56v110q0 56 42 56q37 0 41 -32q2 -11 2 -37q69 69 161 69q186 0 256 -163q50 -115 50 -355v-193q0 -236 -59 -355q-81 -164 -285 -164q-126 0 -251 72q-125 -72 -250 -72 q-204 0 -285 164q-59 119 -59 355zM345 1349q0 34 23.5 58t57.5 24h289q1 32 25 55t56 23q34 0 58 -24t24 -58t-24.5 -57.5t-54.5 -23.5h-291q-1 -33 -25 -55.5t-57 -22.5t-57 24t-24 57z" />
<glyph unicode="&#x47d;" d="M10 439q0 178 61 300q77 158 234 158q97 0 172 -85v28q0 57 42 57q43 0 43 -57v-190q0 -57 -43 -57q-38 0 -42 50t-44 103q-51 67 -125 67q-120 0 -174 -135q-40 -98 -40 -246q0 -141 49 -244q66 -137 198 -137q152 0 273 128q121 -128 273 -128q132 0 198 137 q49 103 49 244q0 148 -39 246q-55 135 -175 135q-74 0 -125 -67q-40 -53 -44 -103t-42 -50q-43 0 -43 57v190q0 57 43 57q42 0 42 -57v-28q75 85 172 85q157 0 235 -158q60 -122 60 -300q0 -192 -63 -312q-84 -160 -269 -160q-79 0 -162 34q-72 30 -110 68q-38 -38 -110 -68 q-83 -34 -162 -34q-185 0 -269 160q-63 120 -63 312zM345 1089q0 34 23.5 58t57.5 24h289q1 32 25 55t56 23q34 0 58 -24t24 -58t-24.5 -57.5t-54.5 -23.5h-291q-1 -33 -25 -55.5t-57 -22.5t-57 24t-24 57z" />
<glyph unicode="&#x47e;" d="M20 486v193q0 240 50 355q70 163 256 163q98 0 161 -69q0 33 4 44q9 25 39 25q42 0 42 -56v-110q0 -56 -42 -56q-16 0 -26 13q-12 20 -21 39q-41 86 -159 86q-126 0 -177 -116q-42 -98 -42 -318v-193q0 -435 261 -435q75 0 126 20q11 4 80 42v321h-179q-56 0 -56 42 t56 42h443q56 0 56 -42t-56 -42h-179v-321q69 -38 80 -42q51 -20 126 -20q261 0 261 435v193q0 220 -42 318q-51 116 -177 116q-118 0 -159 -86q-6 -16 -18 -38q-12 -14 -29 -14q-42 0 -42 56v110q0 56 42 56q31 0 40 -25q3 -9 3 -44q69 69 161 69q186 0 256 -163 q50 -115 50 -355v-193q0 -236 -59 -355q-81 -164 -285 -164q-125 0 -250 72q-125 -72 -251 -72q-204 0 -285 164q-59 119 -59 355zM167 1453h894l-80 -185h-34l-47 101h-222l-47 -101h-34l-47 101h-222l-47 -101h-34z" />
<glyph unicode="&#x47f;" d="M150 615v225q0 56 42 56q43 0 43 -56v-219q0 -48 10 -72l192 -459l137 323l-49 120q-15 37 -15 82v225q0 56 42 56q43 0 43 -56v-219q0 -48 10 -72l192 -459l187 438q19 45 19 92q0 90 -74 194q-17 24 -17 38q0 44 45 44q33 0 81 -93.5t48 -187.5q0 -50 -22 -103 l-211 -513h-108l-126 307l-126 -307h-108l-220 534q-15 36 -15 82zM167 1160h894l-80 -185h-34l-47 101h-222l-47 -101h-34l-47 101h-222l-47 -101h-34z" />
<glyph unicode="&#x480;" d="M127 504v171q0 132 69 259t180 194q115 69 250 69q208 0 358 -142v59q0 56 42 56t42 -56v-233q0 -57 -42 -57q-39 0 -42 51q-5 84 -91 149q-117 89 -264 89q-96 0 -183 -43q-65 -32 -102 -76q-133 -157 -133 -331v-147q0 -185 134 -325t318 -140q23 0 44 2v-355h188 q56 0 56 -42t-56 -42h-460q-56 0 -56 42t56 42h188v273q-161 16 -262 94q-56 43 -121.5 130t-87.5 150q-25 73 -25 159z" />
<glyph unicode="&#x481;" d="M180 425q0 205 132.5 338t337.5 133q193 0 324 -115v28q0 57 42 57q43 0 43 -57v-190q0 -57 -43 -57q-38 0 -42 50q-8 97 -125 153q-96 46 -204 46q-170 0 -275.5 -107t-105.5 -278q0 -167 108 -271t276 -104q11 0 45 4v-357h91q57 0 57 -42t-57 -42h-270q-56 0 -56 42 t56 42h95v272q-171 0 -300 128t-129 327z" />
<glyph unicode="&#x482;" d="M180 601q0 41 39 41q15 0 34 -9l268 -125l92 197l-268 125q-37 17 -37 45q0 41 40 41q14 0 33 -9l268 -125l176 378q17 37 45 37q42 0 42 -40q0 -9 -11 -33l-176 -378l268 -125q37 -17 37 -44q0 -42 -40 -42q-14 0 -33 9l-268 125l-91 -196l268 -125q37 -17 37 -44 q0 -42 -40 -42q-14 0 -33 9l-268 125l-183 -392q-17 -37 -44 -37q-42 0 -42 40q0 12 10 33l183 392l-269 125q-37 17 -37 44z" />
<glyph unicode="&#x483;" d="M345 1089q0 34 23.5 58t57.5 24h289q1 32 25 55t56 23q34 0 58 -24t24 -58t-24.5 -57.5t-54.5 -23.5h-291q-1 -33 -25 -55.5t-57 -22.5t-57 24t-24 57z" />
<glyph unicode="&#x484;" d="M316 1118q0 43 56 43h90q49 0 125.5 50.5t139.5 50.5q82 0 184 -115q13 -15 13 -32q0 -39 -42 -39q-15 0 -30 13q-33 30 -66 61q-33 27 -59 27q-42 0 -115 -50.5t-149 -50.5h-91q-56 0 -56 42z" />
<glyph unicode="&#x485;" d="M318 971v307q0 48 49 48q48 0 48 -48v-105h450q48 0 48 -48q0 -49 -48 -49h-450v-105q0 -48 -48 -48q-49 0 -49 48z" />
<glyph unicode="&#x486;" d="M318 1125q0 48 48 48h450v105q0 48 48 48q49 0 49 -48v-307q0 -48 -49 -48q-48 0 -48 48v105h-450q-48 0 -48 49z" />
<glyph unicode="&#x488;" d="M1 502q0 152 132 152t132 -152h-57q0 93 -75 93t-75 -93h-57zM75 153q0 153 132 153q133 0 133 -153h-57q0 94 -76 94q-75 0 -75 -94h-57zM75 819q0 153 132 153q133 0 133 -153h-57q0 94 -76 94q-75 0 -75 -94h-57zM476 0q0 153 133 153q132 0 132 -153h-57q0 94 -75 94 q-76 0 -76 -94h-57zM476 972q0 153 133 153q132 0 132 -153h-57q0 94 -75 94q-76 0 -76 -94h-57zM890 153q0 153 133 153q132 0 132 -153h-57q0 94 -75 94q-76 0 -76 -94h-57zM890 819q0 153 133 153q132 0 132 -153h-57q0 94 -75 94q-76 0 -76 -94h-57zM965 502 q0 152 132 152t132 -152h-57q0 93 -75 93t-75 -93h-57z" />
<glyph unicode="&#x489;" d="M1 610h58q6 -48 74 -48v49h96v-99h-90q-47 0 -87 27t-51 71zM98 163l40 40q15 -11 32 -11q25 0 55 30l-34 35l66 67l71 -70l-63 -64q-31 -31 -79 -41q-49 -10 -88 14zM152 924q-9 48 15 88l40 -40q-10 -14 -10 -31q0 -27 29 -56l36 34l66 -66l-71 -71l-62 64 q-35 36 -43 78zM553 86v95h99v-90q0 -114 -98 -138v57q49 7 49 76h-50zM553 987v90q0 46 27.5 86.5t71.5 51.5v-57q-48 -6 -48 -76h48v-95h-99zM900 308l70 70l63 -63q34 -34 43 -78q10 -48 -15 -88l-40 40q10 14 10 31q0 27 -29 56l-36 -34zM900 906l63 65q30 31 79 41 t88 -14l-41 -40q-15 11 -31 11q-26 0 -56 -30l35 -35l-67 -68zM999 549v99h90q48 0 87.5 -26.5t50.5 -71.5h-58q-6 48 -74 48v-49h-96z" />
<glyph unicode="&#x48a;" d="M40 42q0 42 56 42h113v1002h-113q-56 0 -56 42t56 42h352q57 0 57 -42t-57 -42h-155v-965l620 1049h220q56 0 56 -42t-56 -42h-113v-1002h123q38 0 49 -14q7 -9 7 -26q0 -15 -4 -30l-63 -233q-18 -67 -59 -67q-30 0 -30 33q0 12 5 31l59 222h-284q-56 0 -56 42t56 42h113 v963l-619 -1047h-221q-56 0 -56 42zM314 1508q0 46 42 46q37 0 42 -48q7 -70 79 -111q62 -36 138 -36t137 35q71 41 79 112q5 48 42 48q43 0 43 -46q0 -110 -99 -176q-87 -58 -202 -58q-114 0 -201 58q-100 67 -100 176z" />
<glyph unicode="&#x48b;" d="M58 42q0 42 56 42h101v697h-101q-56 0 -56 42q0 43 56 43h298q56 0 56 -43q0 -42 -56 -42h-113v-660l605 745h211q56 0 56 -43q0 -42 -56 -42h-113v-697h113q39 0 50 -14q7 -9 7 -26q0 -15 -4 -30l-42 -158q-18 -67 -59 -67q-31 0 -31 33q0 12 5 31l39 147h-275 q-56 0 -56 42t56 42h113v659l-604 -743h-200q-56 0 -56 42zM314 1252q0 46 42 46q37 0 42 -48q7 -70 79 -111q62 -36 138 -36t137 35q71 41 79 112q5 48 42 48q43 0 43 -46q0 -110 -99 -176q-87 -58 -202 -58q-114 0 -201 58q-100 67 -100 176z" />
<glyph unicode="&#x48c;" d="M87 42q0 42 56 42h113v789h-102q-67 0 -67 43q0 42 70 42h99v179q0 60 43 60q41 0 41 -57v-182h84q80 0 80 -42q0 -43 -79 -43h-85v-223h309q193 0 312 -65q152 -84 152 -260q0 -140 -100.5 -232.5t-241.5 -92.5h-628q-56 0 -56 42zM340 84h425q107 0 183 65 q80 69 80 174q0 134 -135 196q-101 46 -251 46h-302v-481z" />
<glyph unicode="&#x48d;" d="M102 966q0 42 70 42h99v187q0 60 43 60q41 0 41 -57v-190h84q80 0 80 -42q0 -43 -79 -43h-85v-425h251q388 0 388 -238q0 -160 -121 -219q-85 -41 -267 -41h-384q-56 0 -56 42t56 42h49v839h-102q-67 0 -67 43zM355 84h247q139 0 200 22q105 38 105 150q0 105 -111 139 q-59 18 -198 18h-243v-329z" />
<glyph unicode="&#x48e;" d="M179 42q0 42 56 42h113v1002h-113q-56 0 -56 42t56 42h488q157 0 270 -90q122 -98 122 -251q0 -82 -35 -146q-20 -36 -49 -68l93 -93q21 -21 22 -39q1 -17 -12.5 -30.5t-30.5 -12.5q-18 1 -39 22l-99 99q-123 -81 -270 -81h-263v-396h288q56 0 56 -42t-56 -42h-485 q-56 0 -56 42zM432 564h268q110 0 204 58l-112 112q-22 22 -23 39q-1 18 12 31.5t31 12.5t41 -24l117 -117q61 68 61 153q0 113 -96 188q-88 69 -204 69h-299v-522z" />
<glyph unicode="&#x48f;" d="M45 -344q0 42 56 42h113v1083h-113q-56 0 -56 43q0 42 56 42h197v-153q151 183 364 183q123 0 226 -56q108 -59 165.5 -162.5t57.5 -218.5q0 -154 -94 -270l107 -107q21 -21 22 -39q1 -17 -12.5 -30.5t-30.5 -12.5q-18 1 -39 22l-106 106q-123 -107 -295 -107 q-225 0 -365 183v-506h204q56 0 56 -42t-56 -42h-401q-56 0 -56 42zM298 459q0 -149 107.5 -251t257.5 -102q135 0 234 83l-105 105q-22 22 -23 39q-1 18 12 31.5t31 12.5t41 -24l103 -103q70 91 70 209q0 150 -106 251t-257 101q-150 0 -256 -101q-109 -102 -109 -251z" />
<glyph unicode="&#x490;" d="M127 42q0 42 56 42h200v1002h-200q-56 0 -56 42t56 42h843v213q0 56 43 56q42 0 42 -56v-297h-643v-1002h200q56 0 56 -42t-56 -42h-485q-56 0 -56 42z" />
<glyph unicode="&#x491;" d="M152 42q0 42 56 42h200v697h-200q-56 0 -56 42q0 43 56 43h795v213q0 56 42 56q43 0 43 -56v-298h-595v-697h200q56 0 56 -42t-56 -42h-485q-56 0 -56 42z" />
<glyph unicode="&#x492;" d="M127 42q0 42 56 42h200v480h-99q-60 0 -72 2q-45 8 -45 41t46 41q9 1 71 1h99v437h-200q-56 0 -56 42t56 42h928v-418q0 -56 -42 -56q-43 0 -43 56v334h-558v-437h234q117 0 117 -42q0 -33 -45 -41q-12 -2 -72 -2h-234v-480h200q56 0 56 -42t-56 -42h-485q-56 0 -56 42z " />
<glyph unicode="&#x493;" d="M152 42q0 42 56 42h200v327h-181q-56 0 -56 43q0 42 56 42h181v285h-200q-56 0 -56 42q0 43 56 43h880v-419q0 -56 -43 -56q-42 0 -42 56v334h-510v-285h213q57 0 57 -43q0 -42 -56 -42h-214v-327h200q56 0 56 -42t-56 -42h-485q-56 0 -56 42z" />
<glyph unicode="&#x494;" d="M37 42q0 42 56 42h200v1002h-200q-56 0 -56 42t56 42h928v-310q0 -56 -42 -56q-43 0 -43 56v226h-558v-470q156 88 303 88q208 0 342 -149q132 -145 132 -363q0 -252 -109 -406q-121 -172 -345 -172q-203 0 -323 105v-48q0 -57 -42 -57q-43 0 -43 57v190q0 57 43 57 q18 0 29 -11q8 -8 13 -39q14 -80 129 -129q95 -40 200 -40q171 0 269 144q90 132 90 337q0 174 -104 303q-112 137 -284 137q-150 0 -300 -100v-436h200q56 0 56 -42t-56 -42h-485q-56 0 -56 42z" />
<glyph unicode="&#x495;" d="M52 42q0 42 56 42h200v697h-200q-56 0 -56 42q0 43 56 43h880v-199q0 -56 -43 -56q-42 0 -42 56v114h-510v-325q149 87 310 87q200 0 317 -126t117 -332q0 -209 -113 -338q-117 -133 -318 -133q-193 0 -313 105v-48q0 -57 -42 -57q-43 0 -43 57v190q0 57 43 57 q18 0 29 -11q8 -8 13 -39q14 -81 124 -129q92 -40 196 -40q156 0 249 108q91 105 91 277q0 170 -95 272.5t-259 102.5q-167 0 -306 -104v-271h200q56 0 56 -42t-56 -42h-485q-56 0 -56 42z" />
<glyph unicode="&#x496;" d="M-5 42q0 42 70 42h63l120 294q82 201 185 258q-45 47 -139 246q-53 113 -62 126q-49 81 -104 81v-110q0 -58 -44 -58q-41 0 -41 64v115q0 40 8 53q11 17 48 17q113 0 174 -73q27 -32 96 -178q60 -127 70 -144q60 -104 111 -104h22v415h-64q-70 0 -70 42t70 42h213 q71 0 71 -42t-71 -42h-65v-415h22q59 0 115 100l68 148q68 147 92 178q60 73 172 73q41 0 51 -13.5t10 -56.5v-115q0 -65 -39 -65q-45 0 -45 59v110q-53 -1 -103 -80q-17 -27 -63 -127q-92 -201 -140 -246q105 -60 186 -258l120 -294h47q45 0 58 -12.5t13 -57.5v-233 q0 -67 -41 -67q-44 0 -44 64v222h-36q-41 0 -52 7.5t-26 44.5l-118 290q-99 240 -217 243h-30v-501h65q71 0 71 -42t-71 -42h-213q-70 0 -70 42t70 42h64v501h-30q-116 -3 -215 -243l-118 -290q-15 -37 -26.5 -44.5t-51.5 -7.5h-66q-70 0 -70 42z" />
<glyph unicode="&#x497;" d="M20 42q0 42 70 42h57l111 198q75 134 173 197q-41 33 -122 161q-49 76 -66 95q-43 46 -99 46v-63q0 -57 -42 -57q-43 0 -43 64v70q0 40 9 53q11 18 48 18q100 0 158 -47q40 -32 102 -135q107 -173 175 -177h21v274h-59q-71 0 -71 42q0 43 71 43h202q71 0 71 -43 q0 -42 -71 -42h-58v-274h20q50 0 104 68q9 11 72 109q67 104 97 132q57 50 149 50q44 0 57 -13.5t13 -57.5v-70q0 -64 -41 -64q-44 0 -44 57v63q-56 0 -100 -46q-19 -21 -65 -95q-81 -132 -122 -161q93 -52 174 -197l110 -198h71q45 0 58 -12.5t13 -57.5v-157q0 -68 -42 -68 q-43 0 -43 65v146h-54q-39 0 -50 6t-30 40l-110 198q-99 175 -209 179h-28v-339h58q71 0 71 -42t-71 -42h-202q-71 0 -71 42t71 42h59v339h-29q-110 -4 -209 -179l-110 -198q-9 -17 -28 -40q-10 -6 -49 -6h-57q-70 0 -70 42z" />
<glyph unicode="&#x498;" d="M114 142q0 48 43 48q14 0 37 -13q124 -72 206 -97q94 -29 226 -29q151 0 251 56q124 70 124 210q0 87 -65 149q-58 56 -148 73t-266 17h-58q-71 0 -71 42q0 43 71 43h58q434 0 434 242q0 119 -111 180q-89 50 -218 50q-150 0 -250 -80t-128 -227q-8 -43 -39 -43 q-39 0 -39 39q0 19 9 92q4 32 4 64q0 22 -3 99l-4 88q0 39 38 39q29 0 39 -41q17 -78 41 -78q10 0 28 15q141 117 313 117q167 0 279 -70q134 -83 134 -241q0 -196 -223 -278q268 -63 268 -293q0 -142 -114 -245q-89 -81 -263 -98q46 -50 46 -118q0 -69 -44.5 -108.5 t-114.5 -39.5q-61 0 -107 32q-29 20 -29 39q0 31 30 31q10 0 26 -14q31 -28 78 -28q101 0 101 82q0 45 -29 79q-33 39 -79 40q-103 2 -269 47q-212 57 -212 128z" />
<glyph unicode="&#x499;" d="M144 112q0 46 42 46q13 0 35 -11q195 -96 421 -96q130 0 223 32q138 48 138 154q0 118 -189 154q-80 15 -276 15h-55q-70 0 -70 39q0 46 70 46h55q422 0 422 167q0 153 -324 153q-307 0 -355 -198q-13 -54 -44 -54q-37 0 -37 44v221q0 72 41 72q43 0 43 -72v-63 q129 135 372 135q148 0 253 -46q141 -62 141 -191q0 -142 -186 -201l61 -14q73 -17 121 -75t48 -132q0 -243 -375 -267q44 -49 44 -116q0 -69 -44.5 -108.5t-114.5 -39.5q-61 0 -107 32q-29 20 -29 39q0 31 30 31q10 0 26 -14q31 -28 78 -28q101 0 101 82q0 47 -32 82.5 t-79 37.5q-145 7 -283 46q-165 46 -165 98z" />
<glyph unicode="&#x49a;" d="M119 42q0 42 70 42h107v1002h-107q-70 0 -70 42t70 42h301q71 0 71 -42t-71 -42h-109v-415h64q105 0 175 79q23 26 109 171.5t121 180.5q71 69 195 69q52 0 65 -10q16 -13 16 -61v-111q0 -69 -42 -69q-43 0 -43 65v104q-89 0 -146 -64q-21 -23 -91 -144 q-129 -222 -176 -243q124 -50 231 -260l149 -294h139q45 0 58 -12.5t13 -57.5v-233q0 -67 -41 -67q-44 0 -44 64l-1 222h-121q-39 0 -50 6.5t-29 41.5l-150 294q-68 133 -128 182q-76 61 -209 61h-64v-501h109q71 0 71 -42t-71 -42h-301q-70 0 -70 42z" />
<glyph unicode="&#x49b;" d="M120 42q0 42 70 42h102v697h-102q-70 0 -70 42q0 43 70 43h289q70 0 70 -43q0 -42 -70 -42h-102v-274h62q86 0 137 33q36 23 101 102q110 134 143 161q78 63 196 63q50 0 66 -12t16 -59v-115q0 -60 -43 -60q-41 0 -41 53v108q-84 0 -133 -38q-21 -17 -96 -108 q-106 -130 -160 -163q75 -19 127 -71q28 -27 92 -118l140 -199h132q45 0 58 -12.5t13 -57.5v-157q0 -68 -42 -68q-43 0 -43 65v146h-118q-51 0 -68 26q-2 5 -10 16l-142 210q-66 98 -136 134.5t-189 36.5h-62v-339h102q70 0 70 -42t-70 -42h-289q-70 0 -70 42z" />
<glyph unicode="&#x49c;" d="M119 42q0 42 70 42h107v1002h-107q-70 0 -70 42t70 42h301q71 0 71 -42t-71 -42h-109v-415h64q51 0 87 12v217q0 57 42 57t42 -57v-151q44 57 113 173q86 145 121 180q71 69 195 69q52 0 65 -10q16 -13 16 -61v-111q0 -69 -42 -69q-43 0 -43 65v104q-89 0 -146 -64 q-21 -23 -91 -144q-129 -222 -176 -243q124 -50 231 -260l149 -294h124q70 0 70 -42t-70 -42h-121q-39 0 -50 6.5t-29 41.5l-150 294q-83 163 -166 207v-238q0 -56 -42 -56t-42 56v267q-37 7 -87 7h-64v-501h109q71 0 71 -42t-71 -42h-301q-70 0 -70 42z" />
<glyph unicode="&#x49d;" d="M120 42q0 42 70 42h102v697h-102q-70 0 -70 42q0 43 70 43h289q70 0 70 -43q0 -42 -70 -42h-102v-274h62q45 0 80 8v130q0 57 42 57t42 -57v-83q34 31 74 80q110 134 143 161q78 63 196 63q50 0 66 -12t16 -59v-115q0 -60 -43 -60q-41 0 -41 53v108q-84 0 -133 -38 q-21 -17 -96 -108q-106 -130 -160 -163q75 -19 127 -71q28 -27 92 -118l140 -199h118q70 0 70 -42t-70 -42h-118q-51 0 -68 26q-2 5 -10 16l-142 210q-78 115 -161 146v-137q0 -56 -42 -56t-42 56v157q-37 5 -80 5h-62v-339h102q70 0 70 -42t-70 -42h-289q-70 0 -70 42z" />
<glyph unicode="&#x49e;" d="M119 42q0 42 70 42h107v789h-100q-67 0 -67 43q0 42 70 42h97v128h-107q-70 0 -70 42t70 42h301q71 0 71 -42t-71 -42h-109v-128h85q80 0 80 -42q0 -43 -79 -43h-86v-202h64q105 0 175 79q23 26 109 171.5t121 180.5q71 69 195 69q52 0 65 -10q16 -13 16 -61v-111 q0 -69 -42 -69q-43 0 -43 65v104q-89 0 -146 -64q-21 -23 -91 -144q-129 -222 -176 -243q124 -50 231 -260l149 -294h124q70 0 70 -42t-70 -42h-121q-39 0 -50 6.5t-29 41.5l-150 294q-68 133 -128 182q-76 61 -209 61h-64v-501h109q71 0 71 -42t-71 -42h-301q-70 0 -70 42z " />
<glyph unicode="&#x49f;" d="M120 42q0 42 70 42h102v839h-102q-67 0 -67 43q0 42 70 42h99v162h-113q-56 0 -56 43q0 42 56 42h198v-247h83q80 0 80 -42q0 -43 -79 -43h-84v-416h62q86 0 137 33q36 23 101 102q110 134 143 161q78 63 196 63q50 0 66 -12t16 -59v-115q0 -60 -43 -60q-41 0 -41 53v108 q-84 0 -133 -38q-21 -17 -96 -108q-106 -130 -160 -163q75 -19 127 -71q28 -27 92 -118l140 -199h118q70 0 70 -42t-70 -42h-118q-54 4 -78 42l-142 210q-66 98 -136 134.5t-189 36.5h-62v-339h102q70 0 70 -42t-70 -42h-289q-70 0 -70 42z" />
<glyph unicode="&#x4a0;" d="M23 795v375h577q71 0 71 -42t-71 -42h-109v-415h34q105 0 175 79q23 26 109 171.5t121 180.5q71 69 195 69q52 0 65 -10q16 -13 16 -61v-111q0 -69 -42 -69q-43 0 -43 65v104q-89 0 -146 -64q-21 -23 -91 -144q-129 -222 -176 -243q124 -50 231 -260l149 -294h54 q70 0 70 -42t-70 -42h-51q-39 0 -50 6.5t-29 41.5l-150 294q-68 133 -128 182q-76 61 -209 61h-34v-501h109q71 0 71 -42t-71 -42h-301q-70 0 -70 42t70 42h107v1002h-299v-291q0 -57 -42 -57t-42 57z" />
<glyph unicode="&#x4a1;" d="M36 576v290h543q70 0 70 -43q0 -42 -70 -42h-102v-274h52q86 0 137 33q36 23 101 102q110 134 143 161q78 63 196 63q50 0 66 -12t16 -59v-115q0 -60 -43 -60q-41 0 -41 53v108q-84 0 -133 -38q-21 -17 -96 -108q-106 -130 -160 -163q75 -19 127 -71q28 -27 92 -118 l140 -199h58q70 0 70 -42t-70 -42h-58q-49 0 -62 20q-9 11 -16 22l-142 210q-66 98 -136 134.5t-189 36.5h-52v-339h102q70 0 70 -42t-70 -42h-289q-70 0 -70 42t70 42h102v697h-272v-205q0 -56 -42 -56t-42 56z" />
<glyph unicode="&#x4a2;" d="M107 42q0 42 56 42h95v1002h-52q-57 0 -57 42t57 42h249q56 0 56 -42t-56 -42h-113v-436h557v436h-112q-56 0 -56 42t56 42h249q57 0 57 -42t-57 -42h-52v-1002h110q45 0 58 -12.5t13 -57.5v-233q0 -67 -41 -67q-45 0 -45 64v222h-292q-56 0 -56 42t56 42h112v482h-557 v-482h113q56 0 56 -42t-56 -42h-292q-56 0 -56 42z" />
<glyph unicode="&#x4a3;" d="M107 42q0 42 56 42h95v697h-65q-56 0 -56 42q0 43 56 43h214q56 0 56 -43q0 -42 -56 -42h-65v-283h545v283h-64q-57 0 -57 42q0 43 57 43h213q56 0 56 -43q0 -42 -56 -42h-65v-697h110q45 0 58 -12.5t13 -57.5v-157q0 -68 -42 -68q-44 0 -44 65v146h-274q-56 0 -56 42 t56 42h95v329h-545v-329h95q56 0 56 -42t-56 -42h-274q-56 0 -56 42z" />
<glyph unicode="&#x4a4;" d="M17 42q0 42 56 42h95v1002h-52q-57 0 -57 42t57 42h249q56 0 56 -42t-56 -42h-113v-436h477v436h-112q-56 0 -56 42t56 42h587v-375q0 -57 -42 -57t-42 57v291h-306v-1002h95q56 0 56 -42t-56 -42h-292q-56 0 -56 42t56 42h112v482h-477v-482h113q56 0 56 -42t-56 -42 h-292q-56 0 -56 42z" />
<glyph unicode="&#x4a5;" d="M17 42q0 42 56 42h95v697h-65q-56 0 -56 42q0 43 56 43h214q56 0 56 -43q0 -42 -56 -42h-65v-283h445v283h-64q-57 0 -57 42q0 43 57 43h560v-290q0 -56 -42 -56q-43 0 -43 56v205h-327v-697h95q56 0 56 -42t-56 -42h-274q-56 0 -56 42t56 42h95v329h-445v-329h95 q56 0 56 -42t-56 -42h-274q-56 0 -56 42z" />
<glyph unicode="&#x4a6;" d="M10 42q0 42 56 42h75v1002h-75q-56 0 -56 42t56 42h666q56 0 56 -42t-56 -42h-75v-396q53 14 114 14q205 0 327 -149q117 -142 117 -363q0 -258 -94 -406q-108 -172 -330 -172q-183 0 -303 105v-48q0 -57 -42 -57q-43 0 -43 57v190q0 57 43 57q18 0 29 -11q8 -8 13 -39 q14 -81 119 -129q88 -40 190 -40q169 0 254 144q75 126 75 337q0 179 -89 303q-99 137 -269 137q-61 0 -111 -15v-521h75q56 0 56 -42t-56 -42h-202q-56 0 -56 42t56 42h42v1002h-347v-1002h43q56 0 56 -42t-56 -42h-202q-56 0 -56 42z" />
<glyph unicode="&#x4a7;" d="M7 42q0 42 56 42h55v697h-45q-56 0 -56 42q0 43 56 43h623q56 0 56 -43q0 -42 -56 -42h-45v-255q56 17 147 17q198 0 308 -127q106 -122 106 -331q0 -212 -103 -338q-109 -133 -308 -133q-173 0 -293 105v-48q0 -57 -42 -57q-43 0 -43 57v190q0 57 43 57q18 0 29 -11 q8 -8 13 -39q14 -81 114 -129q85 -40 186 -40q154 0 239 108q81 102 81 277q0 173 -84 272q-88 103 -250 103q-82 0 -143 -23v-352h55q56 0 56 -42t-56 -42h-194q-56 0 -56 42t56 42h55v697h-365v-697h55q56 0 56 -42t-56 -42h-194q-56 0 -56 42z" />
<glyph unicode="&#x4a8;" d="M127 504v171q0 209 143 364q147 158 356 158q208 0 358 -142v59q0 56 42 56t42 -56v-233q0 -57 -42 -57q-39 0 -42 51q-7 107 -132 177q-108 61 -223 61q-178 0 -300 -136q-118 -132 -118 -314v-147q0 -190 110 -325q115 -140 288 -140q75 0 137 22q-166 133 -166 358 q0 145 51 240q63 118 193 118q244 0 244 -358q0 -238 -174 -373q72 -50 153 -84q21 -9 21 -32q0 -40 -39 -40q-16 0 -39 11q-99 47 -170 99q-93 -45 -211 -45q-213 0 -350 161q-132 155 -132 376zM665 431q0 -200 159 -318q160 109 160 318q0 272 -160 272q-159 0 -159 -272 z" />
<glyph unicode="&#x4a9;" d="M171 425q0 204 133 337.5t337 133.5q188 0 324 -95v38q0 57 42 57q43 0 43 -57v-170q0 -57 -40 -57q-28 0 -45 47q-26 70 -135 114q-95 38 -194 38q-170 0 -275.5 -107t-105.5 -278q0 -164 113 -272q108 -103 263 -103q75 0 137 22q-126 128 -126 281q0 111 47 179 q54 79 157 79q100 0 154 -73q50 -68 50 -185q0 -186 -144 -293q75 -52 123 -72q21 -9 21 -32q0 -40 -39 -40q-16 0 -39 11q-50 24 -138 88q-101 -49 -203 -49q-202 0 -331 128t-129 330zM727 354q0 -139 119 -241q120 88 120 241q0 172 -120 172q-119 0 -119 -172z" />
<glyph unicode="&#x4aa;" d="M127 504v171q0 132 69 259t180 194q115 69 250 69q208 0 358 -142v59q0 56 42 56t42 -56v-233q0 -57 -42 -57q-39 0 -42 51q-5 84 -91 149q-117 89 -264 89q-96 0 -183 -43q-65 -32 -102 -76q-133 -157 -133 -331v-147q0 -185 134 -325t318 -140q201 0 359 189 q18 21 38 21q40 0 40 -39q0 -22 -43 -70q-83 -92 -184 -138q-78 -35 -155 -44q45 -50 45 -116q0 -69 -44.5 -108.5t-114.5 -39.5q-61 0 -107 32q-29 20 -29 39q0 31 30 31q10 0 26 -14q31 -28 78 -28q101 0 101 82q0 46 -28 80q-26 31 -66 37q-52 8 -129 37 q-122 46 -234 185q-119 149 -119 317z" />
<glyph unicode="&#x4ab;" d="M171 425q0 204 133 337.5t337 133.5q193 0 324 -115v28q0 57 42 57q43 0 43 -57v-190q0 -57 -43 -57q-38 0 -42 50q-8 97 -125 153q-95 46 -204 46q-170 0 -275.5 -107t-105.5 -278q0 -167 108 -271t276 -104q226 0 383 152q21 20 37 20q40 0 40 -40q0 -43 -101 -109 q-129 -84 -281 -102q46 -50 46 -118q0 -69 -44.5 -108.5t-114.5 -39.5q-61 0 -107 32q-29 20 -29 39q0 31 30 31q10 0 26 -14q31 -28 78 -28q101 0 101 82q0 45 -29 79q-32 37 -85 42q-186 16 -302 142.5t-116 313.5z" />
<glyph unicode="&#x4ac;" d="M143 795v375h941v-375q0 -57 -42 -57t-42 57v291h-344v-1002h218q47 0 60 -12t13 -58v-233q0 -67 -41 -67q-43 0 -43 64v222h-510q-56 0 -56 42t56 42h218v1002h-344v-291q0 -57 -42 -57t-42 57z" />
<glyph unicode="&#x4ad;" d="M166 490v376h897v-376q0 -56 -42 -56q-43 0 -43 56v291h-322v-697h219q56 0 65 -26q5 -14 5 -44v-157q0 -68 -42 -68q-43 0 -43 65v146h-506q-57 0 -57 42t57 42h218v697h-322v-291q0 -56 -42 -56t-42 56z" />
<glyph unicode="&#x4ae;" d="M98 1128q0 42 56 42h230q56 0 56 -42t-56 -42h-81l311 -472l311 472h-82q-56 0 -56 42t56 42h228q57 0 57 -42t-57 -42h-48l-366 -560v-442h179q56 0 56 -42t-56 -42h-443q-56 0 -56 42t56 42h179v442l-368 560h-50q-56 0 -56 42z" />
<glyph unicode="&#x4af;" d="M149 823q0 29 24 39q9 4 32 4h230q56 0 56 -43q0 -42 -56 -42h-113l343 -689l338 689h-113q-56 0 -56 43q0 42 56 42h229q57 0 57 -43q0 -29 -26 -38q-11 -4 -56 -4l-388 -781v-302h210q57 0 57 -42t-57 -42h-504q-56 0 -56 42t56 42h210v302l-392 781h-25q-56 0 -56 42z " />
<glyph unicode="&#x4b0;" d="M98 1128q0 42 56 42h230q56 0 56 -42t-56 -42h-81l311 -472l311 472h-82q-56 0 -56 42t56 42h228q57 0 57 -42t-57 -42h-48l-366 -560v-33h271q41 0 41 -30t-41 -30h-271v-349h179q56 0 56 -42t-56 -42h-443q-56 0 -56 42t56 42h179v349h-271q-40 0 -40 30t40 30h271v33 l-368 560h-50q-56 0 -56 42z" />
<glyph unicode="&#x4b1;" d="M149 823q0 29 24 39q9 4 32 4h230q56 0 56 -43q0 -42 -56 -42h-113l343 -689l338 689h-113q-56 0 -56 43q0 42 56 42h229q57 0 57 -43q0 -29 -26 -38q-11 -4 -56 -4l-388 -781h271q41 0 41 -29q0 -30 -41 -30h-271v-243h210q57 0 57 -42t-57 -42h-504q-56 0 -56 42t56 42 h209v243h-271q-40 0 -40 30q0 29 40 29h271l-391 781h-25q-56 0 -56 42z" />
<glyph unicode="&#x4b2;" d="M80 42q0 31 26 39q10 3 61 3l394 515l-376 487h-31q-56 0 -56 42t56 42h229q57 0 57 -42t-57 -42h-94l324 -419l322 419h-94q-57 0 -57 42t57 42h230q56 0 56 -42t-56 -42h-32l-374 -487l399 -515h46q45 0 58 -12.5t13 -57.5v-233q0 -67 -41 -67q-45 0 -45 64v222h-269 q-56 0 -56 42t56 42h134l-347 446l-343 -446h134q56 0 56 -42t-56 -42h-268q-56 0 -56 42z" />
<glyph unicode="&#x4b3;" d="M101 42q0 30 25 39q8 3 47 3l385 369l-342 328q-49 0 -62 19q-8 12 -8 24q0 42 57 42h229q56 0 56 -43q0 -42 -56 -42h-100l283 -273l285 273h-100q-57 0 -57 43q0 42 57 42h229q56 0 56 -43q0 -28 -24 -38q-10 -4 -46 -4l-343 -328l385 -369q45 0 58 -12.5t13 -57.5 v-157q0 -68 -42 -68q-44 0 -44 65v146h-239q-57 0 -57 42t57 42h139l-327 313l-325 -313h140q56 0 56 -42t-56 -42h-273q-56 0 -56 42z" />
<glyph unicode="&#x4b4;" d="M12 752v418h760v-418q0 -56 -42 -56t-42 56v334h-254v-1002h518v1002h-23q-56 0 -56 42t56 42h201q57 0 57 -42t-57 -42h-94v-1002h107q45 0 58 -12.5t13 -57.5v-233q0 -67 -41 -67q-43 0 -43 64v222h-875q-56 0 -56 42t56 42h95v1002h-254v-334q0 -56 -42 -56t-42 56z " />
<glyph unicode="&#x4b5;" d="M12 490v376h757v-376q0 -56 -42 -56q-43 0 -43 56v291h-252v-697h505v697h-24q-57 0 -57 42q0 43 57 43h173q56 0 56 -43q0 -42 -56 -42h-65v-697h127q45 0 58 -12.5t13 -57.5v-157q0 -68 -42 -68q-43 0 -43 65v146h-881q-56 0 -56 42t56 42h95v697h-252v-291 q0 -56 -42 -56t-42 56z" />
<glyph unicode="&#x4b6;" d="M41 1128q0 42 70 42h288q70 0 70 -42t-70 -42h-114v-344q0 -132 36 -189q46 -74 168 -74q175 0 385 178v429h-98q-70 0 -70 42t70 42h275q70 0 70 -42t-70 -42h-92v-1002h92q54 0 65 -20q8 -13 8 -50v-233q0 -67 -41 -67q-43 0 -43 64v222h-406q-70 0 -70 42t70 42h240 v467l-74 -54q-141 -103 -315 -103q-159 0 -226 92q-58 79 -58 246v354h-90q-70 0 -70 42z" />
<glyph unicode="&#x4b7;" d="M70 823q0 43 70 43h276q71 0 71 -43q0 -42 -71 -42h-107v-236q0 -102 47 -142q44 -38 148 -38q173 0 373 129v287h-89q-71 0 -71 42q0 43 71 43h261q70 0 70 -43q0 -42 -70 -42h-87v-697h87q56 0 65 -26q5 -14 5 -44v-157q0 -68 -42 -68q-43 0 -43 65v146h-384 q-71 0 -71 42t71 42h227v314q-166 -116 -373 -116q-279 0 -279 263v236h-85q-70 0 -70 42z" />
<glyph unicode="&#x4b8;" d="M41 1128q0 42 70 42h288q70 0 70 -42t-70 -42h-114v-344q0 -132 36 -189q46 -74 168 -74q26 0 53 4v387q0 57 42 57t42 -57v-366q117 42 248 153v429h-98q-70 0 -70 42t70 42h275q70 0 70 -42t-70 -42h-92v-1002h92q70 0 70 -42t-70 -42h-417q-70 0 -70 42t70 42h240v467 l-74 -54q-82 -60 -174 -85v-151q0 -56 -42 -56t-42 56v136q-29 -3 -57 -3q-159 0 -226 92q-58 79 -58 246v354h-90q-70 0 -70 42z" />
<glyph unicode="&#x4b9;" d="M70 823q0 43 70 43h276q71 0 71 -43q0 -42 -71 -42h-107v-236q0 -102 47 -142q44 -38 148 -38q25 0 58 4v211q0 57 42 57t42 -57v-195q109 31 231 109v287h-89q-71 0 -71 42q0 43 71 43h261q70 0 70 -43q0 -42 -70 -42h-87v-697h87q70 0 70 -42t-70 -42h-399 q-71 0 -71 42t71 42h227v314q-106 -74 -231 -101v-86q0 -56 -42 -56t-42 56v73q-24 -2 -58 -2q-279 0 -279 263v236h-85q-70 0 -70 42z" />
<glyph unicode="&#x4ba;" d="M107 42q0 42 70 42h92v1002h-92q-70 0 -70 42t70 42h417q70 0 70 -42t-70 -42h-240v-467l74 54q141 103 315 103q159 0 226 -92q58 -79 58 -246v-354h90q70 0 70 -42t-70 -42h-288q-70 0 -70 42t70 42h114v344q0 134 -35 190q-45 73 -169 73q-175 0 -385 -178v-429h98 q70 0 70 -42t-70 -42h-275q-70 0 -70 42z" />
<glyph unicode="&#x4bb;" d="M85 1213q0 18 13 30t43 12h197v-517q80 87 153.5 122.5t164.5 35.5q98 0 166.5 -34.5t114.5 -106t46 -150.5v-521h94q31 0 43.5 -11.5t12.5 -30.5q0 -18 -12.5 -30t-43.5 -12h-273q-31 0 -44 12t-13 30q0 19 13 30.5t44 11.5h94v515q0 91 -65.5 152t-182.5 61 q-92 0 -157 -45q-47 -32 -155 -151v-532h95q30 0 43 -11.5t13 -30.5q0 -18 -13 -30t-43 -12h-274q-30 0 -43 12t-13 30q0 19 13 30.5t43 11.5h95v1086h-113q-30 0 -43 12t-13 31z" />
<glyph unicode="&#x4bc;" d="M5 740q0 55 42 55t42 -56q0 -71 33 -103q38 -37 82 -37h27v61q0 214 143 373q147 164 353 164q205 0 347 -164q137 -158 137 -373v-145h-896v-26q0 -178 116 -305q122 -133 306 -133q212 0 370 189q18 21 38 21q40 0 40 -39q0 -22 -43 -70q-166 -185 -404 -185 q-228 0 -371 155q-136 148 -136 367v26h-18q-98 0 -153 63t-55 162zM315 599h812v49q0 190 -108 324q-113 141 -292 141q-183 0 -300 -140q-112 -133 -112 -325v-49z" />
<glyph unicode="&#x4bd;" d="M15 638q0 55 42 55t42 -56q0 -71 33 -103q37 -36 82 -36h26q15 152 134 267q136 131 335 131q211 0 341.5 -135.5t128.5 -347.5h-856q22 -165 137.5 -263.5t282.5 -98.5q221 0 365 113q19 15 33 15q40 0 40 -42q0 -16 -16 -33q-61 -62 -198 -102q-120 -35 -224 -35 q-215 0 -360 142q-132 129 -144 304h-16q-98 0 -153 63t-55 162zM324 498h770q-26 142 -132.5 227.5t-252.5 85.5t-252.5 -85t-132.5 -228z" />
<glyph unicode="&#x4be;" d="M5 740q0 55 42 55t42 -56q0 -71 33 -103q38 -37 82 -37h27v61q0 214 143 373q147 164 353 164q205 0 347 -164q137 -158 137 -373v-145h-896v-26q0 -178 116 -305q122 -133 306 -133q212 0 370 189q18 21 38 21q40 0 40 -39q0 -22 -43 -70q-151 -168 -372 -184 q-48 -3 -80 -37.5t-32 -82.5q0 -82 101 -82q47 0 78 28q16 14 26 14q30 0 30 -31q0 -19 -29 -39q-46 -32 -107 -32q-70 0 -114.5 39.5t-44.5 108.5t49 120q-190 31 -305 178q-111 143 -111 337v26h-18q-98 0 -153 63t-55 162zM315 599h812v49q0 190 -108 324 q-113 141 -292 141q-183 0 -300 -140q-112 -133 -112 -325v-49z" />
<glyph unicode="&#x4bf;" d="M15 638q0 55 42 55t42 -56q0 -71 33 -103q37 -36 82 -36h26q15 152 134 267q136 131 335 131q211 0 341.5 -135.5t128.5 -347.5h-856q22 -165 137.5 -263.5t282.5 -98.5q221 0 365 113q19 15 33 15q40 0 40 -42q0 -16 -16 -33q-60 -62 -197 -102q-117 -34 -222 -35 q-45 -1 -79 -40q-29 -34 -29 -79q0 -82 101 -82q47 0 78 28q16 14 26 14q30 0 30 -31q0 -19 -29 -39q-46 -32 -107 -32q-70 0 -114.5 39.5t-44.5 108.5q0 71 52 124q-142 28 -247 131q-132 129 -144 304h-16q-98 0 -153 63t-55 162zM324 498h770q-26 142 -132.5 227.5 t-252.5 85.5t-252.5 -85t-132.5 -228z" />
<glyph unicode="&#x4c0;" d="M229 42q0 19 13 30.5t43 11.5h288v1002h-288q-30 0 -43 11.5t-13 30.5t13 30.5t43 11.5h660q30 0 43 -11.5t13 -30.5t-13 -30.5t-43 -11.5h-288v-1002h288q30 0 43 -11.5t13 -30.5q0 -18 -13 -30t-43 -12h-660q-30 0 -43 12t-13 30z" />
<glyph unicode="&#x4c1;" d="M-5 42q0 42 70 42h63l120 294q82 201 185 258q-46 48 -139 246q-66 139 -95.5 173t-70.5 34v-110q0 -58 -44 -58q-41 0 -41 64v115q0 43 11 56.5t45 13.5q102 0 147.5 -44t122.5 -207q78 -165 110.5 -206.5t70.5 -41.5h22v415h-64q-70 0 -70 42t70 42h213q71 0 71 -42 t-71 -42h-65v-415h22q44 0 74.5 38.5t108.5 209.5q76 164 119 207.5t145 43.5q40 0 50.5 -13.5t10.5 -56.5v-115q0 -65 -39 -65q-45 0 -45 59v110q-53 -1 -90 -61.5t-76 -145.5q-92 -201 -140 -246q104 -59 186 -258l120 -294h62q71 0 71 -42t-71 -42h-65q-41 0 -52 7 t-26 45l-118 290q-98 243 -217 243h-30v-501h65q71 0 71 -42t-71 -42h-213q-70 0 -70 42t70 42h64v501h-30q-117 0 -215 -243l-118 -290q-15 -37 -25.5 -44.5t-52.5 -7.5h-66q-70 0 -70 42zM314 1516q0 46 42 46q37 0 42 -48q7 -70 79 -111q62 -36 138 -36t137 35 q71 41 79 112q5 48 42 48q43 0 43 -46q0 -110 -99 -176q-87 -58 -202 -58q-114 0 -201 58q-100 67 -100 176z" />
<glyph unicode="&#x4c2;" d="M20 42q0 42 70 42h57l111 198q75 134 173 197q-42 34 -122 161q-61 95 -90.5 118t-74.5 23v-63q0 -57 -42 -57q-43 0 -43 64v70q0 43 11 57t46 14q88 0 138.5 -32.5t121.5 -149.5q74 -123 109.5 -150t65.5 -27h21v274h-59q-71 0 -71 42q0 43 71 43h202q71 0 71 -43 q0 -42 -71 -42h-58v-274h20q40 0 71 31t105 146q75 117 118.5 149.5t127.5 32.5q46 0 58 -14t12 -57v-70q0 -64 -41 -64q-44 0 -44 57v63q-44 0 -74.5 -22.5t-90.5 -118.5q-80 -131 -122 -161q92 -51 174 -197l110 -198h57q70 0 70 -42t-70 -42h-54q-41 0 -51 5.5t-29 40.5 l-110 198q-99 179 -209 179h-28v-339h58q71 0 71 -42t-71 -42h-202q-71 0 -71 42t71 42h59v339h-29q-110 0 -209 -179l-110 -198q-19 -34 -28.5 -40t-48.5 -6h-57q-70 0 -70 42zM314 1252q0 46 42 46q37 0 42 -48q7 -70 79 -111q62 -36 138 -36t137 35q71 41 79 112 q5 48 42 48q43 0 43 -46q0 -110 -99 -176q-87 -58 -202 -58q-114 0 -201 58q-100 67 -100 176z" />
<glyph unicode="&#x4c3;" d="M119 42q0 42 70 42h107v1002h-107q-70 0 -70 42t70 42h301q71 0 71 -42t-71 -42h-109v-415h64q105 0 175 79q23 26 109 171.5t121 180.5q71 69 195 69q52 0 65 -10q16 -13 16 -61v-111q0 -69 -42 -69q-43 0 -43 65v104q-89 0 -146 -64q-21 -23 -91 -144 q-113 -194 -148 -210h28q209 0 341.5 -141.5t132.5 -357.5q0 -249 -109 -396q-119 -162 -345 -162q-203 0 -323 105v-48q0 -57 -42 -57q-43 0 -43 57v190q0 57 43 57q18 0 29 -11q8 -8 13 -39q14 -80 129 -129q95 -40 200 -40q173 0 269 134q90 124 90 327q0 172 -105 295 q-112 130 -286 130h-297v-501h109q71 0 71 -42t-71 -42h-301q-70 0 -70 42z" />
<glyph unicode="&#x4c4;" d="M120 42q0 42 70 42h102v697h-102q-70 0 -70 42q0 43 70 43h289q70 0 70 -43q0 -42 -70 -42h-102v-274h62q86 0 137 33q36 23 101 102q110 134 143 161q78 63 196 63q50 0 66 -12t16 -59v-115q0 -60 -43 -60q-41 0 -41 53v108q-84 0 -133 -38q-21 -17 -168 -196 q-22 -25 -46 -40q203 0 323.5 -117.5t120.5 -320.5q0 -207 -113 -330q-116 -125 -318 -125q-183 0 -303 105v-48q0 -57 -42 -57q-43 0 -43 57v190q0 57 43 57q18 0 29 -11q8 -8 13 -39q14 -81 119 -129q89 -40 191 -40q157 0 248.5 99.5t91.5 269.5q0 167 -99 261t-267 94 h-284v-339h102q70 0 70 -42t-70 -42h-289q-70 0 -70 42z" />
<glyph unicode="&#x4c5;" d="M35 59v125q0 66 43 66q41 0 41 -59v-129q43 -12 77 -12q202 0 202 351v685h-116q-70 0 -70 42t70 42h803q70 0 70 -42t-70 -42h-88v-1002h88q37 0 48 -14q7 -9 7 -26q0 -15 -4 -30l-63 -233q-18 -67 -59 -67q-30 0 -30 33q0 12 5 31l59 222h-225q-70 0 -70 42t70 42h89 v1002h-430v-685q0 -434 -273 -434q-137 0 -164 38q-10 14 -10 54z" />
<glyph unicode="&#x4c6;" d="M51 59v83q0 63 45 63q39 0 39 -58v-82q46 -11 82 -11q186 0 186 244v483h-110q-70 0 -70 42q0 43 70 43h776q70 0 70 -43q0 -42 -70 -42h-84v-697h84q38 0 49 -14q7 -9 7 -26q0 -15 -4 -30l-42 -158q-18 -67 -59 -67q-31 0 -31 33q0 12 5 31l39 147h-215q-70 0 -70 42 t70 42h83v697h-413v-483q0 -331 -273 -331q-130 0 -155 38q-9 14 -9 54z" />
<glyph unicode="&#x4c7;" d="M107 42q0 42 56 42h95v1002h-52q-57 0 -57 42t57 42h249q56 0 56 -42t-56 -42h-113v-436h557v436h-112q-56 0 -56 42t56 42h249q57 0 57 -42t-57 -42h-52v-942q0 -262 -72 -382q-87 -148 -306 -148q-160 0 -263 105v-48q0 -57 -42 -57q-43 0 -43 57v190q0 57 43 57 q18 0 29 -11q8 -8 13 -39q12 -71 92 -120t177 -49q165 0 232 119q55 98 55 312v436h-557v-482h113q56 0 56 -42t-56 -42h-292q-56 0 -56 42z" />
<glyph unicode="&#x4c8;" d="M107 42q0 42 56 42h95v697h-65q-56 0 -56 42q0 43 56 43h214q56 0 56 -43q0 -42 -56 -42h-65v-283h545v283h-64q-57 0 -57 42q0 43 57 43h213q56 0 56 -43q0 -42 -56 -42h-65v-653q0 -256 -72 -374q-84 -140 -292 -140q-168 0 -264 105v-48q0 -57 -42 -57q-43 0 -43 57 v190q0 57 43 57q18 0 29 -11q5 -5 13 -39q17 -73 97 -122q77 -47 167 -47q162 0 225 111q55 95 55 316v287h-545v-329h95q56 0 56 -42t-56 -42h-274q-56 0 -56 42z" />
<glyph unicode="&#x4c9;" d="M107 42q0 42 56 42h95v1002h-52q-57 0 -57 42t57 42h249q56 0 56 -42t-56 -42h-113v-436h557v436h-112q-56 0 -56 42t56 42h249q57 0 57 -42t-57 -42h-52v-1002h95q41 0 52 -14q7 -9 7 -26q0 -15 -4 -30l-63 -233q-18 -67 -59 -67q-30 0 -30 33q0 12 5 31l59 222h-259 q-56 0 -56 42t56 42h112v482h-557v-482h113q56 0 56 -42t-56 -42h-292q-56 0 -56 42z" />
<glyph unicode="&#x4ca;" d="M107 42q0 42 56 42h95v697h-65q-56 0 -56 42q0 43 56 43h214q56 0 56 -43q0 -42 -56 -42h-65v-283h545v283h-64q-57 0 -57 42q0 43 57 43h213q56 0 56 -43q0 -42 -56 -42h-65v-697h95q38 0 49 -14q7 -9 7 -26q0 -15 -4 -30l-42 -158q-18 -67 -59 -67q-31 0 -31 33 q0 13 5 31l40 147h-239q-56 0 -56 42t56 42h95v329h-545v-329h95q56 0 56 -42t-56 -42h-274q-56 0 -56 42z" />
<glyph unicode="&#x4cb;" d="M41 1128q0 42 70 42h288q70 0 70 -42t-70 -42h-114v-344q0 -132 36 -189q46 -74 168 -74q175 0 385 178v429h-98q-70 0 -70 42t70 42h275q70 0 70 -42t-70 -42h-92v-1002h92q70 0 70 -42t-70 -42h-406v-222q0 -64 -43 -64q-41 0 -41 67v233q0 63 40 68q12 2 33 2h240v467 l-74 -54q-141 -103 -315 -103q-159 0 -226 92q-58 79 -58 246v354h-90q-70 0 -70 42z" />
<glyph unicode="&#x4cc;" d="M70 823q0 43 70 43h276q71 0 71 -43q0 -42 -71 -42h-107v-236q0 -102 47 -142q44 -38 148 -38q173 0 373 129v287h-89q-71 0 -71 42q0 43 71 43h261q70 0 70 -43q0 -42 -70 -42h-87v-697h87q70 0 70 -42t-70 -42h-384v-146q0 -65 -43 -65q-42 0 -42 68v157q0 57 28 66 q14 4 42 4h227v314q-166 -116 -373 -116q-279 0 -279 263v236h-85q-70 0 -70 42z" />
<glyph unicode="&#x4cd;" d="M24 42q0 42 56 42h71v1002h-53q-56 0 -56 42t56 42h206l318 -724l313 724h206q57 0 57 -42t-57 -42h-52v-1002h70q37 0 48 -14q7 -9 7 -26q0 -15 -4 -30l-63 -233q-18 -67 -59 -67q-30 0 -30 33q0 12 5 31l59 222h-272q-57 0 -57 42t57 42h155v1002h-18l-317 -735h-96 l-323 735h-16v-1002h155q56 0 56 -42t-56 -42h-310q-56 0 -56 42z" />
<glyph unicode="&#x4ce;" d="M31 42q0 42 56 42h71v697h-53q-56 0 -56 42q0 43 56 43h194l318 -687l313 687h194q57 0 57 -43q0 -42 -57 -42h-52v-697h70q38 0 49 -14q7 -9 7 -26q0 -15 -4 -30l-42 -158q-18 -67 -59 -67q-31 0 -31 33q0 12 5 31l39 147h-273q-57 0 -57 42t57 42h154v697l-322 -697 h-96l-327 697v-697h155q56 0 56 -42t-56 -42h-310q-56 0 -56 42z" />
<glyph unicode="&#x4d0;" d="M17 42q0 19 13 30.5t43 11.5h65l371 1002h-248q-30 0 -43 11.5t-13 30.5t13 30.5t43 11.5h423l410 -1086h65q30 0 43 -11.5t13 -30.5q0 -18 -13 -30t-43 -12h-313q-31 0 -44 12t-13 30q0 19 13 30.5t44 11.5h160l-115 307h-552l-113 -307h161q30 0 43 -11.5t13 -30.5 q0 -18 -13 -30t-43 -12h-314q-30 0 -43 12t-13 30zM314 1516q0 46 42 46q37 0 42 -48q7 -70 79 -111q62 -36 138 -36t137 35q71 41 79 112q5 48 42 48q43 0 43 -46q0 -110 -99 -176q-87 -58 -202 -58q-114 0 -201 58q-100 67 -100 176zM371 475h488l-232 611h-31z" />
<glyph unicode="&#x4d1;" d="M144 231q0 122 112 213t327 91q58 0 126 -7.5t147 -23.5v136q0 69 -64 120t-192 51q-98 0 -275 -57q-32 -10 -41 -10q-16 0 -27.5 12t-11.5 30q0 17 10 27q14 15 113 41q156 42 236 42q159 0 248 -78.5t89 -177.5v-556h112q31 0 44 -11.5t13 -30.5q0 -18 -13 -30t-44 -12 h-197v121q-183 -154 -391 -154q-151 0 -236 76.5t-85 187.5zM228 231q0 -76 59.5 -128t173.5 -52q109 0 202.5 43.5t192.5 138.5v185q-59 17 -125 25t-139 8q-183 0 -286 -79q-78 -59 -78 -141zM314 1252q0 46 42 46q37 0 42 -48q7 -70 79 -111q62 -36 138 -36t137 35 q71 41 79 112q5 48 42 48q43 0 43 -46q0 -110 -99 -176q-87 -58 -202 -58q-114 0 -201 58q-100 67 -100 176z" />
<glyph unicode="&#x4d2;" d="M17 42q0 19 13 30.5t43 11.5h65l371 1002h-248q-30 0 -43 11.5t-13 30.5t13 30.5t43 11.5h423l410 -1086h65q30 0 43 -11.5t13 -30.5q0 -18 -13 -30t-43 -12h-313q-31 0 -44 12t-13 30q0 19 13 30.5t44 11.5h160l-115 307h-552l-113 -307h161q30 0 43 -11.5t13 -30.5 q0 -18 -13 -30t-43 -12h-314q-30 0 -43 12t-13 30zM320 1414q0 34 24 58t57 24q34 0 58 -24t24 -58t-24 -57.5t-58 -23.5q-33 0 -57 24t-24 57zM371 475h488l-232 611h-31zM749 1414q0 34 23.5 58t57.5 24t58 -24t24 -58t-24 -57.5t-58 -23.5t-57.5 24t-23.5 57z" />
<glyph unicode="&#x4d3;" d="M144 231q0 122 112 213t327 91q58 0 126 -7.5t147 -23.5v136q0 69 -64 120t-192 51q-98 0 -275 -57q-32 -10 -41 -10q-16 0 -27.5 12t-11.5 30q0 17 10 27q14 15 113 41q156 42 236 42q159 0 248 -78.5t89 -177.5v-556h112q31 0 44 -11.5t13 -30.5q0 -18 -13 -30t-44 -12 h-197v121q-183 -154 -391 -154q-151 0 -236 76.5t-85 187.5zM228 231q0 -76 59.5 -128t173.5 -52q109 0 202.5 43.5t192.5 138.5v185q-59 17 -125 25t-139 8q-183 0 -286 -79q-78 -59 -78 -141zM319 1147q0 34 24 58t57 24q34 0 58 -24t24 -58t-24 -57.5t-58 -23.5 q-33 0 -57 24t-24 57zM748 1147q0 34 23.5 58t57.5 24t58 -24t24 -58t-24 -57.5t-58 -23.5t-57.5 24t-23.5 57z" />
<glyph unicode="&#x4d4;" d="M18 42q0 19 13 30.5t43 11.5h77l276 1002h-131q-30 0 -43 11.5t-13 30.5t12.5 30.5t43.5 11.5h874v-316q0 -30 -12 -43t-30 -13q-19 0 -31 13t-12 43v232h-387v-436h163v58q0 31 11.5 44t30.5 13t31 -13t11 -44v-198q0 -31 -11.5 -44t-30.5 -13t-30.5 13t-11.5 44v57 h-163v-483h430v194q0 23 5 34q3 6 14.5 14t18.5 8l20 -3q16 -9 21 -18.5t5 -34.5v-278h-706q-30 0 -43 12t-13 30q0 19 13 30.5t43 11.5h108v310h-293l-85 -310h54q30 0 43 -11.5t13 -30.5q0 -18 -13 -30t-43 -12h-216q-30 0 -43 12t-13 30zM344 475h270v611h-104z" />
<glyph unicode="&#x4d5;" d="M16 300q0 55 29.5 95.5t115.5 80.5q125 58 234 58q45 0 90 -6.5t89 -19.5v125q0 70 -53 124t-114 54q-33 0 -86 -14.5t-103 -40.5q-26 -13 -37 -13q-16 0 -28.5 12.5t-12.5 28.5t14 31t105 48t153 33q69 0 134 -47.5t96 -130.5q55 91 105 128q65 50 136 50 q109 0 208.5 -126.5t100.5 -357.5h-534q15 -181 100 -286q61 -75 129 -75q89 0 231 116q18 15 33 15q18 0 29.5 -12t11.5 -30q0 -16 -13 -31q-48 -51 -152 -103q-79 -39 -139 -39q-61 0 -122 39.5t-108 119.5v-70q0 -30 -11.5 -43t-30.5 -13t-30.5 13t-11.5 43v45 q-71 -76 -127 -105t-119 -29q-80 0 -154 43t-116 125t-42 165zM100 293q0 -59 30.5 -119.5t84 -91.5t111.5 -31q53 0 100 30q64 40 148 148v191q-45 15 -88 22.5t-84 7.5q-141 0 -249 -72q-53 -34 -53 -85zM658 496h449q-20 156 -102 249q-58 66 -125 66q-63 0 -121 -67 q-80 -92 -101 -248z" />
<glyph unicode="&#x4d6;" d="M88 42q0 19 13 30.5t43 11.5h113v1002h-113q-30 0 -43 11.5t-13 30.5t13 30.5t43 11.5h883v-289q0 -30 -11.5 -43t-30.5 -13t-30.5 13t-11.5 43v205h-602v-437h301v95q0 30 12 43t31 13q18 0 30 -13t12 -43v-274q0 -30 -12 -43t-30 -13q-19 0 -31 13t-12 43v95h-301v-481 h646v248q0 30 11.5 43t30.5 13t30.5 -13t11.5 -43v-332h-927q-30 0 -43 12t-13 30zM314 1516q0 46 42 46q37 0 42 -48q7 -70 79 -111q62 -36 138 -36t137 35q71 41 79 112q5 48 42 48q43 0 43 -46q0 -110 -99 -176q-87 -58 -202 -58q-114 0 -201 58q-100 67 -100 176z" />
<glyph unicode="&#x4d7;" d="M128 451q0 183 135.5 314t335.5 131q206 0 339 -134.5t131 -348.5h-856q22 -163 136.5 -262.5t283.5 -99.5q94 0 197 31t168 82q19 15 33 15q16 0 28 -12.5t12 -29.5t-16 -33q-48 -50 -170.5 -93.5t-251.5 -43.5q-216 0 -360.5 141.5t-144.5 342.5zM214 498h770 q-25 139 -131.5 226t-253.5 87t-253 -86t-132 -227zM314 1252q0 46 42 46q37 0 42 -48q7 -70 79 -111q62 -36 138 -36t137 35q71 41 79 112q5 48 42 48q43 0 43 -46q0 -110 -99 -176q-87 -58 -202 -58q-114 0 -201 58q-100 67 -100 176z" />
<glyph unicode="&#x4da;" d="M66 504v145h986v26q0 110 -68 228q-71 123 -167 168q-91 42 -181 42q-116 0 -224 -61q-126 -70 -133 -177q-3 -51 -42 -51q-42 0 -42 57v233q0 56 42 56t42 -56v-59q150 142 358 142q211 0 357 -156q142 -153 142 -366v-171q0 -208 -164 -372.5t-372 -164.5 q-207 0 -370.5 164.5t-163.5 372.5zM150 516q0 -167 127 -316t323 -149q185 0 318.5 139.5t133.5 325.5v49h-902v-49zM320 1414q0 34 24 58t57 24q34 0 58 -24t24 -58t-24 -57.5t-58 -23.5q-33 0 -57 24t-24 57zM749 1414q0 34 23.5 58t57.5 24t58 -24t24 -58t-24 -57.5 t-58 -23.5t-57.5 24t-23.5 57z" />
<glyph unicode="&#x4db;" d="M128 726q0 17 16 33q62 63 198 103q119 34 224 34q211 0 358 -137t147 -347q0 -192 -141 -320q-136 -125 -330 -125q-210 0 -341 136t-129 347h856q-22 167 -136.5 264.5t-283.5 97.5q-221 0 -365 -113q-19 -15 -33 -15q-40 0 -40 42zM215 365q25 -141 134 -228 q106 -85 251 -85q146 0 252.5 85t132.5 228h-770zM279 1147q0 34 24 58t57 24q34 0 58 -24t24 -58t-24 -57.5t-58 -23.5q-33 0 -57 24t-24 57zM708 1147q0 34 23.5 58t57.5 24t58 -24t24 -58t-24 -57.5t-58 -23.5t-57.5 24t-23.5 57z" />
<glyph unicode="&#x4dc;" d="M-5 42q0 42 70 42h63l120 294q82 201 185 258q-46 48 -139 246q-66 139 -95.5 173t-70.5 34v-110q0 -58 -44 -58q-41 0 -41 64v115q0 43 11 56.5t45 13.5q102 0 147.5 -44t122.5 -207q78 -165 110.5 -206.5t70.5 -41.5h22v415h-64q-70 0 -70 42t70 42h213q71 0 71 -42 t-71 -42h-65v-415h22q44 0 74.5 38.5t108.5 209.5q76 164 119 207.5t145 43.5q40 0 50.5 -13.5t10.5 -56.5v-115q0 -65 -39 -65q-45 0 -45 59v110q-53 -1 -90 -61.5t-76 -145.5q-92 -201 -140 -246q104 -59 186 -258l120 -294h62q71 0 71 -42t-71 -42h-65q-41 0 -52 7 t-26 45l-118 290q-98 243 -217 243h-30v-501h65q71 0 71 -42t-71 -42h-213q-70 0 -70 42t70 42h64v501h-30q-117 0 -215 -243l-118 -290q-15 -37 -25.5 -44.5t-52.5 -7.5h-66q-70 0 -70 42zM320 1414q0 34 24 58t57 24q34 0 58 -24t24 -58t-24 -57.5t-58 -23.5q-33 0 -57 24 t-24 57zM749 1414q0 34 23.5 58t57.5 24t58 -24t24 -58t-24 -57.5t-58 -23.5t-57.5 24t-23.5 57z" />
<glyph unicode="&#x4dd;" d="M20 42q0 42 70 42h57l111 198q75 134 173 197q-42 34 -122 161q-61 95 -90.5 118t-74.5 23v-63q0 -57 -42 -57q-43 0 -43 64v70q0 43 11 57t46 14q88 0 138.5 -32.5t121.5 -149.5q74 -123 109.5 -150t65.5 -27h21v274h-59q-71 0 -71 42q0 43 71 43h202q71 0 71 -43 q0 -42 -71 -42h-58v-274h20q40 0 71 31t105 146q75 117 118.5 149.5t127.5 32.5q46 0 58 -14t12 -57v-70q0 -64 -41 -64q-44 0 -44 57v63q-44 0 -74.5 -22.5t-90.5 -118.5q-80 -131 -122 -161q92 -51 174 -197l110 -198h57q70 0 70 -42t-70 -42h-54q-41 0 -51 5.5t-29 40.5 l-110 198q-99 179 -209 179h-28v-339h58q71 0 71 -42t-71 -42h-202q-71 0 -71 42t71 42h59v339h-29q-110 0 -209 -179l-110 -198q-19 -34 -28.5 -40t-48.5 -6h-57q-70 0 -70 42zM319 1147q0 34 24 58t57 24q34 0 58 -24t24 -58t-24 -57.5t-58 -23.5q-33 0 -57 24t-24 57z M748 1147q0 34 23.5 58t57.5 24t58 -24t24 -58t-24 -57.5t-58 -23.5t-57.5 24t-23.5 57z" />
<glyph unicode="&#x4de;" d="M114 142q0 22 15 35t28 13q15 0 37 -13q127 -73 211 -99.5t221 -26.5q187 0 281 75.5t94 190.5q0 83 -60.5 143.5t-153 78t-265.5 17.5h-58q-71 0 -71 42q0 43 71 43h58q434 0 434 242q0 109 -94 169.5t-235 60.5q-165 0 -258.5 -87t-119.5 -220q-8 -43 -39 -43 q-39 0 -39 39q0 26 9 92q4 39 4 64q0 7 -3 99q-4 87 -4 88q0 39 38 39q33 0 42 -58q10 -61 38 -61q10 0 28 15q141 117 313 117q198 0 305.5 -89t107.5 -222q0 -196 -223 -278q268 -63 268 -293q0 -142 -114 -245t-365 -103q-201 0 -351 66t-150 109zM320 1414q0 34 24 58 t57 24q34 0 58 -24t24 -58t-24 -57.5t-58 -23.5q-33 0 -57 24t-24 57zM749 1414q0 34 23.5 58t57.5 24t58 -24t24 -58t-24 -57.5t-58 -23.5t-57.5 24t-23.5 57z" />
<glyph unicode="&#x4df;" d="M144 112q0 19 14 32.5t28 13.5q13 0 35 -11q195 -96 421 -96q180 0 270.5 52.5t90.5 133.5q0 92 -104.5 130.5t-360.5 38.5h-55q-70 0 -70 39q0 46 70 46h55q422 0 422 167q0 70 -83.5 111.5t-240.5 41.5q-307 0 -355 -198q-13 -54 -44 -54q-37 0 -37 44v221q0 72 41 72 q43 0 43 -72v-63q129 135 372 135q174 0 284 -62.5t110 -174.5q0 -142 -186 -201l61 -14q67 -15 118 -72.5t51 -134.5q0 -119 -108.5 -194.5t-351.5 -75.5q-160 0 -325 46.5t-165 98.5zM319 1147q0 34 24 58t57 24q34 0 58 -24t24 -58t-24 -57.5t-58 -23.5q-33 0 -57 24 t-24 57zM748 1147q0 34 23.5 58t57.5 24t58 -24t24 -58t-24 -57.5t-58 -23.5t-57.5 24t-23.5 57z" />
<glyph unicode="&#x4e0;" d="M195 141q0 40 39 40q16 0 36 -15q155 -115 328 -115q146 0 244.5 91.5t98.5 206.5q0 128 -127 222q-109 81 -215 81q-45 0 -45 38q0 14 14 29l327 367h-559v-247q0 -57 -43 -57q-42 0 -42 57v331h725v-119l-307 -332q93 -13 184 -74q74 -50 111 -104q61 -90 61 -189 q0 -154 -122.5 -269.5t-306.5 -115.5q-91 0 -205 39q-125 42 -181 101q-15 16 -15 34z" />
<glyph unicode="&#x4e1;" d="M140 -170q0 40 40 40q16 0 37 -20q157 -152 383 -152q384 0 384 305q0 325 -381 325h-41q-71 0 -71 42q0 13 8 22l343 389h-522v-114q0 -56 -42 -56q-43 0 -43 56v199h726v-75l-337 -379q202 -12 318 -112q126 -108 126 -298q0 -195 -131 -295q-121 -93 -333 -93 q-200 0 -363 107q-101 66 -101 109z" />
<glyph unicode="&#x4e2;" d="M40 42q0 42 56 42h113v1002h-113q-56 0 -56 42t56 42h352q57 0 57 -42t-57 -42h-155v-965l620 1049h220q56 0 56 -42t-56 -42h-113v-1002h113q56 0 56 -42t-56 -42h-310q-56 0 -56 42t56 42h113v963l-619 -1047h-221q-56 0 -56 42zM316 1382q0 19 13 31t43 12h483 q33 -1 46 -12.5t13 -30.5t-13 -30.5t-44 -11.5h-485q-30 0 -43 12t-13 30z" />
<glyph unicode="&#x4e3;" d="M58 42q0 42 56 42h101v697h-101q-56 0 -56 42q0 43 56 43h298q56 0 56 -43q0 -42 -56 -42h-113v-660l605 745h211q56 0 56 -43q0 -42 -56 -42h-113v-697h113q56 0 56 -42t-56 -42h-310q-56 0 -56 42t56 42h113v659l-604 -743h-200q-56 0 -56 42zM322 1118q0 19 13 31 t43 12h483q33 -1 46 -12.5t13 -30.5t-13 -30.5t-44 -11.5h-485q-30 0 -43 12t-13 30z" />
<glyph unicode="&#x4e4;" d="M40 42q0 42 56 42h113v1002h-113q-56 0 -56 42t56 42h352q57 0 57 -42t-57 -42h-155v-965l620 1049h220q56 0 56 -42t-56 -42h-113v-1002h113q56 0 56 -42t-56 -42h-310q-56 0 -56 42t56 42h113v963l-619 -1047h-221q-56 0 -56 42zM320 1414q0 34 24 58t57 24 q34 0 58 -24t24 -58t-24 -57.5t-58 -23.5q-33 0 -57 24t-24 57zM749 1414q0 34 23.5 58t57.5 24t58 -24t24 -58t-24 -57.5t-58 -23.5t-57.5 24t-23.5 57z" />
<glyph unicode="&#x4e5;" d="M58 42q0 42 56 42h101v697h-101q-56 0 -56 42q0 43 56 43h298q56 0 56 -43q0 -42 -56 -42h-113v-660l605 745h211q56 0 56 -43q0 -42 -56 -42h-113v-697h113q56 0 56 -42t-56 -42h-310q-56 0 -56 42t56 42h113v659l-604 -743h-200q-56 0 -56 42zM319 1147q0 34 24 58 t57 24q34 0 58 -24t24 -58t-24 -57.5t-58 -23.5q-33 0 -57 24t-24 57zM748 1147q0 34 23.5 58t57.5 24t58 -24t24 -58t-24 -57.5t-58 -23.5t-57.5 24t-23.5 57z" />
<glyph unicode="&#x4e6;" d="M104 582q0 271 154.5 443t357.5 172q137 0 256 -80t187.5 -223t68.5 -312q0 -168 -68 -311.5t-187.5 -223.5t-256.5 -80q-203 0 -357.5 172.5t-154.5 442.5zM188 582q0 -234 131.5 -382.5t296.5 -148.5q189 0 308 162.5t119 368.5q0 205 -119 368t-308 163 q-177 0 -302.5 -155.5t-125.5 -375.5zM320 1414q0 34 24 58t57 24q34 0 58 -24t24 -58t-24 -57.5t-58 -23.5q-33 0 -57 24t-24 57zM749 1414q0 34 23.5 58t57.5 24t58 -24t24 -58t-24 -57.5t-58 -23.5t-57.5 24t-23.5 57z" />
<glyph unicode="&#x4e7;" d="M145 431q0 192 137 328.5t333 136.5q194 0 331.5 -136t137.5 -329q0 -192 -137.5 -328t-331.5 -136q-196 0 -333 136.5t-137 327.5zM229 431q0 -156 112.5 -268t272.5 -112t272.5 111.5t112.5 268.5q0 158 -112.5 269t-272.5 111t-272.5 -111.5t-112.5 -268.5zM319 1147 q0 34 24 58t57 24q34 0 58 -24t24 -58t-24 -57.5t-58 -23.5q-33 0 -57 24t-24 57zM748 1147q0 34 23.5 58t57.5 24t58 -24t24 -58t-24 -57.5t-58 -23.5t-57.5 24t-23.5 57z" />
<glyph unicode="&#x4e8;" d="M104 582q0 238 134 418q147 197 378 197q144 0 265 -86q114 -81 179 -217q68 -142 68 -312q0 -160 -63 -300q-68 -152 -192 -235q-119 -80 -257 -80q-230 0 -378 198q-134 179 -134 417zM188 566q4 -222 132 -366q132 -149 296 -149q190 0 312 167q111 150 115 348h-855z M191 650h849q-17 164 -116 300q-119 163 -308 163q-177 0 -302 -155q-106 -132 -123 -308z" />
<glyph unicode="&#x4e9;" d="M145 431q0 196 137 330.5t333 134.5q195 0 332 -135t137 -330t-137 -329.5t-332 -134.5t-332.5 135t-137.5 329zM231 468h766q-13 148 -123.5 245.5t-259.5 97.5q-160 0 -272 -111q-99 -98 -111 -232zM232 384q15 -126 110 -221q113 -112 272 -112q145 0 255.5 95 t126.5 238h-764z" />
<glyph unicode="&#x4ea;" d="M104 582q0 238 134 418q147 197 378 197q144 0 265 -86q114 -81 179 -217q68 -142 68 -312q0 -160 -63 -300q-68 -152 -192 -235q-119 -80 -257 -80q-230 0 -378 198q-134 179 -134 417zM188 566q4 -222 132 -366q132 -149 296 -149q190 0 312 167q111 150 115 348h-855z M191 650h849q-17 164 -116 300q-119 163 -308 163q-177 0 -302 -155q-106 -132 -123 -308zM320 1414q0 34 24 58t57 24q34 0 58 -24t24 -58t-24 -57.5t-58 -23.5q-33 0 -57 24t-24 57zM749 1414q0 34 23.5 58t57.5 24t58 -24t24 -58t-24 -57.5t-58 -23.5t-57.5 24t-23.5 57z " />
<glyph unicode="&#x4eb;" d="M145 431q0 196 137 330.5t333 134.5q195 0 332 -135t137 -330t-137 -329.5t-332 -134.5t-332.5 135t-137.5 329zM231 468h766q-13 148 -123.5 245.5t-259.5 97.5q-160 0 -272 -111q-99 -98 -111 -232zM232 384q15 -126 110 -221q113 -112 272 -112q145 0 255.5 95 t126.5 238h-764zM319 1147q0 34 24 58t57 24q34 0 58 -24t24 -58t-24 -57.5t-58 -23.5q-33 0 -57 24t-24 57zM748 1147q0 34 23.5 58t57.5 24t58 -24t24 -58t-24 -57.5t-58 -23.5t-57.5 24t-23.5 57z" />
<glyph unicode="&#x4ec;" d="M129 222q0 -49 133 -152t304 -103q220 0 378 173t158 364v171q0 193 -137 357.5t-362 164.5q-208 0 -358 -142v59q0 56 -42 56t-42 -56v-233q0 -57 42 -57q39 0 42 51q6 96 116.5 167t240.5 71q90 0 180.5 -42t163 -162t72.5 -234v-26h-526q-57 0 -57 -39q0 -45 57 -45 h526v-49q0 -168 -126.5 -316.5t-325.5 -148.5q-200 0 -359 189q-17 21 -38 21q-40 0 -40 -39zM299 1414q0 34 24 58t57 24q34 0 58 -24t24 -58t-24 -57.5t-58 -23.5q-33 0 -57 24t-24 57zM728 1414q0 34 23.5 58t57.5 24t58 -24t24 -58t-24 -57.5t-58 -23.5t-57.5 24 t-23.5 57z" />
<glyph unicode="&#x4ed;" d="M130 183q0 -53 144 -134.5t320 -81.5q206 0 335 131t129 327q0 200 -132.5 335.5t-337.5 135.5q-193 0 -324 -115v28q0 57 -42 57q-43 0 -43 -57v-190q0 -57 43 -57q38 0 42 50q7 81 102.5 140t226.5 59q154 0 256.5 -90t122.5 -253h-443q-57 0 -57 -42t57 -42h443 q-19 -157 -125.5 -245t-256.5 -88q-227 0 -383 152q-21 20 -37 20q-40 0 -40 -40zM299 1147q0 34 24 58t57 24q34 0 58 -24t24 -58t-24 -57.5t-58 -23.5q-33 0 -57 24t-24 57zM728 1147q0 34 23.5 58t57.5 24t58 -24t24 -58t-24 -57.5t-58 -23.5t-57.5 24t-23.5 57z" />
<glyph unicode="&#x4ee;" d="M44 1128q0 42 70 42h233q70 0 70 -42t-70 -42h-77l362 -667l362 667h-77q-71 0 -71 42t71 42h224q70 0 70 -42t-70 -42h-50l-501 -918q-51 -95 -110 -148.5t-150 -53.5q-50 0 -97 12t-56 27t-9 55v121q0 69 41 69q43 0 43 -64v-121q51 -14 86 -14q56 0 92.5 33.5 t84.5 122.5l65 120l-412 759h-54q-70 0 -70 42zM336 1382q0 19 13 31t43 12h483q33 -1 46 -12.5t13 -30.5t-13 -30.5t-44 -11.5h-485q-30 0 -43 12t-13 30z" />
<glyph unicode="&#x4ef;" d="M149 823q0 13 6.5 23.5t17 15t32.5 4.5h230q30 0 43 -12t13 -31q0 -18 -13 -30t-43 -12h-113l343 -689l338 689h-113q-30 0 -43 12t-13 31q0 18 13 30t43 12h229q31 0 44 -12t13 -31q0 -13 -8 -24t-18 -14.5t-56 -3.5l-532 -1083h131q30 0 43 -11.5t13 -30.5 q0 -18 -13 -30t-43 -12h-484q-30 0 -43 11.5t-13 30.5t13 30.5t43 11.5h263l148 302l-390 781h-25q-30 0 -43 12t-13 30zM366 1118q0 19 13 31t43 12h483q33 -1 46 -12.5t13 -30.5t-13 -30.5t-44 -11.5h-485q-30 0 -43 12t-13 30z" />
<glyph unicode="&#x4f0;" d="M44 1128q0 42 70 42h233q70 0 70 -42t-70 -42h-77l362 -667l362 667h-77q-71 0 -71 42t71 42h224q70 0 70 -42t-70 -42h-50l-501 -918q-51 -95 -110 -148.5t-150 -53.5q-50 0 -97 12t-56 27t-9 55v121q0 69 41 69q43 0 43 -64v-121q51 -14 86 -14q56 0 92.5 33.5 t84.5 122.5l65 120l-412 759h-54q-70 0 -70 42zM339 1414q0 34 24 58t57 24q34 0 58 -24t24 -58t-24 -57.5t-58 -23.5q-33 0 -57 24t-24 57zM768 1414q0 34 23.5 58t57.5 24t58 -24t24 -58t-24 -57.5t-58 -23.5t-57.5 24t-23.5 57z" />
<glyph unicode="&#x4f1;" d="M149 823q0 13 6.5 23.5t17 15t32.5 4.5h230q30 0 43 -12t13 -31q0 -18 -13 -30t-43 -12h-113l343 -689l338 689h-113q-30 0 -43 12t-13 31q0 18 13 30t43 12h229q31 0 44 -12t13 -31q0 -13 -8 -24t-18 -14.5t-56 -3.5l-532 -1083h131q30 0 43 -11.5t13 -30.5 q0 -18 -13 -30t-43 -12h-484q-30 0 -43 11.5t-13 30.5t13 30.5t43 11.5h263l148 302l-390 781h-25q-30 0 -43 12t-13 30zM369 1147q0 34 24 58t57 24q34 0 58 -24t24 -58t-24 -57.5t-58 -23.5q-33 0 -57 24t-24 57zM798 1147q0 34 23.5 58t57.5 24t58 -24t24 -58t-24 -57.5 t-58 -23.5t-57.5 24t-23.5 57z" />
<glyph unicode="&#x4f2;" d="M44 1128q0 42 70 42h233q70 0 70 -42t-70 -42h-77l362 -667l362 667h-77q-71 0 -71 42t71 42h224q70 0 70 -42t-70 -42h-50l-501 -918q-51 -95 -110 -148.5t-150 -53.5q-50 0 -97 12t-56 27t-9 55v121q0 69 41 69q43 0 43 -64v-121q51 -14 86 -14q56 0 92.5 33.5 t84.5 122.5l65 120l-412 759h-54q-70 0 -70 42zM412 1327q0 16 21 38l193 204q23 23 41 23t30 -12.5t12 -30.5q0 -16 -21 -38l-193 -204q-23 -23 -41 -23q-17 0 -29.5 12t-12.5 31zM715 1327q0 16 21 38l194 204q22 23 40 23t30 -12.5t12 -30.5q0 -16 -21 -38l-193 -204 q-22 -23 -41 -23q-17 0 -29.5 12t-12.5 31z" />
<glyph unicode="&#x4f3;" d="M149 823q0 13 6.5 23.5t17 15t32.5 4.5h230q30 0 43 -12t13 -31q0 -18 -13 -30t-43 -12h-113l343 -689l338 689h-113q-30 0 -43 12t-13 31q0 18 13 30t43 12h229q31 0 44 -12t13 -31q0 -13 -8 -24t-18 -14.5t-56 -3.5l-532 -1083h131q30 0 43 -11.5t13 -30.5 q0 -18 -13 -30t-43 -12h-484q-30 0 -43 11.5t-13 30.5t13 30.5t43 11.5h263l148 302l-390 781h-25q-30 0 -43 12t-13 30zM455 1063q0 16 21 38l193 204q23 23 41 23t30 -12.5t12 -30.5q0 -16 -21 -38l-193 -204q-23 -23 -41 -23q-17 0 -29.5 12t-12.5 31zM758 1063 q0 16 21 38l194 204q22 23 40 23t30 -12.5t12 -30.5q0 -16 -21 -38l-193 -204q-22 -23 -41 -23q-17 0 -29.5 12t-12.5 31z" />
<glyph unicode="&#x4f4;" d="M41 1128q0 42 70 42h288q70 0 70 -42t-70 -42h-114v-344q0 -144 44.5 -203.5t159.5 -59.5q175 0 385 178v429h-98q-70 0 -70 42t70 42h275q70 0 70 -42t-70 -42h-92v-1002h92q70 0 70 -42t-70 -42h-417q-70 0 -70 42t70 42h240v467l-74 -54q-140 -103 -315 -103 q-114 0 -199 62t-85 276v354h-90q-70 0 -70 42zM289 1414q0 34 24 58t57 24q34 0 58 -24t24 -58t-24 -57.5t-58 -23.5q-33 0 -57 24t-24 57zM718 1414q0 34 23.5 58t57.5 24t58 -24t24 -58t-24 -57.5t-58 -23.5t-57.5 24t-23.5 57z" />
<glyph unicode="&#x4f5;" d="M70 823q0 43 70 43h276q71 0 71 -43q0 -42 -71 -42h-107v-236q0 -95 41 -137.5t154 -42.5q173 0 373 129v287h-89q-71 0 -71 42q0 43 71 43h261q70 0 70 -43q0 -42 -70 -42h-87v-697h87q70 0 70 -42t-70 -42h-399q-71 0 -71 42t71 42h227v314q-166 -116 -373 -116 q-112 0 -195.5 49t-83.5 214v236h-85q-70 0 -70 42zM309 1147q0 34 24 58t57 24q34 0 58 -24t24 -58t-24 -57.5t-58 -23.5q-33 0 -57 24t-24 57zM738 1147q0 34 23.5 58t57.5 24t58 -24t24 -58t-24 -57.5t-58 -23.5t-57.5 24t-23.5 57z" />
<glyph unicode="&#x4f6;" d="M127 42q0 42 56 42h200v1002h-200q-56 0 -56 42t56 42h928v-418q0 -56 -42 -56q-43 0 -43 56v334h-558v-1002h188q46 0 58 -12t12 -58v-233q0 -67 -41 -67q-43 0 -43 64v222h-457q-58 0 -58 42z" />
<glyph unicode="&#x4f7;" d="M152 42q0 42 56 42h200v697h-200q-56 0 -56 42q0 43 56 43h880v-419q0 -56 -43 -56q-42 0 -42 56v334h-510v-697h185q45 0 58 -12.5t13 -57.5v-157q0 -68 -42 -68q-43 0 -43 65v146h-455q-57 0 -57 42z" />
<glyph unicode="&#x4f8;" d="M2 42q0 42 56 42h113v1002h-113q-56 0 -56 42t56 42h310q56 0 56 -42t-56 -42h-113v-436h134q219 0 341.5 -84.5t122.5 -240.5q0 -142 -102 -233.5t-240 -91.5h-453q-56 0 -56 42zM255 84h250q117 0 190 71.5t73 167.5q0 108 -98.5 175t-287.5 67h-127v-481zM309 1414 q0 34 24 58t57 24q34 0 58 -24t24 -58t-24 -57.5t-58 -23.5q-33 0 -57 24t-24 57zM738 1414q0 34 23.5 58t57.5 24t58 -24t24 -58t-24 -57.5t-58 -23.5t-57.5 24t-23.5 57zM800 42q0 42 57 42h112v1002h-112q-57 0 -57 42t57 42h309q57 0 57 -42t-57 -42h-112v-1002h112 q57 0 57 -42t-57 -42h-309q-57 0 -57 42z" />
<glyph unicode="&#x4f9;" d="M24 42q0 42 56 42h49v697h-45q-57 0 -57 42q0 43 57 43h242q56 0 56 -43q0 -42 -56 -42h-113v-283h197q388 0 388 -238q0 -103 -65 -181.5t-323 -78.5h-330q-56 0 -56 42zM213 84h193q174 0 240 39t66 133q0 90 -69.5 123.5t-239.5 33.5h-190v-329zM299 1147q0 34 24 58 t57 24q34 0 58 -24t24 -58t-24 -57.5t-58 -23.5q-33 0 -57 24t-24 57zM728 1147q0 34 23.5 58t57.5 24t58 -24t24 -58t-24 -57.5t-58 -23.5t-57.5 24t-23.5 57zM801 42q0 42 56 42h112v697h-112q-56 0 -56 42q0 43 56 43h309q57 0 57 -43q0 -42 -57 -42h-112v-697h112 q57 0 57 -42t-57 -42h-309q-56 0 -56 42z" />
<glyph unicode="&#x2000;" horiz-adv-x="796" />
<glyph unicode="&#x2001;" horiz-adv-x="1593" />
<glyph unicode="&#x2002;" horiz-adv-x="796" />
<glyph unicode="&#x2003;" horiz-adv-x="1593" />
<glyph unicode="&#x2004;" horiz-adv-x="531" />
<glyph unicode="&#x2005;" horiz-adv-x="398" />
<glyph unicode="&#x2006;" horiz-adv-x="265" />
<glyph unicode="&#x2007;" horiz-adv-x="265" />
<glyph unicode="&#x2008;" horiz-adv-x="199" />
<glyph unicode="&#x2009;" horiz-adv-x="318" />
<glyph unicode="&#x200a;" horiz-adv-x="88" />
<glyph unicode="&#x2010;" d="M186 519v120h857v-120h-857z" />
<glyph unicode="&#x2011;" d="M186 519v120h857v-120h-857z" />
<glyph unicode="&#x2012;" d="M186 519v120h857v-120h-857z" />
<glyph unicode="&#x2013;" d="M145 585q0 19 13 30.5t43 11.5h827q30 0 43 -11.5t13 -30.5t-13 -30.5t-43 -11.5h-827q-30 0 -43 11.5t-13 30.5z" />
<glyph unicode="&#x2014;" d="M-15 586q0 19 13 31t43 12h1146q30 0 43 -12t13 -31q0 -18 -13 -30t-43 -12h-1146q-30 0 -43 12t-13 30z" />
<glyph unicode="&#x2018;" d="M509 1255h274l145 -520q3 -12 3 -23q0 -24 -17.5 -41.5t-43.5 -17.5q-36 0 -63 50z" />
<glyph unicode="&#x2019;" d="M293 713q0 10 3 22l146 520h273l-297 -552q-27 -50 -65 -50q-25 0 -42.5 17.5t-17.5 42.5z" />
<glyph unicode="&#x201a;" d="M299 -264q0 10 3 22l146 519h273l-297 -551q-27 -51 -65 -51q-25 0 -42.5 18t-17.5 43z" />
<glyph unicode="&#x201c;" d="M179 1255h218l171 -431q9 -23 9 -35q0 -21 -15 -36t-37 -15q-28 0 -53 40zM611 1255h218l171 -431q9 -23 9 -35q0 -21 -14.5 -36t-36.5 -15q-29 0 -54 40z" />
<glyph unicode="&#x201d;" d="M219 788q0 13 9 36l172 431h217l-293 -477q-24 -40 -54 -40q-21 0 -36 15t-15 35zM651 788q0 13 10 36l171 431h217l-292 -477q-25 -40 -54 -40q-22 0 -37 15t-15 35z" />
<glyph unicode="&#x201e;" d="M224 -210q0 13 9 36l172 430h217l-293 -476q-24 -40 -54 -40q-21 0 -36 15t-15 35zM656 -210q0 13 10 36l171 430h217l-292 -476q-25 -40 -54 -40q-22 0 -37 15t-15 35z" />
<glyph unicode="&#x2022;" d="M367 637q0 102 72.5 174.5t174.5 72.5q103 0 175.5 -72.5t72.5 -174.5q0 -103 -73 -175.5t-175 -72.5t-174.5 72.5t-72.5 175.5z" />
<glyph unicode="&#x2026;" d="M101 73q0 42 30 72t73 30q42 0 72 -30t30 -72q0 -43 -30 -73t-72 -30q-43 0 -73 30t-30 73zM511 73q0 42 30 72t72 30q43 0 73 -30t30 -72q0 -43 -30 -73t-73 -30q-42 0 -72 30t-30 73zM923 73q0 42 29.5 72t72.5 30t73 -30t30 -72q0 -43 -30 -73t-73 -30q-42 0 -72 30 t-30 73z" />
<glyph unicode="&#x202f;" horiz-adv-x="318" />
<glyph unicode="&#x2039;" d="M107 434l448 410q26 24 44 24t30 -12t12 -31q0 -16 -23 -41l-313 -350l313 -349q23 -25 23 -42q0 -18 -12 -30t-30 -12t-44 23z" />
<glyph unicode="&#x203a;" d="M596 43q0 17 22 42l313 349l-313 350q-22 25 -22 42q0 18 12 30t30 12t43 -24l449 -410l-449 -410q-25 -23 -43 -23t-30 12t-12 30z" />
<glyph unicode="&#x205f;" horiz-adv-x="398" />
<glyph unicode="&#x20ac;" d="M7 518q0 30 40 30h80v90h-80q-40 0 -40 30t40 30h84q10 209 154 354t344 145q208 0 358 -142v59q0 56 42 56t42 -56v-233q0 -57 -42 -57q-39 0 -42 51q-6 94 -115 166t-240 72q-111 0 -198.5 -52t-147.5 -145t-71 -218h583q42 0 42 -30t-42 -30h-586v-90h557q42 0 42 -30 t-42 -30h-554q8 -177 139.5 -307t311.5 -130q201 0 359 189q18 21 38 21q40 0 40 -39q0 -17 -34.5 -60.5t-99.5 -93.5t-141 -75.5t-160 -25.5q-148 0 -267 69t-194 185.5t-77 266.5h-83q-40 0 -40 30z" />
<glyph unicode="&#x2122;" d="M4 962v208h520v-208q0 -41 -32 -41q-33 0 -33 41v143h-162v-432h93q41 0 41 -33q0 -32 -41 -32h-252q-41 0 -41 32q0 33 41 33h94v432h-163v-143q0 -41 -32 -41q-33 0 -33 41zM535 640q0 33 42 33h36v497h107l160 -312l160 312h107v-497h36q42 0 42 -33q0 -32 -42 -32 h-161q-42 0 -42 32q0 33 42 33h58v430l-166 -327h-68l-166 325v-428h58q42 0 42 -33q0 -32 -42 -32h-161q-42 0 -42 32z" />
<glyph unicode="&#x25fc;" horiz-adv-x="865" d="M0 0v865h865v-865h-865z" />
</font>
</defs>
</svg>
